G04*
G04 #@! TF.GenerationSoftware,Altium Limited,Altium Designer,21.9.2 (33)*
G04*
G04 Layer_Color=2752767*
%FSLAX23Y23*%
%MOIN*%
G70*
G04*
G04 #@! TF.SameCoordinates,93BF6BEB-7BBE-4CB3-8882-CC5C7C9C0B20*
G04*
G04*
G04 #@! TF.FilePolarity,Positive*
G04*
G01*
G75*
%ADD23C,0.002*%
%ADD24C,0.003*%
D23*
X2157Y2992D02*
Y3008D01*
X2173D01*
Y2992D01*
X2157D01*
X5857D02*
Y3008D01*
X5873D01*
Y2992D01*
X5857D01*
X4007Y1142D02*
Y1158D01*
X4023D01*
Y1142D01*
X4007D01*
X4016Y2990D02*
X4008Y3006D01*
X4024D01*
X4016Y2990D01*
X2742Y3059D02*
X2746Y3063D01*
X2750D01*
X2746Y3067D01*
X2750Y3071D01*
X2746D01*
X2742Y3075D01*
X2738Y3071D01*
X2734D01*
X2738Y3067D01*
X2734Y3063D01*
X2738D01*
X2742Y3059D01*
X5607Y1592D02*
X5611Y1600D01*
X5607Y1608D01*
X5615Y1604D01*
X5623Y1608D01*
X5619Y1600D01*
X5623Y1592D01*
X5615Y1596D01*
X5607Y1592D01*
X5507Y1492D02*
X5511Y1500D01*
X5507Y1508D01*
X5515Y1504D01*
X5523Y1508D01*
X5519Y1500D01*
X5523Y1492D01*
X5515Y1496D01*
X5507Y1492D01*
X5407Y1392D02*
X5411Y1400D01*
X5407Y1408D01*
X5415Y1404D01*
X5423Y1408D01*
X5419Y1400D01*
X5423Y1392D01*
X5415Y1396D01*
X5407Y1392D01*
X2653Y3064D02*
X2657Y3068D01*
X2661D01*
X2657Y3072D01*
X2661Y3076D01*
X2657D01*
X2653Y3080D01*
X2649Y3076D01*
X2645D01*
X2649Y3072D01*
X2645Y3068D01*
X2649D01*
X2653Y3064D01*
X3779Y4154D02*
X3783Y4158D01*
X3787D01*
X3783Y4162D01*
X3787Y4166D01*
X3783D01*
X3779Y4170D01*
X3775Y4166D01*
X3771D01*
X3775Y4162D01*
X3771Y4158D01*
X3775D01*
X3779Y4154D01*
X4634Y4207D02*
X4638Y4211D01*
X4642D01*
X4638Y4215D01*
X4642Y4219D01*
X4638D01*
X4634Y4223D01*
X4630Y4219D01*
X4626D01*
X4630Y4215D01*
X4626Y4211D01*
X4630D01*
X4634Y4207D01*
X3849Y1636D02*
X3853Y1640D01*
X3857D01*
X3853Y1644D01*
X3857Y1648D01*
X3853D01*
X3849Y1652D01*
X3845Y1648D01*
X3841D01*
X3845Y1644D01*
X3841Y1640D01*
X3845D01*
X3849Y1636D01*
X3476Y2717D02*
X3480Y2721D01*
X3484D01*
X3480Y2725D01*
X3484Y2729D01*
X3480D01*
X3476Y2733D01*
X3472Y2729D01*
X3468D01*
X3472Y2725D01*
X3468Y2721D01*
X3472D01*
X3476Y2717D01*
X4696Y4173D02*
X4700Y4177D01*
X4704D01*
X4700Y4181D01*
X4704Y4185D01*
X4700D01*
X4696Y4189D01*
X4692Y4185D01*
X4688D01*
X4692Y4181D01*
X4688Y4177D01*
X4692D01*
X4696Y4173D01*
X4593Y4128D02*
X4597Y4132D01*
X4601D01*
X4597Y4136D01*
X4601Y4140D01*
X4597D01*
X4593Y4144D01*
X4589Y4140D01*
X4585D01*
X4589Y4136D01*
X4585Y4132D01*
X4589D01*
X4593Y4128D01*
X4634Y4003D02*
X4638Y4007D01*
X4642D01*
X4638Y4011D01*
X4642Y4015D01*
X4638D01*
X4634Y4019D01*
X4630Y4015D01*
X4626D01*
X4630Y4011D01*
X4626Y4007D01*
X4630D01*
X4634Y4003D01*
X4581Y4034D02*
X4585Y4038D01*
X4589D01*
X4585Y4042D01*
X4589Y4046D01*
X4585D01*
X4581Y4050D01*
X4577Y4046D01*
X4573D01*
X4577Y4042D01*
X4573Y4038D01*
X4577D01*
X4581Y4034D01*
X4652Y4096D02*
X4656Y4100D01*
X4660D01*
X4656Y4104D01*
X4660Y4108D01*
X4656D01*
X4652Y4112D01*
X4648Y4108D01*
X4644D01*
X4648Y4104D01*
X4644Y4100D01*
X4648D01*
X4652Y4096D01*
X4709Y4061D02*
X4713Y4065D01*
X4717D01*
X4713Y4069D01*
X4717Y4073D01*
X4713D01*
X4709Y4077D01*
X4705Y4073D01*
X4701D01*
X4705Y4069D01*
X4701Y4065D01*
X4705D01*
X4709Y4061D01*
X4757Y4135D02*
X4761Y4139D01*
X4765D01*
X4761Y4143D01*
X4765Y4147D01*
X4761D01*
X4757Y4151D01*
X4753Y4147D01*
X4749D01*
X4753Y4143D01*
X4749Y4139D01*
X4753D01*
X4757Y4135D01*
X3474Y3266D02*
X3478Y3270D01*
X3482D01*
X3478Y3274D01*
X3482Y3278D01*
X3478D01*
X3474Y3282D01*
X3470Y3278D01*
X3466D01*
X3470Y3274D01*
X3466Y3270D01*
X3470D01*
X3474Y3266D01*
X3532Y3335D02*
X3536Y3339D01*
X3540D01*
X3536Y3343D01*
X3540Y3347D01*
X3536D01*
X3532Y3351D01*
X3528Y3347D01*
X3524D01*
X3528Y3343D01*
X3524Y3339D01*
X3528D01*
X3532Y3335D01*
X3590Y3404D02*
X3594Y3408D01*
X3598D01*
X3594Y3412D01*
X3598Y3416D01*
X3594D01*
X3590Y3420D01*
X3586Y3416D01*
X3582D01*
X3586Y3412D01*
X3582Y3408D01*
X3586D01*
X3590Y3404D01*
X3648Y3473D02*
X3652Y3477D01*
X3656D01*
X3652Y3481D01*
X3656Y3485D01*
X3652D01*
X3648Y3489D01*
X3644Y3485D01*
X3640D01*
X3644Y3481D01*
X3640Y3477D01*
X3644D01*
X3648Y3473D01*
X2968Y3867D02*
X2972Y3871D01*
X2976D01*
X2972Y3875D01*
X2976Y3879D01*
X2972D01*
X2968Y3883D01*
X2964Y3879D01*
X2960D01*
X2964Y3875D01*
X2960Y3871D01*
X2964D01*
X2968Y3867D01*
X2924Y3812D02*
X2928Y3816D01*
X2932D01*
X2928Y3820D01*
X2932Y3824D01*
X2928D01*
X2924Y3828D01*
X2920Y3824D01*
X2916D01*
X2920Y3820D01*
X2916Y3816D01*
X2920D01*
X2924Y3812D01*
X2995Y3758D02*
X2999Y3762D01*
X3003D01*
X2999Y3766D01*
X3003Y3770D01*
X2999D01*
X2995Y3774D01*
X2991Y3770D01*
X2987D01*
X2991Y3766D01*
X2987Y3762D01*
X2991D01*
X2995Y3758D01*
X3124Y3777D02*
X3128Y3781D01*
X3132D01*
X3128Y3785D01*
X3132Y3789D01*
X3128D01*
X3124Y3793D01*
X3120Y3789D01*
X3116D01*
X3120Y3785D01*
X3116Y3781D01*
X3120D01*
X3124Y3777D01*
X3084Y3730D02*
X3088Y3734D01*
X3092D01*
X3088Y3738D01*
X3092Y3742D01*
X3088D01*
X3084Y3746D01*
X3080Y3742D01*
X3076D01*
X3080Y3738D01*
X3076Y3734D01*
X3080D01*
X3084Y3730D01*
X3036Y3811D02*
X3040Y3815D01*
X3044D01*
X3040Y3819D01*
X3044Y3823D01*
X3040D01*
X3036Y3827D01*
X3032Y3823D01*
X3028D01*
X3032Y3819D01*
X3028Y3815D01*
X3032D01*
X3036Y3811D01*
X3080Y3861D02*
X3084Y3865D01*
X3088D01*
X3084Y3869D01*
X3088Y3873D01*
X3084D01*
X3080Y3877D01*
X3076Y3873D01*
X3072D01*
X3076Y3869D01*
X3072Y3865D01*
X3076D01*
X3080Y3861D01*
X3016Y3921D02*
X3020Y3925D01*
X3024D01*
X3020Y3929D01*
X3024Y3933D01*
X3020D01*
X3016Y3937D01*
X3012Y3933D01*
X3008D01*
X3012Y3929D01*
X3008Y3925D01*
X3012D01*
X3016Y3921D01*
X3849Y4345D02*
X3853Y4349D01*
X3857D01*
X3853Y4353D01*
X3857Y4357D01*
X3853D01*
X3849Y4361D01*
X3845Y4357D01*
X3841D01*
X3845Y4353D01*
X3841Y4349D01*
X3845D01*
X3849Y4345D01*
X3860Y4257D02*
X3864Y4261D01*
X3868D01*
X3864Y4265D01*
X3868Y4269D01*
X3864D01*
X3860Y4273D01*
X3856Y4269D01*
X3852D01*
X3856Y4265D01*
X3852Y4261D01*
X3856D01*
X3860Y4257D01*
X3794Y4247D02*
X3798Y4251D01*
X3802D01*
X3798Y4255D01*
X3802Y4259D01*
X3798D01*
X3794Y4263D01*
X3790Y4259D01*
X3786D01*
X3790Y4255D01*
X3786Y4251D01*
X3790D01*
X3794Y4247D01*
X3840Y4165D02*
X3844Y4169D01*
X3848D01*
X3844Y4173D01*
X3848Y4177D01*
X3844D01*
X3840Y4181D01*
X3836Y4177D01*
X3832D01*
X3836Y4173D01*
X3832Y4169D01*
X3836D01*
X3840Y4165D01*
X3728Y4234D02*
X3732Y4238D01*
X3736D01*
X3732Y4242D01*
X3736Y4246D01*
X3732D01*
X3728Y4250D01*
X3724Y4246D01*
X3720D01*
X3724Y4242D01*
X3720Y4238D01*
X3724D01*
X3728Y4234D01*
X3708Y4320D02*
X3712Y4324D01*
X3716D01*
X3712Y4328D01*
X3716Y4332D01*
X3712D01*
X3708Y4336D01*
X3704Y4332D01*
X3700D01*
X3704Y4328D01*
X3700Y4324D01*
X3704D01*
X3708Y4320D01*
X3778Y4335D02*
X3782Y4339D01*
X3786D01*
X3782Y4343D01*
X3786Y4347D01*
X3782D01*
X3778Y4351D01*
X3774Y4347D01*
X3770D01*
X3774Y4343D01*
X3770Y4339D01*
X3774D01*
X3778Y4335D01*
X4045Y3596D02*
X4049Y3600D01*
X4053D01*
X4049Y3604D01*
X4053Y3608D01*
X4049D01*
X4045Y3612D01*
X4041Y3608D01*
X4037D01*
X4041Y3604D01*
X4037Y3600D01*
X4041D01*
X4045Y3596D01*
X3957Y3580D02*
X3961Y3584D01*
X3965D01*
X3961Y3588D01*
X3965Y3592D01*
X3961D01*
X3957Y3596D01*
X3953Y3592D01*
X3949D01*
X3953Y3588D01*
X3949Y3584D01*
X3953D01*
X3957Y3580D01*
X3868Y3565D02*
X3872Y3569D01*
X3876D01*
X3872Y3573D01*
X3876Y3577D01*
X3872D01*
X3868Y3581D01*
X3864Y3577D01*
X3860D01*
X3864Y3573D01*
X3860Y3569D01*
X3864D01*
X3868Y3565D01*
X3779Y3549D02*
X3783Y3553D01*
X3787D01*
X3783Y3557D01*
X3787Y3561D01*
X3783D01*
X3779Y3565D01*
X3775Y3561D01*
X3771D01*
X3775Y3557D01*
X3771Y3553D01*
X3775D01*
X3779Y3549D01*
X4192Y3570D02*
X4196Y3574D01*
X4200D01*
X4196Y3578D01*
X4200Y3582D01*
X4196D01*
X4192Y3586D01*
X4188Y3582D01*
X4184D01*
X4188Y3578D01*
X4184Y3574D01*
X4188D01*
X4192Y3570D01*
X4270Y3525D02*
X4274Y3529D01*
X4278D01*
X4274Y3533D01*
X4278Y3537D01*
X4274D01*
X4270Y3541D01*
X4266Y3537D01*
X4262D01*
X4266Y3533D01*
X4262Y3529D01*
X4266D01*
X4270Y3525D01*
X4348Y3480D02*
X4352Y3484D01*
X4356D01*
X4352Y3488D01*
X4356Y3492D01*
X4352D01*
X4348Y3496D01*
X4344Y3492D01*
X4340D01*
X4344Y3488D01*
X4340Y3484D01*
X4344D01*
X4348Y3480D01*
X4426Y3435D02*
X4430Y3439D01*
X4434D01*
X4430Y3443D01*
X4434Y3447D01*
X4430D01*
X4426Y3451D01*
X4422Y3447D01*
X4418D01*
X4422Y3443D01*
X4418Y3439D01*
X4422D01*
X4426Y3435D01*
X5320Y3390D02*
X5324Y3394D01*
X5328D01*
X5324Y3398D01*
X5328Y3402D01*
X5324D01*
X5320Y3406D01*
X5316Y3402D01*
X5312D01*
X5316Y3398D01*
X5312Y3394D01*
X5316D01*
X5320Y3390D01*
X5236Y3364D02*
X5240Y3368D01*
X5244D01*
X5240Y3372D01*
X5244Y3376D01*
X5240D01*
X5236Y3380D01*
X5232Y3376D01*
X5228D01*
X5232Y3372D01*
X5228Y3368D01*
X5232D01*
X5236Y3364D01*
X5214Y3427D02*
X5218Y3431D01*
X5222D01*
X5218Y3435D01*
X5222Y3439D01*
X5218D01*
X5214Y3443D01*
X5210Y3439D01*
X5206D01*
X5210Y3435D01*
X5206Y3431D01*
X5210D01*
X5214Y3427D01*
X5120Y3426D02*
X5124Y3430D01*
X5128D01*
X5124Y3434D01*
X5128Y3438D01*
X5124D01*
X5120Y3442D01*
X5116Y3438D01*
X5112D01*
X5116Y3434D01*
X5112Y3430D01*
X5116D01*
X5120Y3426D01*
X5141Y3368D02*
X5145Y3372D01*
X5149D01*
X5145Y3376D01*
X5149Y3380D01*
X5145D01*
X5141Y3384D01*
X5137Y3380D01*
X5133D01*
X5137Y3376D01*
X5133Y3372D01*
X5137D01*
X5141Y3368D01*
X5190Y3490D02*
X5194Y3494D01*
X5198D01*
X5194Y3498D01*
X5198Y3502D01*
X5194D01*
X5190Y3506D01*
X5186Y3502D01*
X5182D01*
X5186Y3498D01*
X5182Y3494D01*
X5186D01*
X5190Y3490D01*
X5272Y3524D02*
X5276Y3528D01*
X5280D01*
X5276Y3532D01*
X5280Y3536D01*
X5276D01*
X5272Y3540D01*
X5268Y3536D01*
X5264D01*
X5268Y3532D01*
X5264Y3528D01*
X5268D01*
X5272Y3524D01*
X5298Y3458D02*
X5302Y3462D01*
X5306D01*
X5302Y3466D01*
X5306Y3470D01*
X5302D01*
X5298Y3474D01*
X5294Y3470D01*
X5290D01*
X5294Y3466D01*
X5290Y3462D01*
X5294D01*
X5298Y3458D01*
X4617Y3067D02*
X4621Y3071D01*
X4625D01*
X4621Y3075D01*
X4625Y3079D01*
X4621D01*
X4617Y3083D01*
X4613Y3079D01*
X4609D01*
X4613Y3075D01*
X4609Y3071D01*
X4613D01*
X4617Y3067D01*
X4586Y3151D02*
X4590Y3155D01*
X4594D01*
X4590Y3159D01*
X4594Y3163D01*
X4590D01*
X4586Y3167D01*
X4582Y3163D01*
X4578D01*
X4582Y3159D01*
X4578Y3155D01*
X4582D01*
X4586Y3151D01*
X4555Y3236D02*
X4559Y3240D01*
X4563D01*
X4559Y3244D01*
X4563Y3248D01*
X4559D01*
X4555Y3252D01*
X4551Y3248D01*
X4547D01*
X4551Y3244D01*
X4547Y3240D01*
X4551D01*
X4555Y3236D01*
X4524Y3320D02*
X4528Y3324D01*
X4532D01*
X4528Y3328D01*
X4532Y3332D01*
X4528D01*
X4524Y3336D01*
X4520Y3332D01*
X4516D01*
X4520Y3328D01*
X4516Y3324D01*
X4520D01*
X4524Y3320D01*
X4617Y2918D02*
X4621Y2922D01*
X4625D01*
X4621Y2926D01*
X4625Y2930D01*
X4621D01*
X4617Y2934D01*
X4613Y2930D01*
X4609D01*
X4613Y2926D01*
X4609Y2922D01*
X4613D01*
X4617Y2918D01*
X4586Y2833D02*
X4590Y2837D01*
X4594D01*
X4590Y2841D01*
X4594Y2845D01*
X4590D01*
X4586Y2849D01*
X4582Y2845D01*
X4578D01*
X4582Y2841D01*
X4578Y2837D01*
X4582D01*
X4586Y2833D01*
X4555Y2749D02*
X4559Y2753D01*
X4563D01*
X4559Y2757D01*
X4563Y2761D01*
X4559D01*
X4555Y2765D01*
X4551Y2761D01*
X4547D01*
X4551Y2757D01*
X4547Y2753D01*
X4551D01*
X4555Y2749D01*
X4524Y2664D02*
X4528Y2668D01*
X4532D01*
X4528Y2672D01*
X4532Y2676D01*
X4528D01*
X4524Y2680D01*
X4520Y2676D01*
X4516D01*
X4520Y2672D01*
X4516Y2668D01*
X4520D01*
X4524Y2664D01*
X5297Y2526D02*
X5301Y2530D01*
X5305D01*
X5301Y2534D01*
X5305Y2538D01*
X5301D01*
X5297Y2542D01*
X5293Y2538D01*
X5289D01*
X5293Y2534D01*
X5289Y2530D01*
X5293D01*
X5297Y2526D01*
X5320Y2594D02*
X5324Y2598D01*
X5328D01*
X5324Y2602D01*
X5328Y2606D01*
X5324D01*
X5320Y2610D01*
X5316Y2606D01*
X5312D01*
X5316Y2602D01*
X5312Y2598D01*
X5316D01*
X5320Y2594D01*
X5235Y2620D02*
X5239Y2624D01*
X5243D01*
X5239Y2628D01*
X5243Y2632D01*
X5239D01*
X5235Y2636D01*
X5231Y2632D01*
X5227D01*
X5231Y2628D01*
X5227Y2624D01*
X5231D01*
X5235Y2620D01*
X5120Y2557D02*
X5124Y2561D01*
X5128D01*
X5124Y2565D01*
X5128Y2569D01*
X5124D01*
X5120Y2573D01*
X5116Y2569D01*
X5112D01*
X5116Y2565D01*
X5112Y2561D01*
X5116D01*
X5120Y2557D01*
X5141Y2616D02*
X5145Y2620D01*
X5149D01*
X5145Y2624D01*
X5149Y2628D01*
X5145D01*
X5141Y2632D01*
X5137Y2628D01*
X5133D01*
X5137Y2624D01*
X5133Y2620D01*
X5137D01*
X5141Y2616D01*
X5214Y2556D02*
X5218Y2560D01*
X5222D01*
X5218Y2564D01*
X5222Y2568D01*
X5218D01*
X5214Y2572D01*
X5210Y2568D01*
X5206D01*
X5210Y2564D01*
X5206Y2560D01*
X5210D01*
X5214Y2556D01*
X5190Y2494D02*
X5194Y2498D01*
X5198D01*
X5194Y2502D01*
X5198Y2506D01*
X5194D01*
X5190Y2510D01*
X5186Y2506D01*
X5182D01*
X5186Y2502D01*
X5182Y2498D01*
X5186D01*
X5190Y2494D01*
X5271Y2459D02*
X5275Y2463D01*
X5279D01*
X5275Y2467D01*
X5279Y2471D01*
X5275D01*
X5271Y2475D01*
X5267Y2471D01*
X5263D01*
X5267Y2467D01*
X5263Y2463D01*
X5267D01*
X5271Y2459D01*
X4633Y1775D02*
X4637Y1779D01*
X4641D01*
X4637Y1783D01*
X4641Y1787D01*
X4637D01*
X4633Y1791D01*
X4629Y1787D01*
X4625D01*
X4629Y1783D01*
X4625Y1779D01*
X4629D01*
X4633Y1775D01*
X4593Y1854D02*
X4597Y1858D01*
X4601D01*
X4597Y1862D01*
X4601Y1866D01*
X4597D01*
X4593Y1870D01*
X4589Y1866D01*
X4585D01*
X4589Y1862D01*
X4585Y1858D01*
X4589D01*
X4593Y1854D01*
X4652Y1886D02*
X4656Y1890D01*
X4660D01*
X4656Y1894D01*
X4660Y1898D01*
X4656D01*
X4652Y1902D01*
X4648Y1898D01*
X4644D01*
X4648Y1894D01*
X4644Y1890D01*
X4648D01*
X4652Y1886D01*
X4634Y1979D02*
X4638Y1983D01*
X4642D01*
X4638Y1987D01*
X4642Y1991D01*
X4638D01*
X4634Y1995D01*
X4630Y1991D01*
X4626D01*
X4630Y1987D01*
X4626Y1983D01*
X4630D01*
X4634Y1979D01*
X4580Y1948D02*
X4584Y1952D01*
X4588D01*
X4584Y1956D01*
X4588Y1960D01*
X4584D01*
X4580Y1964D01*
X4576Y1960D01*
X4572D01*
X4576Y1956D01*
X4572Y1952D01*
X4576D01*
X4580Y1948D01*
X4709Y1921D02*
X4713Y1925D01*
X4717D01*
X4713Y1929D01*
X4717Y1933D01*
X4713D01*
X4709Y1937D01*
X4705Y1933D01*
X4701D01*
X4705Y1929D01*
X4701Y1925D01*
X4705D01*
X4709Y1921D01*
X4757Y1847D02*
X4761Y1851D01*
X4765D01*
X4761Y1855D01*
X4765Y1859D01*
X4761D01*
X4757Y1863D01*
X4753Y1859D01*
X4749D01*
X4753Y1855D01*
X4749Y1851D01*
X4753D01*
X4757Y1847D01*
X4696Y1810D02*
X4700Y1814D01*
X4704D01*
X4700Y1818D01*
X4704Y1822D01*
X4700D01*
X4696Y1826D01*
X4692Y1822D01*
X4688D01*
X4692Y1818D01*
X4688Y1814D01*
X4692D01*
X4696Y1810D01*
X4193Y2412D02*
X4197Y2416D01*
X4201D01*
X4197Y2420D01*
X4201Y2424D01*
X4197D01*
X4193Y2428D01*
X4189Y2424D01*
X4185D01*
X4189Y2420D01*
X4185Y2416D01*
X4189D01*
X4193Y2412D01*
X4271Y2457D02*
X4275Y2461D01*
X4279D01*
X4275Y2465D01*
X4279Y2469D01*
X4275D01*
X4271Y2473D01*
X4267Y2469D01*
X4263D01*
X4267Y2465D01*
X4263Y2461D01*
X4267D01*
X4271Y2457D01*
X4349Y2502D02*
X4353Y2506D01*
X4357D01*
X4353Y2510D01*
X4357Y2514D01*
X4353D01*
X4349Y2518D01*
X4345Y2514D01*
X4341D01*
X4345Y2510D01*
X4341Y2506D01*
X4345D01*
X4349Y2502D01*
X4426Y2547D02*
X4430Y2551D01*
X4434D01*
X4430Y2555D01*
X4434Y2559D01*
X4430D01*
X4426Y2563D01*
X4422Y2559D01*
X4418D01*
X4422Y2555D01*
X4418Y2551D01*
X4422D01*
X4426Y2547D01*
X4046Y2385D02*
X4050Y2389D01*
X4054D01*
X4050Y2393D01*
X4054Y2397D01*
X4050D01*
X4046Y2401D01*
X4042Y2397D01*
X4038D01*
X4042Y2393D01*
X4038Y2389D01*
X4042D01*
X4046Y2385D01*
X3958Y2400D02*
X3962Y2404D01*
X3966D01*
X3962Y2408D01*
X3966Y2412D01*
X3962D01*
X3958Y2416D01*
X3954Y2412D01*
X3950D01*
X3954Y2408D01*
X3950Y2404D01*
X3954D01*
X3958Y2400D01*
X3869Y2416D02*
X3873Y2420D01*
X3877D01*
X3873Y2424D01*
X3877Y2428D01*
X3873D01*
X3869Y2432D01*
X3865Y2428D01*
X3861D01*
X3865Y2424D01*
X3861Y2420D01*
X3865D01*
X3869Y2416D01*
X3780Y2432D02*
X3784Y2436D01*
X3788D01*
X3784Y2440D01*
X3788Y2444D01*
X3784D01*
X3780Y2448D01*
X3776Y2444D01*
X3772D01*
X3776Y2440D01*
X3772Y2436D01*
X3776D01*
X3780Y2432D01*
X3779Y1646D02*
X3783Y1650D01*
X3787D01*
X3783Y1654D01*
X3787Y1658D01*
X3783D01*
X3779Y1662D01*
X3775Y1658D01*
X3771D01*
X3775Y1654D01*
X3771Y1650D01*
X3775D01*
X3779Y1646D01*
X3860Y1724D02*
X3864Y1728D01*
X3868D01*
X3864Y1732D01*
X3868Y1736D01*
X3864D01*
X3860Y1740D01*
X3856Y1736D01*
X3852D01*
X3856Y1732D01*
X3852Y1728D01*
X3856D01*
X3860Y1724D01*
X3779Y1827D02*
X3783Y1831D01*
X3787D01*
X3783Y1835D01*
X3787Y1839D01*
X3783D01*
X3779Y1843D01*
X3775Y1839D01*
X3771D01*
X3775Y1835D01*
X3771Y1831D01*
X3775D01*
X3779Y1827D01*
X3840Y1816D02*
X3844Y1820D01*
X3848D01*
X3844Y1824D01*
X3848Y1828D01*
X3844D01*
X3840Y1832D01*
X3836Y1828D01*
X3832D01*
X3836Y1824D01*
X3832Y1820D01*
X3836D01*
X3840Y1816D01*
X3794Y1734D02*
X3798Y1738D01*
X3802D01*
X3798Y1742D01*
X3802Y1746D01*
X3798D01*
X3794Y1750D01*
X3790Y1746D01*
X3786D01*
X3790Y1742D01*
X3786Y1738D01*
X3790D01*
X3794Y1734D01*
X3729Y1747D02*
X3733Y1751D01*
X3737D01*
X3733Y1755D01*
X3737Y1759D01*
X3733D01*
X3729Y1763D01*
X3725Y1759D01*
X3721D01*
X3725Y1755D01*
X3721Y1751D01*
X3725D01*
X3729Y1747D01*
X3709Y1661D02*
X3713Y1665D01*
X3717D01*
X3713Y1669D01*
X3717Y1673D01*
X3713D01*
X3709Y1677D01*
X3705Y1673D01*
X3701D01*
X3705Y1669D01*
X3701Y1665D01*
X3705D01*
X3709Y1661D01*
X2925Y2173D02*
X2929Y2177D01*
X2933D01*
X2929Y2181D01*
X2933Y2185D01*
X2929D01*
X2925Y2189D01*
X2921Y2185D01*
X2917D01*
X2921Y2181D01*
X2917Y2177D01*
X2921D01*
X2925Y2173D01*
X2996Y2226D02*
X3000Y2230D01*
X3004D01*
X3000Y2234D01*
X3004Y2238D01*
X3000D01*
X2996Y2242D01*
X2992Y2238D01*
X2988D01*
X2992Y2234D01*
X2988Y2230D01*
X2992D01*
X2996Y2226D01*
X3037Y2174D02*
X3041Y2178D01*
X3045D01*
X3041Y2182D01*
X3045Y2186D01*
X3041D01*
X3037Y2190D01*
X3033Y2186D01*
X3029D01*
X3033Y2182D01*
X3029Y2178D01*
X3033D01*
X3037Y2174D01*
X3126Y2207D02*
X3130Y2211D01*
X3134D01*
X3130Y2215D01*
X3134Y2219D01*
X3130D01*
X3126Y2223D01*
X3122Y2219D01*
X3118D01*
X3122Y2215D01*
X3118Y2211D01*
X3122D01*
X3126Y2207D01*
X3086Y2255D02*
X3090Y2259D01*
X3094D01*
X3090Y2263D01*
X3094Y2267D01*
X3090D01*
X3086Y2271D01*
X3082Y2267D01*
X3078D01*
X3082Y2263D01*
X3078Y2259D01*
X3082D01*
X3086Y2255D01*
X3082Y2124D02*
X3086Y2128D01*
X3090D01*
X3086Y2132D01*
X3090Y2136D01*
X3086D01*
X3082Y2140D01*
X3078Y2136D01*
X3074D01*
X3078Y2132D01*
X3074Y2128D01*
X3078D01*
X3082Y2124D01*
X3017Y2063D02*
X3021Y2067D01*
X3025D01*
X3021Y2071D01*
X3025Y2075D01*
X3021D01*
X3017Y2079D01*
X3013Y2075D01*
X3009D01*
X3013Y2071D01*
X3009Y2067D01*
X3013D01*
X3017Y2063D01*
X2970Y2117D02*
X2974Y2121D01*
X2978D01*
X2974Y2125D01*
X2978Y2129D01*
X2974D01*
X2970Y2133D01*
X2966Y2129D01*
X2962D01*
X2966Y2125D01*
X2962Y2121D01*
X2966D01*
X2970Y2117D01*
X3534Y2648D02*
X3538Y2652D01*
X3542D01*
X3538Y2656D01*
X3542Y2660D01*
X3538D01*
X3534Y2664D01*
X3530Y2660D01*
X3526D01*
X3530Y2656D01*
X3526Y2652D01*
X3530D01*
X3534Y2648D01*
X3592Y2579D02*
X3596Y2583D01*
X3600D01*
X3596Y2587D01*
X3600Y2591D01*
X3596D01*
X3592Y2595D01*
X3588Y2591D01*
X3584D01*
X3588Y2587D01*
X3584Y2583D01*
X3588D01*
X3592Y2579D01*
X3649Y2510D02*
X3653Y2514D01*
X3657D01*
X3653Y2518D01*
X3657Y2522D01*
X3653D01*
X3649Y2526D01*
X3645Y2522D01*
X3641D01*
X3645Y2518D01*
X3641Y2514D01*
X3645D01*
X3649Y2510D01*
X3425Y2947D02*
X3429Y2951D01*
X3433D01*
X3429Y2955D01*
X3433Y2959D01*
X3429D01*
X3425Y2963D01*
X3421Y2959D01*
X3417D01*
X3421Y2955D01*
X3417Y2951D01*
X3421D01*
X3425Y2947D01*
X2651Y2992D02*
X2655Y2996D01*
X2659D01*
X2655Y3000D01*
X2659Y3004D01*
X2655D01*
X2651Y3008D01*
X2647Y3004D01*
X2643D01*
X2647Y3000D01*
X2643Y2996D01*
X2647D01*
X2651Y2992D01*
X3425Y3127D02*
X3429Y3131D01*
X3433D01*
X3429Y3135D01*
X3433Y3139D01*
X3429D01*
X3425Y3143D01*
X3421Y3139D01*
X3417D01*
X3421Y3135D01*
X3417Y3131D01*
X3421D01*
X3425Y3127D01*
Y3037D02*
X3429Y3041D01*
X3433D01*
X3429Y3045D01*
X3433Y3049D01*
X3429D01*
X3425Y3053D01*
X3421Y3049D01*
X3417D01*
X3421Y3045D01*
X3417Y3041D01*
X3421D01*
X3425Y3037D01*
X2829Y2961D02*
X2833Y2965D01*
X2837D01*
X2833Y2969D01*
X2837Y2973D01*
X2833D01*
X2829Y2977D01*
X2825Y2973D01*
X2821D01*
X2825Y2969D01*
X2821Y2965D01*
X2825D01*
X2829Y2961D01*
Y3024D02*
X2833Y3028D01*
X2837D01*
X2833Y3032D01*
X2837Y3036D01*
X2833D01*
X2829Y3040D01*
X2825Y3036D01*
X2821D01*
X2825Y3032D01*
X2821Y3028D01*
X2825D01*
X2829Y3024D01*
X2740Y2992D02*
X2744Y2996D01*
X2748D01*
X2744Y3000D01*
X2748Y3004D01*
X2744D01*
X2740Y3008D01*
X2736Y3004D01*
X2732D01*
X2736Y3000D01*
X2732Y2996D01*
X2736D01*
X2740Y2992D01*
X2742Y2926D02*
X2746Y2930D01*
X2750D01*
X2746Y2934D01*
X2750Y2938D01*
X2746D01*
X2742Y2942D01*
X2738Y2938D01*
X2734D01*
X2738Y2934D01*
X2734Y2930D01*
X2738D01*
X2742Y2926D01*
X2653Y2921D02*
X2657Y2925D01*
X2661D01*
X2657Y2929D01*
X2661Y2933D01*
X2657D01*
X2653Y2937D01*
X2649Y2933D01*
X2645D01*
X2649Y2929D01*
X2645Y2925D01*
X2649D01*
X2653Y2921D01*
X3425Y2857D02*
X3429Y2861D01*
X3433D01*
X3429Y2865D01*
X3433Y2869D01*
X3429D01*
X3425Y2873D01*
X3421Y2869D01*
X3417D01*
X3421Y2865D01*
X3417Y2861D01*
X3421D01*
X3425Y2857D01*
D24*
X4023Y4850D02*
X4017Y4858D01*
X4009Y4855D01*
Y4845D01*
X4017Y4842D01*
X4023Y4850D01*
M02*
