G04*
G04 #@! TF.GenerationSoftware,Altium Limited,Altium Designer,21.9.2 (33)*
G04*
G04 Layer_Color=16711935*
%FSLAX23Y23*%
%MOIN*%
G70*
G04*
G04 #@! TF.SameCoordinates,93BF6BEB-7BBE-4CB3-8882-CC5C7C9C0B20*
G04*
G04*
G04 #@! TF.FilePolarity,Positive*
G04*
G01*
G75*
%ADD15C,0.016*%
D15*
X5653Y1909D02*
X5659Y1917D01*
X5664Y1925D01*
X5670Y1934D01*
X5675Y1942D01*
X5681Y1951D01*
X5686Y1959D01*
X5691Y1967D01*
X5696Y1976D01*
X5702Y1985D01*
X5707Y1993D01*
X5712Y2002D01*
X5717Y2010D01*
X5722Y2019D01*
X5727Y2028D01*
X5732Y2036D01*
X5737Y2045D01*
X5741Y2054D01*
X5746Y2063D01*
X5751Y2071D01*
X5756Y2080D01*
X5760Y2089D01*
X5765Y2098D01*
X5770Y2107D01*
X5774Y2116D01*
X5778Y2125D01*
X5783Y2134D01*
X5787Y2143D01*
X5792Y2152D01*
X5796Y2161D01*
X5800Y2170D01*
X5804Y2179D01*
X5809Y2188D01*
X5813Y2197D01*
X5817Y2206D01*
X5821Y2215D01*
X5825Y2225D01*
X5829Y2234D01*
X5832Y2243D01*
X5836Y2252D01*
X5840Y2262D01*
X5844Y2271D01*
X5847Y2280D01*
X5851Y2289D01*
X5855Y2299D01*
X5858Y2308D01*
X5862Y2318D01*
X5865Y2327D01*
X5869Y2336D01*
X5872Y2346D01*
X5875Y2355D01*
X5878Y2365D01*
X5882Y2374D01*
X5885Y2384D01*
X5888Y2393D01*
X5891Y2403D01*
X5894Y2412D01*
X5897Y2422D01*
X5900Y2431D01*
X5903Y2441D01*
X5906Y2450D01*
X5908Y2460D01*
X5911Y2470D01*
X5914Y2479D01*
X5916Y2489D01*
X5919Y2499D01*
X5921Y2508D01*
X5924Y2518D01*
X5926Y2528D01*
X5929Y2537D01*
X5931Y2547D01*
X5933Y2557D01*
X5936Y2567D01*
X5938Y2576D01*
X5940Y2586D01*
X5942Y2596D01*
X5944Y2606D01*
X5946Y2616D01*
X5948Y2625D01*
X5950Y2635D01*
X5952Y2645D01*
X5953Y2655D01*
X5955Y2665D01*
X5957Y2675D01*
X5958Y2684D01*
X5960Y2694D01*
X5962Y2704D01*
X5963Y2714D01*
X5964Y2724D01*
X5966Y2734D01*
X5967Y2744D01*
X5968Y2754D01*
X5970Y2764D01*
X5971Y2774D01*
X5972Y2784D01*
X5973Y2794D01*
X5974Y2803D01*
X5975Y2813D01*
X5976Y2823D01*
X5977Y2833D01*
X5978Y2843D01*
X5978Y2853D01*
X5979Y2863D01*
X5980Y2873D01*
X5980Y2883D01*
X5981Y2893D01*
X5982Y2903D01*
X5982Y2913D01*
X5982Y2923D01*
X5983Y2933D01*
X5983Y2943D01*
X5983Y2953D01*
X5984Y2963D01*
X5984Y2973D01*
X5984Y2983D01*
X5984Y2993D01*
X5984Y3003D01*
X5984Y3013D01*
X5984Y3023D01*
X5984Y3033D01*
X5984Y3043D01*
X5983Y3053D01*
X5983Y3063D01*
X5983Y3073D01*
X5982Y3083D01*
X5982Y3093D01*
X5981Y3103D01*
X5981Y3113D01*
X5980Y3123D01*
X5980Y3133D01*
X5979Y3143D01*
X5978Y3153D01*
X5977Y3163D01*
X5976Y3173D01*
X5976Y3183D01*
X5975Y3193D01*
X5974Y3203D01*
X5972Y3213D01*
X5971Y3223D01*
X5970Y3233D01*
X5969Y3243D01*
X5968Y3253D01*
X5966Y3262D01*
X5965Y3272D01*
X5964Y3282D01*
X5962Y3292D01*
X5961Y3302D01*
X5959Y3312D01*
X5958Y3322D01*
X5956Y3332D01*
X5954Y3341D01*
X5952Y3351D01*
X5951Y3361D01*
X5949Y3371D01*
X5947Y3381D01*
X5945Y3391D01*
X5943Y3400D01*
X5941Y3410D01*
X5939Y3420D01*
X5937Y3430D01*
X5934Y3440D01*
X5932Y3449D01*
X5930Y3459D01*
X5927Y3469D01*
X5925Y3478D01*
X5923Y3488D01*
X5920Y3498D01*
X5918Y3507D01*
X5915Y3517D01*
X5912Y3527D01*
X5910Y3536D01*
X5907Y3546D01*
X5904Y3556D01*
X5901Y3565D01*
X5898Y3575D01*
X5895Y3584D01*
X5892Y3594D01*
X5889Y3603D01*
X5886Y3613D01*
X5883Y3622D01*
X5880Y3632D01*
X5877Y3641D01*
X5873Y3651D01*
X5870Y3660D01*
X5867Y3670D01*
X5863Y3679D01*
X5860Y3688D01*
X5856Y3698D01*
X5853Y3707D01*
X5849Y3716D01*
X5845Y3726D01*
X5842Y3735D01*
X5838Y3744D01*
X5834Y3754D01*
X5830Y3763D01*
X5826Y3772D01*
X5823Y3781D01*
X5819Y3790D01*
X5814Y3800D01*
X5810Y3809D01*
X5806Y3818D01*
X5802Y3827D01*
X5798Y3836D01*
X5794Y3845D01*
X5789Y3854D01*
X5785Y3863D01*
X5781Y3872D01*
X5776Y3881D01*
X5772Y3890D01*
X5767Y3899D01*
X5762Y3908D01*
X5758Y3917D01*
X5753Y3925D01*
X5748Y3934D01*
X5744Y3943D01*
X5739Y3952D01*
X5734Y3960D01*
X5729Y3969D01*
X5724Y3978D01*
X5719Y3987D01*
X5714Y3995D01*
X5709Y4004D01*
X5704Y4012D01*
X5699Y4021D01*
X5694Y4030D01*
X5688Y4038D01*
X5683Y4047D01*
X5678Y4055D01*
X5672Y4063D01*
X5667Y4072D01*
X5661Y4080D01*
X5656Y4089D01*
X5650Y4097D01*
X5645Y4105D01*
X5639Y4113D01*
X5633Y4122D01*
X5628Y4130D01*
X5622Y4138D01*
X5616Y4146D01*
X5610Y4154D01*
X5604Y4162D01*
X5599Y4170D01*
X5593Y4178D01*
X5587Y4186D01*
X5581Y4194D01*
X5574Y4202D01*
X5568Y4210D01*
X5562Y4218D01*
X5556Y4226D01*
X5550Y4234D01*
X5543Y4242D01*
X5537Y4249D01*
X5531Y4257D01*
X5524Y4265D01*
X5518Y4272D01*
X5511Y4280D01*
X5505Y4288D01*
X5498Y4295D01*
X5492Y4303D01*
X5485Y4310D01*
X5478Y4318D01*
X5472Y4325D01*
X5465Y4332D01*
X5458Y4340D01*
X5451Y4347D01*
X5444Y4354D01*
X5438Y4362D01*
X5431Y4369D01*
X5424Y4376D01*
X5417Y4383D01*
X5410Y4390D01*
X5403Y4397D01*
X5395Y4404D01*
X5388Y4411D01*
X5381Y4418D01*
X5374Y4425D01*
X5367Y4432D01*
X5359Y4439D01*
X5352Y4446D01*
X5345Y4452D01*
X5337Y4459D01*
X5330Y4466D01*
X5322Y4473D01*
X5315Y4479D01*
X5307Y4486D01*
X5300Y4492D01*
X5292Y4499D01*
X5285Y4505D01*
X5277Y4512D01*
X5269Y4518D01*
X5261Y4524D01*
X5254Y4531D01*
X5246Y4537D01*
X5238Y4543D01*
X5230Y4549D01*
X5222Y4556D01*
X5214Y4562D01*
X5206Y4568D01*
X5199Y4574D01*
X5190Y4580D01*
X5182Y4586D01*
X5174Y4592D01*
X5166Y4598D01*
X5158Y4603D01*
X5150Y4609D01*
X5142Y4615D01*
X5134Y4621D01*
X5125Y4626D01*
X5117Y4632D01*
X5109Y4637D01*
X5100Y4643D01*
X5092Y4648D01*
X5084Y4654D01*
X5075Y4659D01*
X5067Y4665D01*
X5058Y4670D01*
X5050Y4675D01*
X5041Y4681D01*
X5033Y4686D01*
X5024Y4691D01*
X5016Y4696D01*
X5007Y4701D01*
X4998Y4706D01*
X4990Y4711D01*
X4981Y4716D01*
X4972Y4721D01*
X4963Y4726D01*
X4955Y4730D01*
X4946Y4735D01*
X4937Y4740D01*
X4928Y4745D01*
X4919Y4749D01*
X4910Y4754D01*
X4902Y4758D01*
X4893Y4763D01*
X4884Y4767D01*
X4875Y4772D01*
X4866Y4776D01*
X4857Y4780D01*
X4848Y4784D01*
X4838Y4789D01*
X4829Y4793D01*
X4820Y4797D01*
X4811Y4801D01*
X4802Y4805D01*
X4793Y4809D01*
X4784Y4813D01*
X4774Y4817D01*
X4765Y4821D01*
X4756Y4824D01*
X4747Y4828D01*
X4737Y4832D01*
X4728Y4836D01*
X4719Y4839D01*
X4709Y4843D01*
X4700Y4846D01*
X4691Y4850D01*
X4681Y4853D01*
X4672Y4856D01*
X4662Y4860D01*
X4653Y4863D01*
X4643Y4866D01*
X4634Y4869D01*
X4624Y4872D01*
X4615Y4876D01*
X4605Y4879D01*
X4596Y4882D01*
X4586Y4884D01*
X4577Y4887D01*
X4567Y4890D01*
X4557Y4893D01*
X4548Y4896D01*
X4538Y4898D01*
X4529Y4901D01*
X4519Y4904D01*
X4509Y4906D01*
X4499Y4909D01*
X4490Y4911D01*
X4480Y4913D01*
X4470Y4916D01*
X4461Y4918D01*
X4451Y4920D01*
X4441Y4922D01*
X4431Y4925D01*
X4422Y4927D01*
X4412Y4929D01*
X4402Y4931D01*
X4392Y4933D01*
X4382Y4934D01*
X4372Y4936D01*
X4363Y4938D01*
X4353Y4940D01*
X4343Y4942D01*
X4333Y4943D01*
X4323Y4945D01*
X4313Y4946D01*
X4303Y4948D01*
X4294Y4949D01*
X4284Y4951D01*
X4274Y4952D01*
X4264Y4953D01*
X4254Y4954D01*
X4244Y4956D01*
X4234Y4957D01*
X4224Y4958D01*
X4214Y4959D01*
X4204Y4960D01*
X4194Y4961D01*
X4184Y4962D01*
X4174Y4963D01*
X4164Y4963D01*
X4154Y4964D01*
X4144Y4965D01*
X4134Y4965D01*
X4124Y4966D01*
X4114Y4966D01*
X4104Y4967D01*
X4094Y4967D01*
X4084Y4968D01*
X4074Y4968D01*
X4064Y4968D01*
X4054Y4969D01*
X4044Y4969D01*
X4034Y4969D01*
X4024Y4969D01*
X4014Y4969D01*
X4004Y4969D01*
X3994Y4969D01*
X3984Y4969D01*
X3974Y4969D01*
X3964Y4968D01*
X3954Y4968D01*
X3944Y4968D01*
X3934Y4967D01*
X3924Y4967D01*
X3914Y4966D01*
X3904Y4966D01*
X3894Y4965D01*
X3885Y4965D01*
X3875Y4964D01*
X3865Y4963D01*
X3855Y4962D01*
X3845Y4962D01*
X3835Y4961D01*
X3825Y4960D01*
X3815Y4959D01*
X3805Y4958D01*
X3795Y4957D01*
X3785Y4955D01*
X3775Y4954D01*
X3765Y4953D01*
X3755Y4952D01*
X3745Y4950D01*
X3735Y4949D01*
X3725Y4947D01*
X3716Y4946D01*
X3706Y4944D01*
X3696Y4943D01*
X3686Y4941D01*
X3676Y4939D01*
X3666Y4938D01*
X3656Y4936D01*
X3647Y4934D01*
X3637Y4932D01*
X3627Y4930D01*
X3617Y4928D01*
X3607Y4926D01*
X3598Y4924D01*
X3588Y4922D01*
X3578Y4920D01*
X3568Y4918D01*
X3559Y4915D01*
X3549Y4913D01*
X3539Y4910D01*
X3529Y4908D01*
X3520Y4906D01*
X3510Y4903D01*
X3500Y4900D01*
X3491Y4898D01*
X3481Y4895D01*
X3472Y4892D01*
X3462Y4890D01*
X3452Y4887D01*
X3443Y4884D01*
X3433Y4881D01*
X3424Y4878D01*
X3414Y4875D01*
X3405Y4872D01*
X3395Y4869D01*
X3386Y4865D01*
X3376Y4862D01*
X3367Y4859D01*
X3357Y4856D01*
X3348Y4852D01*
X3338Y4849D01*
X3329Y4845D01*
X3320Y4842D01*
X3310Y4838D01*
X3301Y4835D01*
X3292Y4831D01*
X3282Y4827D01*
X3273Y4824D01*
X3264Y4820D01*
X3255Y4816D01*
X3245Y4812D01*
X3236Y4808D01*
X3227Y4804D01*
X3218Y4800D01*
X3209Y4796D01*
X3200Y4792D01*
X3191Y4788D01*
X3182Y4784D01*
X3172Y4779D01*
X3163Y4775D01*
X3154Y4771D01*
X3145Y4766D01*
X3136Y4762D01*
X3128Y4757D01*
X3119Y4753D01*
X3110Y4748D01*
X3101Y4744D01*
X3092Y4739D01*
X3083Y4734D01*
X3074Y4729D01*
X3066Y4725D01*
X3057Y4720D01*
X3048Y4715D01*
X3039Y4710D01*
X3031Y4705D01*
X3022Y4700D01*
X3014Y4695D01*
X3005Y4690D01*
X2996Y4685D01*
X2988Y4679D01*
X2979Y4674D01*
X2971Y4669D01*
X2962Y4664D01*
X2954Y4658D01*
X2945Y4653D01*
X2937Y4647D01*
X2929Y4642D01*
X2920Y4636D01*
X2912Y4631D01*
X2904Y4625D01*
X2896Y4619D01*
X2887Y4614D01*
X2879Y4608D01*
X2871Y4602D01*
X2863Y4596D01*
X2855Y4590D01*
X2847Y4585D01*
X2839Y4579D01*
X2831Y4573D01*
X2823Y4567D01*
X2815Y4560D01*
X2807Y4554D01*
X2799Y4548D01*
X2791Y4542D01*
X2783Y4536D01*
X2776Y4529D01*
X2768Y4523D01*
X2760Y4517D01*
X2752Y4510D01*
X2745Y4504D01*
X2737Y4497D01*
X2730Y4491D01*
X2722Y4484D01*
X2715Y4478D01*
X2707Y4471D01*
X2700Y4465D01*
X2692Y4458D01*
X2685Y4451D01*
X2677Y4444D01*
X2670Y4437D01*
X2663Y4431D01*
X2656Y4424D01*
X2648Y4417D01*
X2641Y4410D01*
X2634Y4403D01*
X2627Y4396D01*
X2620Y4389D01*
X2613Y4382D01*
X2606Y4374D01*
X2599Y4367D01*
X2592Y4360D01*
X2585Y4353D01*
X2578Y4346D01*
X2571Y4338D01*
X2565Y4331D01*
X2558Y4323D01*
X2551Y4316D01*
X2544Y4309D01*
X2538Y4301D01*
X2531Y4294D01*
X2525Y4286D01*
X2518Y4278D01*
X2512Y4271D01*
X2505Y4263D01*
X2499Y4255D01*
X2493Y4248D01*
X2486Y4240D01*
X2480Y4232D01*
X2474Y4224D01*
X2467Y4217D01*
X2461Y4209D01*
X2455Y4201D01*
X2449Y4193D01*
X2443Y4185D01*
X2437Y4177D01*
X2431Y4169D01*
X2425Y4161D01*
X2419Y4153D01*
X2414Y4144D01*
X2408Y4136D01*
X2402Y4128D01*
X2396Y4120D01*
X2391Y4112D01*
X2385Y4103D01*
X2379Y4095D01*
X2374Y4087D01*
X2368Y4078D01*
X2363Y4070D01*
X2357Y4062D01*
X2352Y4053D01*
X2347Y4045D01*
X2342Y4036D01*
X2336Y4028D01*
X2331Y4019D01*
X2326Y4011D01*
X2321Y4002D01*
X2316Y3993D01*
X2311Y3985D01*
X2306Y3976D01*
X2301Y3967D01*
X2296Y3959D01*
X2291Y3950D01*
X2286Y3941D01*
X2282Y3932D01*
X2277Y3924D01*
X2272Y3915D01*
X2268Y3906D01*
X2263Y3897D01*
X2258Y3888D01*
X2254Y3879D01*
X2249Y3870D01*
X2245Y3861D01*
X2241Y3852D01*
X2236Y3843D01*
X2232Y3834D01*
X2228Y3825D01*
X2224Y3816D01*
X2220Y3807D01*
X2216Y3798D01*
X2212Y3788D01*
X2208Y3779D01*
X2204Y3770D01*
X2200Y3761D01*
X2196Y3752D01*
X2192Y3742D01*
X2188Y3733D01*
X2185Y3724D01*
X2181Y3715D01*
X2177Y3705D01*
X2174Y3696D01*
X2170Y3686D01*
X2167Y3677D01*
X2164Y3668D01*
X2160Y3658D01*
X2157Y3649D01*
X2154Y3639D01*
X2150Y3630D01*
X2147Y3620D01*
X2144Y3611D01*
X2141Y3601D01*
X2138Y3592D01*
X2135Y3582D01*
X2132Y3573D01*
X2129Y3563D01*
X2126Y3554D01*
X2124Y3544D01*
X2121Y3534D01*
X2118Y3525D01*
X2115Y3515D01*
X2113Y3505D01*
X2110Y3496D01*
X2108Y3486D01*
X2105Y3476D01*
X2103Y3467D01*
X2101Y3457D01*
X2098Y3447D01*
X2096Y3438D01*
X2094Y3428D01*
X2092Y3418D01*
X2090Y3408D01*
X2088Y3398D01*
X2086Y3389D01*
X2084Y3379D01*
X2082Y3369D01*
X2080Y3359D01*
X2078Y3349D01*
X2076Y3339D01*
X2075Y3330D01*
X2073Y3320D01*
X2071Y3310D01*
X2070Y3300D01*
X2068Y3290D01*
X2067Y3280D01*
X2066Y3270D01*
X2064Y3260D01*
X2063Y3251D01*
X2062Y3241D01*
X2060Y3231D01*
X2059Y3221D01*
X2058Y3211D01*
X2057Y3201D01*
X2056Y3191D01*
X2055Y3181D01*
X2054Y3171D01*
X2054Y3161D01*
X2053Y3151D01*
X2052Y3141D01*
X2051Y3131D01*
X2051Y3121D01*
X2050Y3111D01*
X2050Y3101D01*
X2049Y3091D01*
X2049Y3081D01*
X2048Y3071D01*
X2048Y3061D01*
X2048Y3051D01*
X2047Y3041D01*
X2047Y3031D01*
X2047Y3021D01*
X2047Y3011D01*
X2047Y3001D01*
X2047Y2991D01*
X2047Y2981D01*
X2047Y2971D01*
X2047Y2961D01*
X2048Y2951D01*
X2048Y2941D01*
X2048Y2931D01*
X2049Y2921D01*
X2049Y2911D01*
X2049Y2901D01*
X2050Y2891D01*
X2051Y2881D01*
X2051Y2871D01*
X2052Y2861D01*
X2053Y2851D01*
X2053Y2841D01*
X2054Y2831D01*
X2055Y2821D01*
X2056Y2811D01*
X2057Y2802D01*
X2058Y2792D01*
X2059Y2782D01*
X2060Y2772D01*
X2061Y2762D01*
X2063Y2752D01*
X2064Y2742D01*
X2065Y2732D01*
X2067Y2722D01*
X2068Y2712D01*
X2070Y2702D01*
X2071Y2692D01*
X2073Y2683D01*
X2074Y2673D01*
X2076Y2663D01*
X2078Y2653D01*
X2080Y2643D01*
X2082Y2633D01*
X2083Y2623D01*
X2085Y2614D01*
X2087Y2604D01*
X2089Y2594D01*
X2091Y2584D01*
X2094Y2575D01*
X2096Y2565D01*
X2098Y2555D01*
X2100Y2545D01*
X2103Y2536D01*
X2105Y2526D01*
X2107Y2516D01*
X2110Y2506D01*
X2112Y2497D01*
X2115Y2487D01*
X2118Y2478D01*
X2120Y2468D01*
X2123Y2458D01*
X2126Y2449D01*
X2129Y2439D01*
X2132Y2429D01*
X2135Y2420D01*
X2138Y2410D01*
X2141Y2401D01*
X2144Y2391D01*
X2147Y2382D01*
X2150Y2372D01*
X2153Y2363D01*
X2156Y2353D01*
X2160Y2344D01*
X2163Y2335D01*
X2166Y2325D01*
X2170Y2316D01*
X2173Y2306D01*
X2177Y2297D01*
X2181Y2288D01*
X2184Y2278D01*
X2188Y2269D01*
X2192Y2260D01*
X2195Y2251D01*
X2199Y2241D01*
X2203Y2232D01*
X2207Y2223D01*
X2211Y2214D01*
X2215Y2205D01*
X2219Y2195D01*
X2223Y2186D01*
X2227Y2177D01*
X2232Y2168D01*
X2236Y2159D01*
X2240Y2150D01*
X2244Y2141D01*
X2249Y2132D01*
X2253Y2123D01*
X2258Y2114D01*
X2262Y2105D01*
X2267Y2096D01*
X2271Y2087D01*
X2276Y2079D01*
X2281Y2070D01*
X2286Y2061D01*
X2290Y2052D01*
X2295Y2043D01*
X2300Y2035D01*
X2305Y2026D01*
X2310Y2017D01*
X2315Y2009D01*
X2320Y2000D01*
X2325Y1992D01*
X2330Y1983D01*
X2336Y1974D01*
X2341Y1966D01*
X2346Y1957D01*
X2351Y1949D01*
X2357Y1940D01*
X2362Y1932D01*
X2368Y1924D01*
X2373Y1915D01*
X2379Y1907D01*
X2384Y1899D01*
X2390Y1890D01*
X2395Y1882D01*
X2401Y1874D01*
X2407Y1866D01*
X2413Y1858D01*
X2419Y1849D01*
X2424Y1841D01*
X2430Y1833D01*
X2436Y1825D01*
X2442Y1817D01*
X2448Y1809D01*
X2454Y1801D01*
X2460Y1793D01*
X2467Y1786D01*
X2473Y1778D01*
X2479Y1770D01*
X2485Y1762D01*
X2492Y1754D01*
X2498Y1747D01*
X2504Y1739D01*
X2511Y1731D01*
X2517Y1724D01*
X2524Y1716D01*
X2530Y1708D01*
X2537Y1701D01*
X2544Y1693D01*
X2550Y1686D01*
X2557Y1679D01*
X2564Y1671D01*
X2570Y1664D01*
X2577Y1656D01*
X2584Y1649D01*
X2591Y1642D01*
X2598Y1635D01*
X2605Y1628D01*
X2612Y1620D01*
X2619Y1613D01*
X2626Y1606D01*
X2633Y1599D01*
X2640Y1592D01*
X2647Y1585D01*
X2654Y1578D01*
X2662Y1571D01*
X2669Y1564D01*
X2676Y1558D01*
X2684Y1551D01*
X2691Y1544D01*
X2698Y1537D01*
X2706Y1531D01*
X2713Y1524D01*
X2721Y1518D01*
X2728Y1511D01*
X2736Y1504D01*
X2744Y1498D01*
X2751Y1492D01*
X2759Y1485D01*
X2767Y1479D01*
X2774Y1472D01*
X2782Y1466D01*
X2790Y1460D01*
X2798Y1454D01*
X2806Y1448D01*
X2814Y1441D01*
X2822Y1435D01*
X2830Y1429D01*
X2838Y1423D01*
X2846Y1417D01*
X2854Y1411D01*
X2862Y1406D01*
X2870Y1400D01*
X2878Y1394D01*
X2886Y1388D01*
X2894Y1382D01*
X2903Y1377D01*
X2911Y1371D01*
X2919Y1365D01*
X2928Y1360D01*
X2936Y1354D01*
X2944Y1349D01*
X2953Y1344D01*
X2961Y1338D01*
X2970Y1333D01*
X2978Y1328D01*
X2987Y1322D01*
X2995Y1317D01*
X3004Y1312D01*
X3012Y1307D01*
X3021Y1302D01*
X3029Y1297D01*
X3038Y1292D01*
X3047Y1287D01*
X3056Y1282D01*
X3064Y1277D01*
X3073Y1272D01*
X3082Y1267D01*
X3091Y1263D01*
X3100Y1258D01*
X3108Y1253D01*
X3117Y1249D01*
X3126Y1244D01*
X3135Y1240D01*
X3144Y1235D01*
X3153Y1231D01*
X3162Y1227D01*
X3171Y1222D01*
X3180Y1218D01*
X3189Y1214D01*
X3198Y1210D01*
X3207Y1205D01*
X3217Y1201D01*
X3226Y1197D01*
X3235Y1193D01*
X3244Y1189D01*
X3253Y1186D01*
X3262Y1182D01*
X3272Y1178D01*
X3281Y1174D01*
X3290Y1170D01*
X3300Y1167D01*
X3309Y1163D01*
X3318Y1160D01*
X3328Y1156D01*
X3337Y1153D01*
X3346Y1149D01*
X3356Y1146D01*
X3365Y1142D01*
X3375Y1139D01*
X3384Y1136D01*
X3394Y1133D01*
X3403Y1130D01*
X3413Y1127D01*
X3422Y1124D01*
X3432Y1121D01*
X3441Y1118D01*
X3451Y1115D01*
X3460Y1112D01*
X3470Y1109D01*
X3480Y1106D01*
X3489Y1104D01*
X3499Y1101D01*
X3509Y1098D01*
X3518Y1096D01*
X3528Y1093D01*
X3538Y1091D01*
X3547Y1088D01*
X3557Y1086D01*
X3567Y1084D01*
X3577Y1082D01*
X3586Y1079D01*
X3596Y1077D01*
X3606Y1075D01*
X3616Y1073D01*
X3625Y1071D01*
X3635Y1069D01*
X3645Y1067D01*
X3655Y1065D01*
X3665Y1063D01*
X3675Y1062D01*
X3684Y1060D01*
X3694Y1058D01*
X3704Y1057D01*
X3714Y1055D01*
X3724Y1054D01*
X3734Y1052D01*
X3744Y1051D01*
X3754Y1049D01*
X3763Y1048D01*
X3773Y1047D01*
X3783Y1046D01*
X3793Y1045D01*
X3803Y1043D01*
X3813Y1042D01*
X3823Y1041D01*
X3833Y1040D01*
X3843Y1040D01*
X3853Y1039D01*
X3863Y1038D01*
X3873Y1037D01*
X3883Y1036D01*
X3893Y1036D01*
X3903Y1035D01*
X3913Y1035D01*
X3923Y1034D01*
X3933Y1034D01*
X3943Y1033D01*
X3953Y1033D01*
X3963Y1033D01*
X3973Y1032D01*
X3983Y1032D01*
X3993Y1032D01*
X4003Y1032D01*
X4013Y1032D01*
X4023Y1032D01*
X4033Y1032D01*
X4043Y1032D01*
X4053Y1032D01*
X4063Y1033D01*
X4073Y1033D01*
X4083Y1033D01*
X4093Y1033D01*
X4103Y1034D01*
X4113Y1034D01*
X4123Y1035D01*
X4133Y1035D01*
X4143Y1036D01*
X4153Y1037D01*
X4163Y1037D01*
X4173Y1038D01*
X4183Y1039D01*
X4193Y1040D01*
X4203Y1041D01*
X4212Y1042D01*
X4222Y1043D01*
X4232Y1044D01*
X4242Y1045D01*
X4252Y1046D01*
X4262Y1047D01*
X4272Y1049D01*
X4282Y1050D01*
X4292Y1051D01*
X4302Y1053D01*
X4312Y1054D01*
X4322Y1056D01*
X4331Y1057D01*
X4341Y1059D01*
X4351Y1061D01*
X4361Y1063D01*
X4371Y1064D01*
X4381Y1066D01*
X4391Y1068D01*
X4400Y1070D01*
X4410Y1072D01*
X4420Y1074D01*
X4430Y1076D01*
X4439Y1078D01*
X4449Y1080D01*
X4459Y1083D01*
X4469Y1085D01*
X4478Y1087D01*
X4488Y1090D01*
X4498Y1092D01*
X4508Y1094D01*
X4517Y1097D01*
X4527Y1100D01*
X4537Y1102D01*
X4546Y1105D01*
X4556Y1108D01*
X4565Y1110D01*
X4575Y1113D01*
X4585Y1116D01*
X4594Y1119D01*
X4604Y1122D01*
X4613Y1125D01*
X4623Y1128D01*
X4632Y1131D01*
X4642Y1134D01*
X4651Y1137D01*
X4661Y1141D01*
X4670Y1144D01*
X4680Y1147D01*
X4689Y1151D01*
X4698Y1154D01*
X4708Y1158D01*
X4717Y1161D01*
X4726Y1165D01*
X4736Y1168D01*
X4745Y1172D01*
X4754Y1176D01*
X4764Y1180D01*
X4773Y1183D01*
X4782Y1187D01*
X4791Y1191D01*
X4800Y1195D01*
X4810Y1199D01*
X4819Y1203D01*
X4828Y1207D01*
X4837Y1212D01*
X4846Y1216D01*
X4855Y1220D01*
X4864Y1224D01*
X4873Y1229D01*
X4882Y1233D01*
X4891Y1237D01*
X4900Y1242D01*
X4909Y1246D01*
X4918Y1251D01*
X4927Y1256D01*
X4936Y1260D01*
X4944Y1265D01*
X4953Y1270D01*
X4962Y1274D01*
X4971Y1279D01*
X4979Y1284D01*
X4988Y1289D01*
X4997Y1294D01*
X5006Y1299D01*
X5014Y1304D01*
X5023Y1309D01*
X5031Y1314D01*
X5040Y1320D01*
X5048Y1325D01*
X5057Y1330D01*
X5065Y1335D01*
X5074Y1341D01*
X5082Y1346D01*
X5091Y1352D01*
X5099Y1357D01*
X5107Y1363D01*
X5107Y1363D01*
X5310Y1342D02*
X5303Y1349D01*
X5295Y1356D01*
X5287Y1362D01*
X5279Y1367D01*
X5270Y1372D01*
X5261Y1376D01*
X5251Y1380D01*
X5242Y1383D01*
X5232Y1386D01*
X5222Y1387D01*
X5212Y1389D01*
X5202Y1389D01*
X5192Y1390D01*
X5182Y1389D01*
X5172Y1388D01*
X5163Y1386D01*
X5153Y1383D01*
X5143Y1380D01*
X5134Y1377D01*
X5125Y1373D01*
X5116Y1368D01*
X5107Y1363D01*
X5358Y1294D02*
X5366Y1288D01*
X5374Y1283D01*
X5383Y1279D01*
X5392Y1276D01*
X5402Y1275D01*
X5411D01*
X5421Y1276D01*
X5430Y1279D01*
X5439Y1283D01*
X5447Y1288D01*
X5455Y1294D01*
X5653Y1909D02*
X5648Y1900D01*
X5643Y1891D01*
X5639Y1882D01*
X5635Y1873D01*
X5632Y1863D01*
X5630Y1853D01*
X5628Y1844D01*
X5627Y1834D01*
X5626Y1824D01*
X5626Y1814D01*
X5627Y1804D01*
X5628Y1794D01*
X5630Y1784D01*
X5633Y1774D01*
X5636Y1764D01*
X5640Y1755D01*
X5644Y1746D01*
X5649Y1737D01*
X5654Y1729D01*
X5660Y1721D01*
X5667Y1713D01*
X5673Y1706D01*
X5722Y1561D02*
X5728Y1569D01*
X5733Y1577D01*
X5737Y1586D01*
X5740Y1595D01*
X5741Y1604D01*
Y1614D01*
X5740Y1624D01*
X5737Y1633D01*
X5733Y1642D01*
X5728Y1650D01*
X5722Y1658D01*
X5310Y1342D02*
X5358Y1294D01*
X5455D02*
X5722Y1561D01*
X5673Y1706D02*
X5722Y1658D01*
M02*
