G04*
G04 #@! TF.GenerationSoftware,Altium Limited,Altium Designer,21.9.2 (33)*
G04*
G04 Layer_Physical_Order=4*
G04 Layer_Color=6736896*
%FSLAX23Y23*%
%MOIN*%
G70*
G04*
G04 #@! TF.SameCoordinates,93BF6BEB-7BBE-4CB3-8882-CC5C7C9C0B20*
G04*
G04*
G04 #@! TF.FilePolarity,Positive*
G04*
G01*
G75*
%ADD15C,0.016*%
%ADD21C,0.050*%
D15*
X3548Y3467D02*
X3553Y3476D01*
X3558Y3485D01*
X3562Y3494D01*
X3565Y3503D01*
X3569Y3512D01*
X3571Y3522D01*
X3574Y3531D01*
X3576Y3541D01*
X3578Y3551D01*
X3579Y3560D01*
X3580Y3570D01*
X3581Y3580D01*
X3581Y3590D01*
X3581Y3600D01*
X3580Y3610D01*
X3579Y3620D01*
X3578Y3629D01*
X3576Y3639D01*
X3574Y3649D01*
X3571Y3658D01*
X3568Y3668D01*
X3565Y3677D01*
X3561Y3686D01*
X3557Y3695D01*
X3553Y3704D01*
X3548Y3713D01*
X3206Y3346D02*
X3215Y3343D01*
X3225Y3340D01*
X3235Y3338D01*
X3245Y3336D01*
X3254Y3334D01*
X3264Y3333D01*
X3275Y3332D01*
X3285Y3331D01*
X3295Y3331D01*
X3305Y3332D01*
X3315Y3333D01*
X3325Y3334D01*
X3335Y3335D01*
X3345Y3337D01*
X3354Y3340D01*
X3364Y3343D01*
X3374Y3346D01*
X3383Y3350D01*
X3392Y3354D01*
X3401Y3358D01*
X3410Y3363D01*
X3419Y3368D01*
X3427Y3373D01*
X3436Y3379D01*
X3281Y3552D02*
X3291Y3550D01*
X3302Y3553D01*
X3311Y3560D01*
X3215Y3372D02*
X3224Y3369D01*
X3234Y3366D01*
X3243Y3364D01*
X3253Y3362D01*
X3263Y3360D01*
X3273Y3359D01*
X3282Y3359D01*
X3292Y3359D01*
X3302Y3359D01*
X3312Y3360D01*
X3322Y3361D01*
X3331Y3363D01*
X3341Y3365D01*
X3350Y3367D01*
X3360Y3370D01*
X3369Y3373D01*
X3378Y3377D01*
X3387Y3381D01*
X3396Y3386D01*
X3404Y3391D01*
X3412Y3396D01*
X3420Y3402D01*
X3428Y3408D01*
X3436Y3414D01*
X3443Y3421D01*
X3450Y3428D01*
X3456Y3435D01*
X3224Y3398D02*
X3234Y3394D01*
X3244Y3392D01*
X3254Y3389D01*
X3264Y3388D01*
X3274Y3387D01*
X3284Y3386D01*
X3294Y3386D01*
X3304Y3386D01*
X3314Y3387D01*
X3324Y3389D01*
X3334Y3391D01*
X3344Y3394D01*
X3353Y3397D01*
X3363Y3400D01*
X3372Y3404D01*
X3381Y3409D01*
X3390Y3414D01*
X3398Y3419D01*
X3406Y3425D01*
X3414Y3432D01*
X3422Y3438D01*
X3429Y3446D01*
X3436Y3453D01*
X3234Y3423D02*
X3243Y3420D01*
X3253Y3418D01*
X3263Y3416D01*
X3272Y3414D01*
X3282Y3414D01*
X3292Y3413D01*
X3302Y3414D01*
X3312Y3415D01*
X3322Y3417D01*
X3332Y3419D01*
X3341Y3422D01*
X3351Y3425D01*
X3360Y3429D01*
X3369Y3433D01*
X3377Y3438D01*
X3385Y3444D01*
X3393Y3450D01*
X3401Y3457D01*
X3408Y3463D01*
X3415Y3471D01*
X3243Y3449D02*
X3252Y3446D01*
X3262Y3444D01*
X3272Y3442D01*
X3281Y3441D01*
X3291Y3441D01*
X3301Y3441D01*
X3310Y3442D01*
X3320Y3444D01*
X3329Y3447D01*
X3339Y3450D01*
X3348Y3453D01*
X3356Y3458D01*
X3365Y3463D01*
X3373Y3469D01*
X3380Y3475D01*
X3387Y3481D01*
X3394Y3489D01*
X3253Y3475D02*
X3262Y3472D01*
X3272Y3469D01*
X3282Y3468D01*
X3293Y3468D01*
X3303Y3469D01*
X3313Y3470D01*
X3323Y3473D01*
X3332Y3477D01*
X3341Y3481D01*
X3350Y3486D01*
X3358Y3492D01*
X3366Y3499D01*
X3373Y3506D01*
X3262Y3500D02*
X3271Y3498D01*
X3281Y3496D01*
X3291Y3495D01*
X3301Y3496D01*
X3311Y3498D01*
X3320Y3501D01*
X3329Y3505D01*
X3338Y3511D01*
X3345Y3517D01*
X3352Y3524D01*
X3439Y3382D02*
X3448Y3388D01*
X3455Y3395D01*
X3463Y3402D01*
X3470Y3410D01*
X3477Y3418D01*
X3357Y3572D02*
X3362Y3582D01*
X3363Y3593D01*
X3359Y3603D01*
X3378Y3555D02*
X3383Y3562D01*
X3387Y3571D01*
X3390Y3580D01*
X3390Y3589D01*
X3390Y3599D01*
X3387Y3608D01*
X3383Y3617D01*
X3399Y3537D02*
X3405Y3545D01*
X3410Y3554D01*
X3413Y3563D01*
X3416Y3573D01*
X3417Y3582D01*
X3418Y3592D01*
X3417Y3602D01*
X3414Y3612D01*
X3411Y3621D01*
X3407Y3630D01*
X3420Y3520D02*
X3426Y3528D01*
X3432Y3537D01*
X3436Y3546D01*
X3440Y3555D01*
X3442Y3565D01*
X3444Y3575D01*
X3445Y3585D01*
X3445Y3596D01*
X3444Y3606D01*
X3442Y3616D01*
X3439Y3625D01*
X3435Y3635D01*
X3430Y3644D01*
X3441Y3502D02*
X3447Y3510D01*
X3452Y3518D01*
X3457Y3527D01*
X3461Y3536D01*
X3465Y3545D01*
X3468Y3554D01*
X3470Y3563D01*
X3471Y3573D01*
X3472Y3583D01*
X3472Y3593D01*
X3472Y3602D01*
X3470Y3612D01*
X3469Y3622D01*
X3466Y3631D01*
X3463Y3640D01*
X3459Y3649D01*
X3454Y3658D01*
X3462Y3485D02*
X3468Y3493D01*
X3474Y3501D01*
X3479Y3510D01*
X3484Y3518D01*
X3488Y3528D01*
X3491Y3537D01*
X3494Y3546D01*
X3496Y3556D01*
X3498Y3566D01*
X3499Y3576D01*
X3500Y3586D01*
X3500Y3596D01*
X3499Y3606D01*
X3498Y3615D01*
X3496Y3625D01*
X3493Y3635D01*
X3490Y3644D01*
X3487Y3653D01*
X3482Y3663D01*
X3478Y3671D01*
X3485Y3467D02*
X3491Y3475D01*
X3497Y3483D01*
X3502Y3492D01*
X3507Y3501D01*
X3511Y3510D01*
X3515Y3519D01*
X3518Y3529D01*
X3521Y3538D01*
X3524Y3548D01*
X3525Y3558D01*
X3527Y3568D01*
X3528Y3578D01*
X3528Y3588D01*
X3528Y3598D01*
X3527Y3608D01*
X3525Y3618D01*
X3524Y3628D01*
X3521Y3637D01*
X3519Y3647D01*
X3515Y3656D01*
X3511Y3666D01*
X3507Y3675D01*
X3502Y3684D01*
X3271Y3526D02*
X3280Y3524D01*
X3290Y3523D01*
X3299Y3524D01*
X3308Y3526D01*
X3317Y3530D01*
X3325Y3535D01*
X3332Y3542D01*
X2980Y4162D02*
X2972Y4155D01*
X2965Y4149D01*
X2957Y4142D01*
X2950Y4135D01*
X2942Y4128D01*
X2935Y4121D01*
X2928Y4114D01*
X2921Y4107D01*
X2913Y4100D01*
X2906Y4093D01*
X2899Y4085D01*
X2892Y4078D01*
X2885Y4071D01*
X2878Y4063D01*
X2871Y4056D01*
X2864Y4049D01*
X2858Y4041D01*
X2851Y4034D01*
X2844Y4026D01*
X2838Y4018D01*
X2831Y4011D01*
X2824Y4003D01*
X2818Y3995D01*
X2811Y3987D01*
X2805Y3980D01*
X2799Y3972D01*
X2792Y3964D01*
X2786Y3956D01*
X2780Y3948D01*
X2774Y3940D01*
X2768Y3932D01*
X2762Y3924D01*
X2756Y3916D01*
X2750Y3907D01*
X2744Y3899D01*
X2738Y3891D01*
X2732Y3883D01*
X2727Y3874D01*
X2721Y3866D01*
X2715Y3857D01*
X2710Y3849D01*
X2704Y3841D01*
X2699Y3832D01*
X2693Y3823D01*
X2688Y3815D01*
X2961Y4183D02*
X2954Y4176D01*
X2946Y4169D01*
X2939Y4162D01*
X2932Y4155D01*
X2924Y4149D01*
X2917Y4142D01*
X2910Y4135D01*
X2903Y4128D01*
X2895Y4120D01*
X2888Y4113D01*
X2881Y4106D01*
X2874Y4099D01*
X2867Y4092D01*
X2860Y4084D01*
X2853Y4077D01*
X2847Y4070D01*
X2840Y4062D01*
X2833Y4055D01*
X2826Y4047D01*
X2820Y4040D01*
X2813Y4032D01*
X2807Y4024D01*
X2800Y4017D01*
X2794Y4009D01*
X2787Y4001D01*
X2781Y3993D01*
X2775Y3986D01*
X2768Y3978D01*
X2762Y3970D01*
X2756Y3962D01*
X2750Y3954D01*
X2744Y3946D01*
X2738Y3938D01*
X2732Y3930D01*
X2726Y3921D01*
X2720Y3913D01*
X2715Y3905D01*
X2709Y3897D01*
X2703Y3888D01*
X2698Y3880D01*
X2692Y3872D01*
X2686Y3863D01*
X2681Y3855D01*
X2676Y3846D01*
X2670Y3838D01*
X2665Y3829D01*
X2943Y4203D02*
X2936Y4196D01*
X2928Y4190D01*
X2921Y4183D01*
X2914Y4176D01*
X2906Y4169D01*
X2899Y4162D01*
X2892Y4155D01*
X2885Y4148D01*
X2878Y4141D01*
X2870Y4134D01*
X2863Y4127D01*
X2856Y4120D01*
X2849Y4113D01*
X2843Y4105D01*
X2836Y4098D01*
X2829Y4091D01*
X2822Y4083D01*
X2815Y4076D01*
X2809Y4068D01*
X2802Y4061D01*
X2795Y4053D01*
X2789Y4046D01*
X2782Y4038D01*
X2776Y4030D01*
X2770Y4023D01*
X2763Y4015D01*
X2757Y4007D01*
X2751Y3999D01*
X2745Y3992D01*
X2738Y3984D01*
X2732Y3976D01*
X2726Y3968D01*
X2720Y3960D01*
X2714Y3952D01*
X2708Y3943D01*
X2703Y3935D01*
X2697Y3927D01*
X2691Y3919D01*
X2685Y3911D01*
X2680Y3902D01*
X2674Y3894D01*
X2669Y3886D01*
X2663Y3877D01*
X2658Y3869D01*
X2652Y3861D01*
X2647Y3852D01*
X2642Y3844D01*
X3045Y4076D02*
X3038Y4069D01*
X3030Y4062D01*
X3023Y4056D01*
X3015Y4049D01*
X3008Y4041D01*
X3001Y4034D01*
X2993Y4027D01*
X2986Y4020D01*
X2979Y4013D01*
X2972Y4005D01*
X2965Y3998D01*
X2958Y3991D01*
X2951Y3983D01*
X2944Y3976D01*
X2937Y3968D01*
X2930Y3960D01*
X2923Y3953D01*
X2917Y3945D01*
X2910Y3937D01*
X2903Y3929D01*
X3055Y4076D02*
X3045Y4076D01*
X3333Y3586D02*
X3334Y3593D01*
X3194Y4162D02*
X3189Y4171D01*
X3183Y4179D01*
X3177Y4187D01*
X3170Y4194D01*
X3163Y4201D01*
X3156Y4208D01*
X3148Y4214D01*
X3139Y4220D01*
X3131Y4225D01*
X3122Y4229D01*
X3112Y4233D01*
X3103Y4236D01*
X3093Y4239D01*
X3083Y4241D01*
X3074Y4243D01*
X3064Y4244D01*
X3054Y4244D01*
X3043Y4244D01*
X3033Y4243D01*
X3024Y4242D01*
X3014Y4240D01*
X3004Y4237D01*
X2995Y4234D01*
X2985Y4230D01*
X2976Y4226D01*
X2967Y4221D01*
X2959Y4215D01*
X2951Y4209D01*
X2943Y4203D01*
X3100Y4108D02*
X3094Y4116D01*
X3087Y4122D01*
X3079Y4128D01*
X3070Y4132D01*
X3061Y4134D01*
X3051Y4135D01*
X3042Y4134D01*
X3032Y4131D01*
X3024Y4127D01*
X3016Y4121D01*
X3123Y4121D02*
X3118Y4129D01*
X3112Y4137D01*
X3105Y4143D01*
X3097Y4149D01*
X3088Y4154D01*
X3079Y4158D01*
X3070Y4160D01*
X3061Y4162D01*
X3051Y4162D01*
X3041Y4162D01*
X3032Y4160D01*
X3022Y4157D01*
X3014Y4153D01*
X3005Y4148D01*
X2998Y4142D01*
X3147Y4135D02*
X3142Y4144D01*
X3135Y4152D01*
X3128Y4159D01*
X3121Y4166D01*
X3112Y4172D01*
X3104Y4177D01*
X3094Y4181D01*
X3085Y4185D01*
X3075Y4187D01*
X3065Y4189D01*
X3054Y4190D01*
X3044Y4189D01*
X3034Y4188D01*
X3024Y4186D01*
X3014Y4183D01*
X3005Y4179D01*
X2996Y4174D01*
X2987Y4169D01*
X2980Y4162D01*
X3171Y4149D02*
X3165Y4157D01*
X3159Y4165D01*
X3153Y4173D01*
X3146Y4180D01*
X3138Y4187D01*
X3130Y4193D01*
X3121Y4198D01*
X3113Y4203D01*
X3103Y4207D01*
X3094Y4211D01*
X3084Y4213D01*
X3074Y4215D01*
X3064Y4217D01*
X3054Y4217D01*
X3044Y4217D01*
X3034Y4216D01*
X3024Y4214D01*
X3014Y4212D01*
X3004Y4208D01*
X2995Y4205D01*
X2986Y4200D01*
X2977Y4195D01*
X2969Y4189D01*
X2961Y4183D01*
X2567Y3881D02*
X2563Y3872D01*
X2558Y3863D01*
X2554Y3853D01*
X2551Y3844D01*
X2548Y3834D01*
X2545Y3825D01*
X2542Y3815D01*
X2541Y3805D01*
X2539Y3795D01*
X2538Y3785D01*
X2537Y3775D01*
X2537Y3765D01*
X2537Y3754D01*
X2537Y3744D01*
X2538Y3734D01*
X2540Y3724D01*
X2541Y3714D01*
X2544Y3704D01*
X2546Y3695D01*
X2549Y3685D01*
X2552Y3675D01*
X2556Y3666D01*
X2560Y3657D01*
X2565Y3648D01*
X2570Y3639D01*
X2575Y3630D01*
X2581Y3622D01*
X2586Y3614D01*
X2593Y3606D01*
X2599Y3598D01*
X2606Y3591D01*
X2613Y3584D01*
X2621Y3577D01*
X2629Y3570D01*
X2637Y3564D01*
X2645Y3558D01*
X2653Y3553D01*
X2662Y3548D01*
X2671Y3543D01*
X2680Y3538D01*
X2689Y3534D01*
X2699Y3531D01*
X2642Y3844D02*
X2637Y3835D01*
X2633Y3826D01*
X2629Y3817D01*
X2626Y3807D01*
X2623Y3798D01*
X2621Y3788D01*
X2620Y3778D01*
X2619Y3769D01*
X2619Y3759D01*
X2620Y3749D01*
X2621Y3739D01*
X2622Y3729D01*
X2624Y3720D01*
X2627Y3710D01*
X2631Y3701D01*
X2635Y3692D01*
X2639Y3683D01*
X2644Y3675D01*
X2649Y3666D01*
X2655Y3659D01*
X2662Y3651D01*
X2669Y3644D01*
X2676Y3637D01*
X2684Y3631D01*
X2692Y3625D01*
X2700Y3620D01*
X2709Y3616D01*
X2718Y3611D01*
X2727Y3608D01*
X2595Y3872D02*
X2590Y3863D01*
X2586Y3854D01*
X2581Y3845D01*
X2578Y3836D01*
X2574Y3826D01*
X2572Y3817D01*
X2569Y3807D01*
X2567Y3797D01*
X2566Y3787D01*
X2565Y3777D01*
X2565Y3767D01*
X2564Y3757D01*
X2565Y3747D01*
X2566Y3737D01*
X2567Y3727D01*
X2569Y3717D01*
X2571Y3707D01*
X2574Y3697D01*
X2577Y3688D01*
X2581Y3678D01*
X2585Y3669D01*
X2589Y3660D01*
X2594Y3651D01*
X2599Y3643D01*
X2605Y3634D01*
X2611Y3626D01*
X2618Y3618D01*
X2624Y3611D01*
X2632Y3604D01*
X2639Y3597D01*
X2647Y3591D01*
X2655Y3585D01*
X2663Y3579D01*
X2672Y3573D01*
X2680Y3569D01*
X2690Y3564D01*
X2699Y3560D01*
X2708Y3556D01*
X2618Y3858D02*
X2613Y3849D01*
X2609Y3840D01*
X2605Y3831D01*
X2602Y3821D01*
X2599Y3811D01*
X2596Y3802D01*
X2594Y3792D01*
X2593Y3782D01*
X2592Y3771D01*
X2592Y3761D01*
X2592Y3751D01*
X2593Y3741D01*
X2594Y3731D01*
X2596Y3721D01*
X2599Y3711D01*
X2601Y3701D01*
X2605Y3692D01*
X2609Y3683D01*
X2613Y3673D01*
X2618Y3665D01*
X2624Y3656D01*
X2629Y3648D01*
X2636Y3640D01*
X2642Y3632D01*
X2649Y3625D01*
X2657Y3618D01*
X2665Y3611D01*
X2673Y3605D01*
X2681Y3600D01*
X2690Y3595D01*
X2699Y3590D01*
X2708Y3586D01*
X2717Y3582D01*
X3242Y4190D02*
X3237Y4198D01*
X3231Y4206D01*
X3225Y4214D01*
X3219Y4222D01*
X3212Y4230D01*
X3205Y4237D01*
X3198Y4243D01*
X3191Y4250D01*
X3183Y4256D01*
X3175Y4262D01*
X3166Y4267D01*
X3158Y4272D01*
X3149Y4277D01*
X3140Y4281D01*
X3130Y4285D01*
X3121Y4288D01*
X3112Y4291D01*
X3102Y4293D01*
X3092Y4295D01*
X3082Y4297D01*
X3072Y4298D01*
X3063Y4299D01*
X3053Y4299D01*
X3043Y4299D01*
X3033Y4298D01*
X3023Y4297D01*
X3013Y4296D01*
X3003Y4294D01*
X2994Y4291D01*
X2984Y4288D01*
X2975Y4285D01*
X2965Y4281D01*
X2956Y4277D01*
X2948Y4272D01*
X2939Y4267D01*
X2930Y4262D01*
X2922Y4256D01*
X2914Y4250D01*
X2907Y4244D01*
X3265Y4203D02*
X3260Y4212D01*
X3255Y4220D01*
X3249Y4228D01*
X3243Y4236D01*
X3236Y4243D01*
X3230Y4251D01*
X3223Y4258D01*
X3215Y4264D01*
X3208Y4271D01*
X3200Y4277D01*
X3192Y4283D01*
X3184Y4288D01*
X3175Y4293D01*
X3166Y4298D01*
X3158Y4303D01*
X3149Y4307D01*
X3139Y4310D01*
X3130Y4314D01*
X3121Y4317D01*
X3111Y4319D01*
X3101Y4321D01*
X3092Y4323D01*
X3082Y4324D01*
X3072Y4325D01*
X3062Y4326D01*
X3052Y4326D01*
X3042Y4326D01*
X3032Y4325D01*
X3022Y4324D01*
X3013Y4323D01*
X3003Y4321D01*
X2993Y4319D01*
X2984Y4316D01*
X2974Y4313D01*
X2965Y4310D01*
X2956Y4306D01*
X2947Y4302D01*
X2938Y4298D01*
X2929Y4293D01*
X2921Y4288D01*
X2912Y4283D01*
X2904Y4277D01*
X2896Y4271D01*
X2889Y4264D01*
X3504Y3450D02*
X3511Y3458D01*
X3516Y3466D01*
X3522Y3474D01*
X3527Y3483D01*
X3531Y3491D01*
X3535Y3500D01*
X3539Y3509D01*
X3543Y3518D01*
X3546Y3528D01*
X3548Y3537D01*
X3550Y3547D01*
X3552Y3557D01*
X3553Y3566D01*
X3554Y3576D01*
X3554Y3586D01*
X3554Y3596D01*
X3554Y3606D01*
X3553Y3615D01*
X3551Y3625D01*
X3550Y3635D01*
X3547Y3644D01*
X3545Y3654D01*
X3542Y3663D01*
X3538Y3672D01*
X3534Y3681D01*
X3530Y3690D01*
X3525Y3699D01*
X3218Y4176D02*
X3213Y4184D01*
X3207Y4193D01*
X3201Y4201D01*
X3195Y4208D01*
X3188Y4216D01*
X3181Y4222D01*
X3173Y4229D01*
X3165Y4235D01*
X3157Y4241D01*
X3148Y4246D01*
X3140Y4251D01*
X3131Y4255D01*
X3121Y4259D01*
X3112Y4262D01*
X3102Y4265D01*
X3093Y4267D01*
X3083Y4269D01*
X3073Y4271D01*
X3063Y4271D01*
X3053Y4272D01*
X3043Y4272D01*
X3033Y4271D01*
X3023Y4270D01*
X3013Y4268D01*
X3004Y4265D01*
X2994Y4263D01*
X2985Y4259D01*
X2975Y4256D01*
X2966Y4251D01*
X2957Y4247D01*
X2949Y4242D01*
X2941Y4236D01*
X2933Y4230D01*
X2925Y4223D01*
X2665Y3829D02*
X2660Y3820D01*
X2656Y3811D01*
X2653Y3802D01*
X2650Y3793D01*
X2648Y3783D01*
X2647Y3773D01*
X2647Y3763D01*
X2647Y3753D01*
X2648Y3743D01*
X2649Y3734D01*
X2652Y3724D01*
X2655Y3715D01*
X2658Y3705D01*
X2663Y3697D01*
X2668Y3688D01*
X2673Y3680D01*
X2680Y3672D01*
X2686Y3665D01*
X2694Y3658D01*
X2701Y3652D01*
X2710Y3646D01*
X2718Y3642D01*
X2727Y3637D01*
X2736Y3633D01*
X2889Y4264D02*
X2881Y4258D01*
X2874Y4251D01*
X2867Y4244D01*
X2859Y4237D01*
X2852Y4231D01*
X2845Y4224D01*
X2838Y4217D01*
X2831Y4210D01*
X2824Y4203D01*
X2817Y4196D01*
X2810Y4189D01*
X2803Y4182D01*
X2796Y4175D01*
X2789Y4168D01*
X2782Y4160D01*
X2775Y4153D01*
X2768Y4146D01*
X2762Y4138D01*
X2755Y4131D01*
X2748Y4124D01*
X2742Y4116D01*
X2735Y4109D01*
X2729Y4101D01*
X2722Y4094D01*
X2716Y4086D01*
X2710Y4078D01*
X2703Y4071D01*
X2697Y4063D01*
X2691Y4055D01*
X2685Y4048D01*
X2678Y4040D01*
X2672Y4032D01*
X2666Y4024D01*
X2660Y4016D01*
X2654Y4008D01*
X2648Y4000D01*
X2643Y3992D01*
X2637Y3984D01*
X2631Y3976D01*
X2625Y3968D01*
X2620Y3960D01*
X2614Y3951D01*
X2608Y3943D01*
X2603Y3935D01*
X2597Y3927D01*
X2592Y3918D01*
X2587Y3910D01*
X2581Y3902D01*
X2576Y3893D01*
X2571Y3885D01*
X2566Y3876D01*
X2688Y3815D02*
X2684Y3806D01*
X2680Y3797D01*
X2677Y3787D01*
X2675Y3777D01*
X2674Y3768D01*
X2674Y3758D01*
X2675Y3748D01*
X2676Y3738D01*
X2679Y3728D01*
X2682Y3719D01*
X2687Y3710D01*
X2692Y3701D01*
X2698Y3693D01*
X2704Y3686D01*
X2711Y3679D01*
X2719Y3673D01*
X2728Y3668D01*
X2736Y3663D01*
X2746Y3659D01*
X2712Y3800D02*
X2707Y3791D01*
X2704Y3782D01*
X2702Y3772D01*
X2701Y3762D01*
X2702Y3752D01*
X2703Y3742D01*
X2706Y3733D01*
X2710Y3723D01*
X2716Y3715D01*
X2722Y3707D01*
X2729Y3700D01*
X2737Y3694D01*
X2746Y3689D01*
X2755Y3685D01*
X2735Y3786D02*
X2731Y3777D01*
X2729Y3767D01*
X2729Y3756D01*
X2731Y3746D01*
X2734Y3737D01*
X2740Y3728D01*
X2747Y3721D01*
X2755Y3715D01*
X2764Y3711D01*
X2758Y3772D02*
X2756Y3761D01*
X2758Y3751D01*
X2764Y3742D01*
X2774Y3736D01*
X2998Y4142D02*
X2990Y4135D01*
X2983Y4128D01*
X2976Y4122D01*
X2968Y4115D01*
X2961Y4108D01*
X2954Y4101D01*
X2947Y4094D01*
X2940Y4087D01*
X2933Y4080D01*
X2926Y4073D01*
X2919Y4066D01*
X2912Y4059D01*
X2905Y4052D01*
X2898Y4045D01*
X2891Y4037D01*
X2885Y4030D01*
X2878Y4023D01*
X2871Y4015D01*
X2865Y4008D01*
X2858Y4000D01*
X2852Y3993D01*
X2845Y3985D01*
X2839Y3978D01*
X2833Y3970D01*
X2826Y3962D01*
X2820Y3955D01*
X2814Y3947D01*
X2808Y3939D01*
X2802Y3931D01*
X2796Y3923D01*
X2790Y3915D01*
X2784Y3907D01*
X2778Y3899D01*
X2772Y3891D01*
X2766Y3883D01*
X2761Y3875D01*
X2755Y3867D01*
X2749Y3859D01*
X2744Y3851D01*
X2738Y3842D01*
X2733Y3834D01*
X2727Y3826D01*
X2722Y3817D01*
X2717Y3809D01*
X2711Y3801D01*
X2925Y4223D02*
X2918Y4217D01*
X2910Y4210D01*
X2903Y4203D01*
X2896Y4197D01*
X2888Y4190D01*
X2881Y4183D01*
X2874Y4176D01*
X2867Y4169D01*
X2860Y4162D01*
X2853Y4155D01*
X2846Y4148D01*
X2839Y4141D01*
X2832Y4134D01*
X2825Y4126D01*
X2818Y4119D01*
X2811Y4112D01*
X2804Y4104D01*
X2798Y4097D01*
X2791Y4090D01*
X2784Y4082D01*
X2778Y4075D01*
X2771Y4067D01*
X2765Y4060D01*
X2758Y4052D01*
X2752Y4044D01*
X2746Y4037D01*
X2739Y4029D01*
X2733Y4021D01*
X2727Y4013D01*
X2721Y4005D01*
X2715Y3997D01*
X2708Y3990D01*
X2702Y3982D01*
X2697Y3974D01*
X2691Y3966D01*
X2685Y3957D01*
X2679Y3949D01*
X2673Y3941D01*
X2667Y3933D01*
X2662Y3925D01*
X2656Y3917D01*
X2651Y3908D01*
X2645Y3900D01*
X2640Y3892D01*
X2634Y3883D01*
X2629Y3875D01*
X2624Y3866D01*
X2618Y3858D01*
X2907Y4244D02*
X2899Y4237D01*
X2892Y4231D01*
X2885Y4224D01*
X2877Y4217D01*
X2870Y4210D01*
X2863Y4203D01*
X2856Y4197D01*
X2849Y4190D01*
X2842Y4183D01*
X2835Y4176D01*
X2828Y4169D01*
X2821Y4162D01*
X2814Y4154D01*
X2807Y4147D01*
X2800Y4140D01*
X2793Y4133D01*
X2787Y4125D01*
X2780Y4118D01*
X2773Y4111D01*
X2767Y4103D01*
X2760Y4096D01*
X2753Y4088D01*
X2747Y4081D01*
X2741Y4073D01*
X2734Y4066D01*
X2728Y4058D01*
X2722Y4050D01*
X2715Y4043D01*
X2709Y4035D01*
X2703Y4027D01*
X2697Y4019D01*
X2691Y4011D01*
X2685Y4003D01*
X2679Y3995D01*
X2673Y3988D01*
X2667Y3980D01*
X2661Y3971D01*
X2655Y3963D01*
X2650Y3955D01*
X2644Y3947D01*
X2638Y3939D01*
X2633Y3931D01*
X2627Y3922D01*
X2622Y3914D01*
X2616Y3906D01*
X2611Y3897D01*
X2606Y3889D01*
X2600Y3881D01*
X2595Y3872D01*
X3076Y4094D02*
X3070Y4101D01*
X3061Y4106D01*
X3052Y4108D01*
X3042Y4106D01*
X3034Y4101D01*
X3016Y4121D02*
X3008Y4115D01*
X3001Y4108D01*
X2994Y4101D01*
X2986Y4094D01*
X2979Y4087D01*
X2972Y4081D01*
X2965Y4074D01*
X2958Y4067D01*
X2951Y4060D01*
X2944Y4053D01*
X2937Y4045D01*
X2930Y4038D01*
X2923Y4031D01*
X2916Y4024D01*
X2909Y4016D01*
X2902Y4009D01*
X2896Y4002D01*
X2889Y3994D01*
X2883Y3987D01*
X2876Y3979D01*
X2869Y3972D01*
X2863Y3964D01*
X2857Y3956D01*
X2850Y3949D01*
X2844Y3941D01*
X2838Y3933D01*
X2832Y3925D01*
X2826Y3917D01*
X2819Y3909D01*
X2813Y3902D01*
X2807Y3894D01*
X2802Y3885D01*
X2796Y3877D01*
X2790Y3869D01*
X2784Y3861D01*
X2778Y3853D01*
X2773Y3845D01*
X2767Y3837D01*
X2762Y3828D01*
X2756Y3820D01*
X2751Y3812D01*
X2745Y3803D01*
X2740Y3795D01*
X2735Y3786D01*
X3034Y4101D02*
X3027Y4094D01*
X3019Y4087D01*
X3012Y4081D01*
X3004Y4074D01*
X2997Y4067D01*
X2990Y4060D01*
X2983Y4053D01*
X2976Y4046D01*
X2969Y4039D01*
X2961Y4032D01*
X2954Y4025D01*
X2948Y4017D01*
X2941Y4010D01*
X2934Y4003D01*
X2927Y3995D01*
X2920Y3988D01*
X2914Y3980D01*
X2907Y3973D01*
X2900Y3965D01*
X2894Y3958D01*
X2887Y3950D01*
X2881Y3943D01*
X2874Y3935D01*
X2868Y3927D01*
X2862Y3919D01*
X2856Y3911D01*
X2849Y3904D01*
X2843Y3896D01*
X2837Y3888D01*
X2831Y3880D01*
X2825Y3872D01*
X2819Y3863D01*
X2813Y3855D01*
X2808Y3847D01*
X2802Y3839D01*
X2796Y3831D01*
X2791Y3822D01*
X2785Y3814D01*
X2780Y3806D01*
X2774Y3797D01*
X2769Y3789D01*
X2763Y3780D01*
X2758Y3772D01*
X3974Y4473D02*
X3963Y4473D01*
X3953Y4472D01*
X3943Y4472D01*
X3933Y4471D01*
X3923Y4471D01*
X3913Y4470D01*
X3903Y4469D01*
X3893Y4469D01*
X3883Y4468D01*
X3874Y4467D01*
X3864Y4466D01*
X3854Y4465D01*
X3844Y4464D01*
X3834Y4462D01*
X3824Y4461D01*
X3814Y4460D01*
X3804Y4458D01*
X3794Y4457D01*
X3784Y4455D01*
X3774Y4454D01*
X3764Y4452D01*
X3754Y4450D01*
X3745Y4449D01*
X3735Y4447D01*
X3725Y4445D01*
X3715Y4443D01*
X3705Y4441D01*
X3695Y4439D01*
X3686Y4436D01*
X3676Y4434D01*
X3666Y4432D01*
X3656Y4429D01*
X3647Y4427D01*
X3637Y4424D01*
X3627Y4422D01*
X3618Y4419D01*
X3608Y4416D01*
X3598Y4413D01*
X3589Y4411D01*
X3579Y4408D01*
X3570Y4405D01*
X3560Y4402D01*
X3551Y4399D01*
X3973Y4500D02*
X3963Y4500D01*
X3953Y4500D01*
X3943Y4499D01*
X3933Y4499D01*
X3923Y4498D01*
X3913Y4497D01*
X3903Y4497D01*
X3893Y4496D01*
X3883Y4495D01*
X3873Y4494D01*
X3863Y4493D01*
X3853Y4492D01*
X3843Y4491D01*
X3834Y4490D01*
X3824Y4489D01*
X3814Y4487D01*
X3804Y4486D01*
X3794Y4485D01*
X3784Y4483D01*
X3774Y4482D01*
X3764Y4480D01*
X3755Y4478D01*
X3745Y4476D01*
X3735Y4475D01*
X3725Y4473D01*
X3715Y4471D01*
X3706Y4469D01*
X3696Y4467D01*
X3686Y4464D01*
X3676Y4462D01*
X3667Y4460D01*
X3657Y4458D01*
X3647Y4455D01*
X3638Y4453D01*
X3628Y4450D01*
X3618Y4448D01*
X3609Y4445D01*
X3599Y4442D01*
X3590Y4439D01*
X3580Y4437D01*
X3571Y4434D01*
X3561Y4431D01*
X3551Y4428D01*
X3542Y4424D01*
X4001Y4441D02*
X4001Y4451D01*
X3998Y4460D01*
X3992Y4467D01*
X3983Y4472D01*
X3974Y4473D01*
X3968Y4664D02*
X3958Y4664D01*
X3948Y4664D01*
X3938Y4663D01*
X3928Y4663D01*
X3918Y4662D01*
X3909Y4662D01*
X3899Y4661D01*
X3889Y4660D01*
X3879Y4660D01*
X3869Y4659D01*
X3859Y4658D01*
X3849Y4657D01*
X3839Y4656D01*
X3829Y4655D01*
X3819Y4654D01*
X3810Y4652D01*
X3800Y4651D01*
X3790Y4650D01*
X3780Y4648D01*
X3770Y4647D01*
X3760Y4646D01*
X3751Y4644D01*
X3741Y4642D01*
X3731Y4641D01*
X3721Y4639D01*
X3711Y4637D01*
X3702Y4635D01*
X3692Y4633D01*
X3682Y4631D01*
X3672Y4629D01*
X3663Y4627D01*
X3653Y4625D01*
X3643Y4623D01*
X3634Y4621D01*
X3624Y4619D01*
X3614Y4616D01*
X3605Y4614D01*
X3595Y4611D01*
X3585Y4609D01*
X3576Y4606D01*
X3566Y4603D01*
X3557Y4601D01*
X3547Y4598D01*
X3538Y4595D01*
X3528Y4592D01*
X3519Y4589D01*
X3509Y4586D01*
X3500Y4583D01*
X3490Y4580D01*
X3969Y4637D02*
X3959Y4637D01*
X3949Y4636D01*
X3939Y4636D01*
X3929Y4635D01*
X3919Y4635D01*
X3909Y4634D01*
X3899Y4634D01*
X3889Y4633D01*
X3879Y4632D01*
X3869Y4631D01*
X3859Y4630D01*
X3849Y4629D01*
X3839Y4628D01*
X3830Y4627D01*
X3820Y4626D01*
X3810Y4625D01*
X3800Y4624D01*
X3790Y4622D01*
X3780Y4621D01*
X3770Y4619D01*
X3760Y4618D01*
X3751Y4616D01*
X3741Y4615D01*
X3731Y4613D01*
X3721Y4611D01*
X3711Y4609D01*
X3701Y4607D01*
X3692Y4605D01*
X3682Y4603D01*
X3672Y4601D01*
X3662Y4599D01*
X3653Y4597D01*
X3643Y4595D01*
X3633Y4593D01*
X3623Y4590D01*
X3614Y4588D01*
X3604Y4585D01*
X3595Y4583D01*
X3585Y4580D01*
X3575Y4578D01*
X3566Y4575D01*
X3556Y4572D01*
X3546Y4569D01*
X3537Y4566D01*
X3527Y4563D01*
X3518Y4560D01*
X3508Y4557D01*
X3499Y4554D01*
X3972Y4528D02*
X3962Y4527D01*
X3952Y4527D01*
X3942Y4527D01*
X3932Y4526D01*
X3922Y4526D01*
X3912Y4525D01*
X3903Y4524D01*
X3893Y4523D01*
X3883Y4523D01*
X3873Y4522D01*
X3863Y4521D01*
X3853Y4520D01*
X3843Y4519D01*
X3833Y4517D01*
X3823Y4516D01*
X3814Y4515D01*
X3804Y4514D01*
X3794Y4512D01*
X3784Y4511D01*
X3774Y4509D01*
X3765Y4508D01*
X3755Y4506D01*
X3745Y4504D01*
X3735Y4502D01*
X3725Y4501D01*
X3716Y4499D01*
X3706Y4497D01*
X3696Y4495D01*
X3687Y4493D01*
X3677Y4490D01*
X3667Y4488D01*
X3658Y4486D01*
X3648Y4484D01*
X3638Y4481D01*
X3629Y4479D01*
X3619Y4476D01*
X3609Y4473D01*
X3600Y4471D01*
X3590Y4468D01*
X3581Y4465D01*
X3571Y4462D01*
X3562Y4460D01*
X3552Y4457D01*
X3543Y4454D01*
X3533Y4450D01*
X3551Y4398D02*
X3542Y4392D01*
X3537Y4382D01*
X3536Y4371D01*
X3540Y4361D01*
X3542Y4424D02*
X3533Y4420D01*
X3525Y4413D01*
X3518Y4406D01*
X3513Y4397D01*
X3510Y4387D01*
X3509Y4377D01*
X3509Y4367D01*
X3512Y4357D01*
X3516Y4348D01*
X3533Y4450D02*
X3524Y4446D01*
X3516Y4441D01*
X3508Y4435D01*
X3501Y4428D01*
X3495Y4420D01*
X3490Y4411D01*
X3486Y4402D01*
X3483Y4392D01*
X3482Y4382D01*
X3481Y4372D01*
X3482Y4362D01*
X3484Y4352D01*
X3488Y4343D01*
X3492Y4334D01*
X3525Y4476D02*
X3516Y4472D01*
X3507Y4468D01*
X3499Y4462D01*
X3491Y4456D01*
X3484Y4449D01*
X3477Y4442D01*
X3471Y4434D01*
X3466Y4425D01*
X3462Y4416D01*
X3459Y4407D01*
X3456Y4397D01*
X3455Y4387D01*
X3454Y4377D01*
X3454Y4367D01*
X3455Y4357D01*
X3457Y4348D01*
X3460Y4338D01*
X3464Y4329D01*
X3469Y4320D01*
X3967Y4692D02*
X3957Y4691D01*
X3947Y4691D01*
X3938Y4690D01*
X3928Y4690D01*
X3918Y4689D01*
X3908Y4689D01*
X3898Y4688D01*
X3888Y4687D01*
X3878Y4687D01*
X3868Y4686D01*
X3858Y4685D01*
X3848Y4684D01*
X3838Y4683D01*
X3829Y4682D01*
X3819Y4681D01*
X3809Y4680D01*
X3799Y4678D01*
X3789Y4677D01*
X3779Y4676D01*
X3769Y4674D01*
X3760Y4673D01*
X3750Y4671D01*
X3740Y4670D01*
X3730Y4668D01*
X3720Y4666D01*
X3711Y4665D01*
X3701Y4663D01*
X3691Y4661D01*
X3681Y4659D01*
X3672Y4657D01*
X3662Y4655D01*
X3652Y4653D01*
X3642Y4651D01*
X3633Y4648D01*
X3623Y4646D01*
X3613Y4644D01*
X3604Y4641D01*
X3594Y4639D01*
X3585Y4637D01*
X3575Y4634D01*
X3565Y4631D01*
X3556Y4629D01*
X3546Y4626D01*
X3537Y4623D01*
X3527Y4620D01*
X3518Y4617D01*
X3508Y4614D01*
X3499Y4611D01*
X3489Y4608D01*
X3480Y4605D01*
X3470Y4602D01*
X3516Y4502D02*
X3507Y4499D01*
X3498Y4494D01*
X3490Y4489D01*
X3481Y4484D01*
X3474Y4478D01*
X3466Y4471D01*
X3460Y4464D01*
X3453Y4456D01*
X3448Y4448D01*
X3443Y4439D01*
X3438Y4430D01*
X3435Y4421D01*
X3432Y4412D01*
X3429Y4402D01*
X3428Y4392D01*
X3427Y4382D01*
X3427Y4373D01*
X3427Y4363D01*
X3428Y4353D01*
X3430Y4343D01*
X3433Y4334D01*
X3436Y4324D01*
X3440Y4315D01*
X3445Y4307D01*
X4163Y4412D02*
X4164Y4422D01*
X4165Y4432D01*
X4166Y4442D01*
X4166Y4452D01*
X4165Y4462D01*
X4164Y4472D01*
X4162Y4482D01*
X4160Y4492D01*
X4158Y4501D01*
X4154Y4511D01*
X4151Y4520D01*
X4147Y4529D01*
X4142Y4538D01*
X4137Y4547D01*
X4132Y4555D01*
X4126Y4563D01*
X4119Y4571D01*
X4113Y4578D01*
X4105Y4585D01*
X4098Y4592D01*
X4090Y4598D01*
X4082Y4604D01*
X4074Y4609D01*
X4065Y4614D01*
X4056Y4619D01*
X4047Y4623D01*
X4038Y4626D01*
X4028Y4629D01*
X4018Y4632D01*
X4009Y4634D01*
X3999Y4636D01*
X3989Y4637D01*
X3979Y4637D01*
X3969Y4637D01*
X3916Y3672D02*
X3925Y3674D01*
X3935Y3677D01*
X3944Y3680D01*
X3953Y3683D01*
X3963Y3687D01*
X3972Y3691D01*
X3980Y3695D01*
X3989Y3700D01*
X3997Y3705D01*
X4005Y3711D01*
X4013Y3717D01*
X4020Y3723D01*
X4028Y3730D01*
X4035Y3737D01*
X4041Y3744D01*
X4047Y3752D01*
X4053Y3760D01*
X4059Y3768D01*
X4064Y3776D01*
X4069Y3785D01*
X4073Y3793D01*
X4077Y3802D01*
X4081Y3811D01*
X4084Y3821D01*
X4087Y3830D01*
X4089Y3840D01*
X4091Y3849D01*
X4217Y4403D02*
X4218Y4413D01*
X4219Y4423D01*
X4220Y4432D01*
X4220Y4442D01*
X4220Y4452D01*
X4220Y4462D01*
X4219Y4472D01*
X4218Y4482D01*
X4216Y4492D01*
X4214Y4501D01*
X4211Y4511D01*
X4209Y4521D01*
X4205Y4530D01*
X4202Y4539D01*
X4198Y4548D01*
X4194Y4557D01*
X4189Y4566D01*
X4184Y4574D01*
X4178Y4583D01*
X4173Y4591D01*
X4167Y4599D01*
X4160Y4606D01*
X4154Y4614D01*
X4147Y4621D01*
X4140Y4628D01*
X4132Y4634D01*
X4124Y4640D01*
X4117Y4646D01*
X4108Y4652D01*
X4100Y4657D01*
X4091Y4662D01*
X4082Y4667D01*
X4073Y4671D01*
X4064Y4675D01*
X4055Y4678D01*
X4046Y4681D01*
X4036Y4684D01*
X4026Y4686D01*
X4017Y4688D01*
X4007Y4689D01*
X3997Y4691D01*
X3987Y4691D01*
X3977Y4692D01*
X3967Y4692D01*
X4190Y4408D02*
X4191Y4417D01*
X4192Y4427D01*
X4193Y4437D01*
X4193Y4447D01*
X4193Y4457D01*
X4192Y4467D01*
X4191Y4477D01*
X4189Y4487D01*
X4187Y4497D01*
X4185Y4506D01*
X4182Y4516D01*
X4178Y4525D01*
X4174Y4534D01*
X4170Y4543D01*
X4166Y4552D01*
X4161Y4561D01*
X4155Y4569D01*
X4149Y4577D01*
X4143Y4585D01*
X4137Y4592D01*
X4130Y4600D01*
X4123Y4607D01*
X4115Y4613D01*
X4107Y4619D01*
X4099Y4625D01*
X4091Y4631D01*
X4083Y4636D01*
X4074Y4641D01*
X4065Y4645D01*
X4056Y4649D01*
X4046Y4652D01*
X4037Y4655D01*
X4027Y4658D01*
X4018Y4660D01*
X4008Y4662D01*
X3998Y4663D01*
X3988Y4664D01*
X3978Y4664D01*
X3968Y4664D01*
X3499Y4554D02*
X3489Y4551D01*
X3480Y4546D01*
X3471Y4542D01*
X3462Y4537D01*
X3454Y4531D01*
X3446Y4525D01*
X3438Y4519D01*
X3430Y4512D01*
X3423Y4505D01*
X3417Y4497D01*
X3410Y4489D01*
X3404Y4481D01*
X3399Y4472D01*
X3394Y4464D01*
X3390Y4455D01*
X3386Y4445D01*
X3382Y4436D01*
X3379Y4426D01*
X3377Y4416D01*
X3375Y4406D01*
X3373Y4396D01*
X3372Y4386D01*
X3372Y4376D01*
X3372Y4366D01*
X3373Y4356D01*
X3374Y4346D01*
X3376Y4336D01*
X3378Y4326D01*
X3381Y4316D01*
X3385Y4307D01*
X3388Y4297D01*
X3393Y4288D01*
X3398Y4279D01*
X3490Y4580D02*
X3481Y4577D01*
X3472Y4573D01*
X3463Y4568D01*
X3454Y4563D01*
X3445Y4558D01*
X3437Y4553D01*
X3429Y4547D01*
X3421Y4540D01*
X3413Y4534D01*
X3406Y4526D01*
X3399Y4519D01*
X3393Y4511D01*
X3387Y4503D01*
X3381Y4495D01*
X3375Y4487D01*
X3370Y4478D01*
X3366Y4469D01*
X3362Y4460D01*
X3358Y4450D01*
X3355Y4441D01*
X3352Y4431D01*
X3350Y4421D01*
X3348Y4411D01*
X3346Y4401D01*
X3345Y4391D01*
X3345Y4381D01*
X3345Y4371D01*
X3345Y4361D01*
X3346Y4351D01*
X3347Y4341D01*
X3349Y4331D01*
X3351Y4321D01*
X3354Y4312D01*
X3357Y4302D01*
X3361Y4293D01*
X3365Y4283D01*
X3369Y4274D01*
X3374Y4266D01*
X3508Y4528D02*
X3498Y4525D01*
X3489Y4521D01*
X3481Y4516D01*
X3472Y4511D01*
X3464Y4505D01*
X3457Y4499D01*
X3449Y4492D01*
X3442Y4485D01*
X3436Y4478D01*
X3430Y4470D01*
X3424Y4462D01*
X3419Y4453D01*
X3415Y4444D01*
X3411Y4435D01*
X3408Y4426D01*
X3405Y4417D01*
X3402Y4407D01*
X3401Y4397D01*
X3400Y4388D01*
X3399Y4378D01*
X3399Y4368D01*
X3400Y4358D01*
X3401Y4348D01*
X3403Y4339D01*
X3406Y4329D01*
X3409Y4320D01*
X3412Y4310D01*
X3417Y4302D01*
X3421Y4293D01*
X3475Y4605D02*
X3465Y4601D01*
X3456Y4596D01*
X3447Y4592D01*
X3438Y4587D01*
X3430Y4582D01*
X3421Y4576D01*
X3413Y4570D01*
X3405Y4564D01*
X3398Y4557D01*
X3390Y4550D01*
X3383Y4543D01*
X3376Y4535D01*
X3370Y4527D01*
X3364Y4519D01*
X3358Y4511D01*
X3353Y4502D01*
X3348Y4494D01*
X3343Y4485D01*
X3339Y4476D01*
X3335Y4466D01*
X3331Y4457D01*
X3328Y4447D01*
X3325Y4437D01*
X3323Y4428D01*
X3321Y4418D01*
X3319Y4408D01*
X3318Y4398D01*
X3318Y4388D01*
X3317Y4377D01*
X3317Y4367D01*
X3318Y4357D01*
X3319Y4347D01*
X3320Y4337D01*
X3322Y4327D01*
X3324Y4317D01*
X3327Y4308D01*
X3330Y4298D01*
X3333Y4288D01*
X3337Y4279D01*
X3341Y4270D01*
X3345Y4261D01*
X3350Y4252D01*
X4109Y4422D02*
X4110Y4432D01*
X4111Y4442D01*
X4111Y4452D01*
X4110Y4462D01*
X4109Y4472D01*
X4106Y4482D01*
X4103Y4492D01*
X4099Y4501D01*
X4095Y4510D01*
X4090Y4519D01*
X4084Y4527D01*
X4078Y4535D01*
X4071Y4542D01*
X4064Y4549D01*
X4056Y4556D01*
X4047Y4561D01*
X4039Y4566D01*
X4029Y4571D01*
X4020Y4575D01*
X4010Y4578D01*
X4001Y4580D01*
X3991Y4581D01*
X3981Y4582D01*
X3970Y4582D01*
X4082Y4427D02*
X4083Y4437D01*
X4084Y4447D01*
X4083Y4457D01*
X4082Y4467D01*
X4079Y4477D01*
X4076Y4487D01*
X4071Y4496D01*
X4066Y4505D01*
X4060Y4513D01*
X4054Y4521D01*
X4046Y4528D01*
X4038Y4534D01*
X4030Y4540D01*
X4021Y4545D01*
X4011Y4549D01*
X4002Y4552D01*
X3992Y4554D01*
X3981Y4555D01*
X3971Y4555D01*
X4055Y4431D02*
X4056Y4441D01*
X4056Y4451D01*
X4055Y4460D01*
X4053Y4470D01*
X4049Y4479D01*
X4045Y4488D01*
X4039Y4496D01*
X4033Y4503D01*
X4026Y4509D01*
X4018Y4515D01*
X4010Y4520D01*
X4001Y4523D01*
X3991Y4526D01*
X3982Y4527D01*
X3972Y4528D01*
X4028Y4436D02*
X4029Y4446D01*
X4028Y4455D01*
X4026Y4465D01*
X4021Y4474D01*
X4016Y4481D01*
X4009Y4488D01*
X4001Y4494D01*
X3992Y4498D01*
X3982Y4500D01*
X3973Y4500D01*
X4136Y4417D02*
X4137Y4427D01*
X4138Y4437D01*
X4138Y4447D01*
X4138Y4457D01*
X4137Y4467D01*
X4135Y4477D01*
X4133Y4487D01*
X4130Y4496D01*
X4127Y4506D01*
X4123Y4515D01*
X4119Y4524D01*
X4113Y4533D01*
X4108Y4541D01*
X4102Y4549D01*
X4095Y4557D01*
X4088Y4564D01*
X4081Y4571D01*
X4073Y4577D01*
X4065Y4583D01*
X4056Y4588D01*
X4047Y4593D01*
X4038Y4597D01*
X4029Y4600D01*
X4019Y4604D01*
X4010Y4606D01*
X4000Y4608D01*
X3990Y4609D01*
X3980Y4610D01*
X3970Y4610D01*
X3872Y3887D02*
X3876Y3891D01*
X3973Y4441D02*
X3966Y4447D01*
X3966D02*
X3956Y4447D01*
X3946Y4446D01*
X3936Y4446D01*
X3925Y4445D01*
X3915Y4444D01*
X3905Y4444D01*
X3895Y4443D01*
X3885Y4442D01*
X3875Y4441D01*
X3864Y4440D01*
X3854Y4439D01*
X3844Y4438D01*
X3834Y4437D01*
X3824Y4435D01*
X3814Y4434D01*
X3804Y4432D01*
X3793Y4431D01*
X3783Y4429D01*
X3773Y4428D01*
X3763Y4426D01*
X3970Y4610D02*
X3960Y4609D01*
X3950Y4609D01*
X3940Y4609D01*
X3930Y4608D01*
X3920Y4608D01*
X3910Y4607D01*
X3900Y4606D01*
X3890Y4605D01*
X3880Y4605D01*
X3870Y4604D01*
X3860Y4603D01*
X3850Y4602D01*
X3840Y4601D01*
X3830Y4600D01*
X3820Y4599D01*
X3810Y4597D01*
X3800Y4596D01*
X3790Y4595D01*
X3780Y4593D01*
X3770Y4592D01*
X3760Y4590D01*
X3750Y4588D01*
X3741Y4587D01*
X3731Y4585D01*
X3721Y4583D01*
X3711Y4581D01*
X3701Y4579D01*
X3691Y4577D01*
X3682Y4575D01*
X3672Y4573D01*
X3662Y4571D01*
X3652Y4569D01*
X3642Y4567D01*
X3633Y4564D01*
X3623Y4562D01*
X3613Y4559D01*
X3604Y4557D01*
X3594Y4554D01*
X3584Y4552D01*
X3575Y4549D01*
X3565Y4546D01*
X3555Y4543D01*
X3546Y4540D01*
X3536Y4538D01*
X3527Y4535D01*
X3517Y4531D01*
X3508Y4528D01*
X3970Y4582D02*
X3960Y4582D01*
X3950Y4582D01*
X3940Y4581D01*
X3930Y4581D01*
X3920Y4580D01*
X3910Y4580D01*
X3900Y4579D01*
X3890Y4578D01*
X3880Y4577D01*
X3870Y4576D01*
X3860Y4575D01*
X3850Y4574D01*
X3840Y4573D01*
X3830Y4572D01*
X3820Y4571D01*
X3810Y4570D01*
X3800Y4568D01*
X3790Y4567D01*
X3780Y4565D01*
X3770Y4564D01*
X3760Y4562D01*
X3750Y4561D01*
X3740Y4559D01*
X3730Y4557D01*
X3721Y4555D01*
X3711Y4553D01*
X3701Y4552D01*
X3691Y4549D01*
X3681Y4547D01*
X3671Y4545D01*
X3661Y4543D01*
X3652Y4541D01*
X3642Y4538D01*
X3632Y4536D01*
X3622Y4534D01*
X3613Y4531D01*
X3603Y4528D01*
X3593Y4526D01*
X3583Y4523D01*
X3574Y4520D01*
X3564Y4517D01*
X3555Y4515D01*
X3545Y4512D01*
X3535Y4509D01*
X3526Y4505D01*
X3516Y4502D01*
X3971Y4555D02*
X3961Y4555D01*
X3951Y4554D01*
X3941Y4554D01*
X3931Y4553D01*
X3921Y4553D01*
X3911Y4552D01*
X3901Y4551D01*
X3890Y4551D01*
X3880Y4550D01*
X3870Y4549D01*
X3860Y4548D01*
X3850Y4547D01*
X3840Y4546D01*
X3830Y4545D01*
X3820Y4543D01*
X3810Y4542D01*
X3800Y4541D01*
X3790Y4539D01*
X3780Y4538D01*
X3770Y4536D01*
X3760Y4535D01*
X3750Y4533D01*
X3740Y4531D01*
X3730Y4529D01*
X3720Y4527D01*
X3710Y4526D01*
X3700Y4524D01*
X3691Y4521D01*
X3681Y4519D01*
X3671Y4517D01*
X3661Y4515D01*
X3651Y4512D01*
X3641Y4510D01*
X3631Y4508D01*
X3622Y4505D01*
X3612Y4503D01*
X3602Y4500D01*
X3592Y4497D01*
X3583Y4494D01*
X3573Y4492D01*
X3563Y4489D01*
X3554Y4486D01*
X3544Y4483D01*
X3534Y4480D01*
X3525Y4476D01*
X3786Y3880D02*
X3791Y3873D01*
X3798Y3866D01*
X3806Y3860D01*
X3814Y3856D01*
X3823Y3854D01*
X3833Y3853D01*
X3842Y3854D01*
X3912Y3698D02*
X3921Y3700D01*
X3931Y3703D01*
X3941Y3706D01*
X3950Y3710D01*
X3959Y3714D01*
X3968Y3718D01*
X3977Y3723D01*
X3985Y3729D01*
X3993Y3735D01*
X4001Y3741D01*
X4008Y3748D01*
X4015Y3755D01*
X4022Y3763D01*
X4028Y3771D01*
X4034Y3779D01*
X4039Y3787D01*
X4044Y3796D01*
X4049Y3805D01*
X4053Y3814D01*
X4056Y3823D01*
X4059Y3833D01*
X4062Y3843D01*
X4064Y3853D01*
X3906Y3726D02*
X3915Y3728D01*
X3925Y3731D01*
X3934Y3734D01*
X3944Y3738D01*
X3953Y3742D01*
X3961Y3747D01*
X3969Y3753D01*
X3977Y3759D01*
X3985Y3765D01*
X3992Y3772D01*
X3999Y3779D01*
X4005Y3787D01*
X4011Y3795D01*
X4017Y3803D01*
X4021Y3812D01*
X4026Y3821D01*
X4030Y3830D01*
X4033Y3840D01*
X4035Y3849D01*
X4037Y3859D01*
X3901Y3753D02*
X3910Y3755D01*
X3920Y3758D01*
X3929Y3761D01*
X3938Y3765D01*
X3946Y3770D01*
X3954Y3775D01*
X3962Y3781D01*
X3969Y3788D01*
X3976Y3795D01*
X3983Y3802D01*
X3988Y3810D01*
X3994Y3818D01*
X3998Y3827D01*
X4002Y3836D01*
X4006Y3845D01*
X4008Y3854D01*
X4010Y3864D01*
X3896Y3780D02*
X3906Y3782D01*
X3915Y3785D01*
X3925Y3790D01*
X3934Y3795D01*
X3942Y3800D01*
X3950Y3807D01*
X3957Y3814D01*
X3963Y3822D01*
X3969Y3830D01*
X3974Y3839D01*
X3978Y3849D01*
X3981Y3858D01*
X3983Y3868D01*
X3891Y3807D02*
X3900Y3809D01*
X3910Y3813D01*
X3918Y3817D01*
X3927Y3823D01*
X3934Y3830D01*
X3941Y3837D01*
X3946Y3845D01*
X3951Y3854D01*
X3954Y3863D01*
X3957Y3873D01*
X3886Y3834D02*
X3895Y3836D01*
X3903Y3840D01*
X3911Y3846D01*
X3918Y3852D01*
X3923Y3860D01*
X3927Y3869D01*
X3930Y3878D01*
X3881Y3860D02*
X3891Y3865D01*
X3899Y3872D01*
X3903Y3883D01*
X3822Y3662D02*
X3832Y3662D01*
X3843Y3662D01*
X3853Y3662D01*
X3863Y3663D01*
X3874Y3665D01*
X3762Y3867D02*
X3768Y3858D01*
X3774Y3851D01*
X3781Y3844D01*
X3789Y3838D01*
X3798Y3833D01*
X3807Y3830D01*
X3817Y3827D01*
X3827Y3826D01*
X3837Y3826D01*
X3847Y3827D01*
X3738Y3853D02*
X3744Y3844D01*
X3750Y3836D01*
X3757Y3829D01*
X3765Y3822D01*
X3773Y3816D01*
X3782Y3811D01*
X3791Y3807D01*
X3801Y3803D01*
X3811Y3801D01*
X3821Y3799D01*
X3831Y3798D01*
X3841Y3799D01*
X3851Y3800D01*
X3715Y3839D02*
X3720Y3831D01*
X3726Y3823D01*
X3732Y3816D01*
X3739Y3809D01*
X3746Y3802D01*
X3754Y3796D01*
X3762Y3791D01*
X3770Y3786D01*
X3779Y3782D01*
X3788Y3778D01*
X3798Y3776D01*
X3807Y3773D01*
X3817Y3772D01*
X3827Y3771D01*
X3836Y3771D01*
X3846Y3772D01*
X3856Y3773D01*
X3691Y3826D02*
X3696Y3817D01*
X3702Y3809D01*
X3708Y3801D01*
X3715Y3794D01*
X3722Y3787D01*
X3730Y3780D01*
X3737Y3774D01*
X3746Y3769D01*
X3754Y3764D01*
X3763Y3759D01*
X3772Y3755D01*
X3782Y3752D01*
X3791Y3749D01*
X3801Y3747D01*
X3811Y3745D01*
X3821Y3744D01*
X3830Y3744D01*
X3840Y3744D01*
X3850Y3744D01*
X3860Y3746D01*
X3667Y3812D02*
X3673Y3803D01*
X3678Y3795D01*
X3684Y3787D01*
X3691Y3779D01*
X3698Y3772D01*
X3705Y3765D01*
X3713Y3759D01*
X3721Y3752D01*
X3729Y3747D01*
X3738Y3742D01*
X3747Y3737D01*
X3756Y3732D01*
X3765Y3729D01*
X3775Y3725D01*
X3785Y3722D01*
X3794Y3720D01*
X3804Y3718D01*
X3814Y3717D01*
X3824Y3716D01*
X3835Y3716D01*
X3845Y3717D01*
X3855Y3717D01*
X3865Y3719D01*
X3644Y3798D02*
X3649Y3790D01*
X3654Y3782D01*
X3660Y3774D01*
X3666Y3766D01*
X3673Y3759D01*
X3680Y3752D01*
X3687Y3745D01*
X3694Y3739D01*
X3702Y3733D01*
X3710Y3727D01*
X3718Y3722D01*
X3727Y3717D01*
X3735Y3712D01*
X3744Y3708D01*
X3753Y3704D01*
X3763Y3701D01*
X3772Y3698D01*
X3781Y3695D01*
X3791Y3693D01*
X3801Y3691D01*
X3810Y3690D01*
X3820Y3689D01*
X3830Y3689D01*
X3840Y3689D01*
X3850Y3690D01*
X3859Y3690D01*
X3869Y3692D01*
X3809Y3894D02*
X3817Y3886D01*
X3827Y3881D01*
X3838Y3881D01*
X3620Y3785D02*
X3625Y3776D01*
X3631Y3768D01*
X3637Y3759D01*
X3643Y3752D01*
X3649Y3744D01*
X3656Y3737D01*
X3663Y3729D01*
X3671Y3723D01*
X3679Y3716D01*
X3687Y3710D01*
X3695Y3704D01*
X3703Y3699D01*
X3712Y3694D01*
X3721Y3689D01*
X3730Y3684D01*
X3739Y3680D01*
X3748Y3677D01*
X3758Y3673D01*
X3768Y3670D01*
X3777Y3668D01*
X3787Y3666D01*
X3797Y3664D01*
X3807Y3663D01*
X3817Y3662D01*
X3960Y3657D02*
X3969Y3661D01*
X3979Y3665D01*
X3987Y3669D01*
X3996Y3674D01*
X4005Y3679D01*
X4013Y3684D01*
X4021Y3690D01*
X4029Y3696D01*
X4037Y3702D01*
X4044Y3709D01*
X4051Y3716D01*
X4058Y3723D01*
X4064Y3730D01*
X4070Y3738D01*
X4076Y3746D01*
X4082Y3754D01*
X4087Y3762D01*
X4092Y3771D01*
X4097Y3780D01*
X4101Y3789D01*
X4105Y3798D01*
X4108Y3807D01*
X4111Y3817D01*
X4114Y3826D01*
X4116Y3836D01*
X4118Y3845D01*
X4395Y3538D02*
X4404Y3535D01*
X4414Y3533D01*
X4423Y3530D01*
X4433Y3528D01*
X4443Y3526D01*
X4453Y3525D01*
X4463Y3524D01*
X4472Y3524D01*
X4482Y3524D01*
X4492Y3524D01*
X4502Y3525D01*
X4512Y3526D01*
X4522Y3528D01*
X4531Y3529D01*
X4541Y3532D01*
X4550Y3535D01*
X4560Y3538D01*
X4569Y3541D01*
X4578Y3545D01*
X4587Y3549D01*
X4596Y3554D01*
X4605Y3558D01*
X4613Y3564D01*
X4621Y3569D01*
X4629Y3575D01*
X4637Y3581D01*
X4216Y3855D02*
X4215Y3845D01*
X4214Y3835D01*
X4213Y3825D01*
X4213Y3815D01*
X4213Y3805D01*
X4213Y3795D01*
X4214Y3785D01*
X4215Y3775D01*
X4217Y3765D01*
X4219Y3755D01*
X4222Y3745D01*
X4225Y3736D01*
X4228Y3726D01*
X4232Y3717D01*
X4236Y3707D01*
X4240Y3698D01*
X4245Y3690D01*
X4250Y3681D01*
X4256Y3673D01*
X4262Y3664D01*
X4268Y3656D01*
X4275Y3649D01*
X4281Y3641D01*
X4288Y3634D01*
X4432Y3817D02*
X4432Y3806D01*
X4437Y3796D01*
X4445Y3789D01*
X4243Y3850D02*
X4242Y3840D01*
X4241Y3831D01*
X4240Y3821D01*
X4240Y3811D01*
X4240Y3801D01*
X4241Y3791D01*
X4242Y3782D01*
X4244Y3772D01*
X4246Y3762D01*
X4248Y3753D01*
X4251Y3743D01*
X4254Y3734D01*
X4258Y3725D01*
X4262Y3716D01*
X4267Y3707D01*
X4271Y3699D01*
X4277Y3691D01*
X4282Y3683D01*
X4288Y3675D01*
X4295Y3667D01*
X4301Y3660D01*
X4308Y3653D01*
X4316Y3647D01*
X4323Y3640D01*
X4331Y3634D01*
X4339Y3629D01*
X4348Y3624D01*
X4270Y3845D02*
X4269Y3835D01*
X4268Y3825D01*
X4267Y3815D01*
X4267Y3805D01*
X4268Y3795D01*
X4269Y3785D01*
X4271Y3775D01*
X4273Y3765D01*
X4276Y3756D01*
X4279Y3746D01*
X4283Y3737D01*
X4287Y3727D01*
X4292Y3719D01*
X4297Y3710D01*
X4302Y3701D01*
X4309Y3693D01*
X4315Y3686D01*
X4322Y3678D01*
X4329Y3671D01*
X4337Y3665D01*
X4345Y3658D01*
X4353Y3653D01*
X4361Y3647D01*
X4297Y3841D02*
X4296Y3831D01*
X4295Y3821D01*
X4295Y3811D01*
X4295Y3801D01*
X4296Y3791D01*
X4298Y3781D01*
X4300Y3772D01*
X4302Y3762D01*
X4306Y3753D01*
X4310Y3743D01*
X4314Y3735D01*
X4319Y3726D01*
X4325Y3718D01*
X4331Y3710D01*
X4337Y3702D01*
X4344Y3695D01*
X4351Y3688D01*
X4359Y3682D01*
X4367Y3676D01*
X4375Y3671D01*
X4324Y3836D02*
X4323Y3826D01*
X4322Y3816D01*
X4322Y3807D01*
X4323Y3797D01*
X4324Y3787D01*
X4326Y3778D01*
X4329Y3768D01*
X4333Y3759D01*
X4337Y3751D01*
X4341Y3742D01*
X4347Y3734D01*
X4353Y3726D01*
X4359Y3719D01*
X4366Y3712D01*
X4373Y3705D01*
X4381Y3700D01*
X4389Y3694D01*
X4351Y3831D02*
X4350Y3821D01*
X4349Y3811D01*
X4350Y3801D01*
X4351Y3791D01*
X4354Y3781D01*
X4357Y3771D01*
X4362Y3762D01*
X4367Y3753D01*
X4373Y3745D01*
X4379Y3737D01*
X4387Y3730D01*
X4395Y3723D01*
X4403Y3718D01*
X4378Y3826D02*
X4377Y3817D01*
X4377Y3807D01*
X4378Y3797D01*
X4381Y3787D01*
X4384Y3778D01*
X4389Y3769D01*
X4395Y3761D01*
X4401Y3754D01*
X4409Y3747D01*
X4417Y3741D01*
X4292Y3631D02*
X4300Y3624D01*
X4308Y3618D01*
X4316Y3611D01*
X4325Y3606D01*
X4334Y3600D01*
X4465Y3745D02*
X4475Y3742D01*
X4486Y3743D01*
X4496Y3748D01*
X4451Y3722D02*
X4460Y3718D01*
X4469Y3715D01*
X4479Y3714D01*
X4488Y3715D01*
X4497Y3718D01*
X4506Y3722D01*
X4513Y3727D01*
X4438Y3698D02*
X4447Y3693D01*
X4456Y3690D01*
X4466Y3688D01*
X4476Y3687D01*
X4486Y3687D01*
X4496Y3689D01*
X4505Y3692D01*
X4514Y3695D01*
X4523Y3700D01*
X4531Y3706D01*
X4424Y3674D02*
X4434Y3669D01*
X4443Y3666D01*
X4453Y3663D01*
X4463Y3661D01*
X4473Y3660D01*
X4483Y3660D01*
X4493Y3661D01*
X4503Y3663D01*
X4513Y3665D01*
X4523Y3669D01*
X4532Y3674D01*
X4540Y3679D01*
X4549Y3685D01*
X4411Y3650D02*
X4420Y3646D01*
X4429Y3642D01*
X4438Y3639D01*
X4447Y3636D01*
X4457Y3634D01*
X4466Y3633D01*
X4476Y3632D01*
X4486Y3633D01*
X4496Y3634D01*
X4505Y3635D01*
X4515Y3637D01*
X4524Y3640D01*
X4533Y3644D01*
X4542Y3648D01*
X4550Y3653D01*
X4558Y3658D01*
X4566Y3664D01*
X4398Y3626D02*
X4406Y3622D01*
X4415Y3618D01*
X4425Y3614D01*
X4434Y3611D01*
X4444Y3609D01*
X4454Y3607D01*
X4464Y3606D01*
X4473Y3605D01*
X4483Y3605D01*
X4493Y3606D01*
X4503Y3607D01*
X4513Y3609D01*
X4523Y3611D01*
X4532Y3614D01*
X4541Y3618D01*
X4550Y3622D01*
X4559Y3626D01*
X4568Y3632D01*
X4576Y3637D01*
X4584Y3643D01*
X4384Y3601D02*
X4393Y3597D01*
X4402Y3592D01*
X4411Y3589D01*
X4421Y3585D01*
X4431Y3583D01*
X4440Y3581D01*
X4450Y3579D01*
X4460Y3578D01*
X4470Y3577D01*
X4480Y3577D01*
X4490Y3577D01*
X4500Y3578D01*
X4510Y3580D01*
X4520Y3582D01*
X4530Y3584D01*
X4539Y3587D01*
X4549Y3591D01*
X4558Y3595D01*
X4567Y3599D01*
X4576Y3604D01*
X4584Y3609D01*
X4592Y3615D01*
X4600Y3621D01*
X4405Y3822D02*
X4404Y3812D01*
X4405Y3803D01*
X4407Y3794D01*
X4411Y3785D01*
X4417Y3777D01*
X4423Y3770D01*
X4431Y3765D01*
X4981Y4219D02*
X4973Y4226D01*
X4965Y4232D01*
X4957Y4238D01*
X4949Y4244D01*
X4940Y4250D01*
X4932Y4256D01*
X4924Y4262D01*
X4916Y4268D01*
X4908Y4274D01*
X4899Y4279D01*
X4891Y4285D01*
X4883Y4291D01*
X4874Y4296D01*
X4866Y4302D01*
X4857Y4308D01*
X4849Y4313D01*
X4840Y4318D01*
X4832Y4324D01*
X4823Y4329D01*
X4814Y4334D01*
X4806Y4339D01*
X4797Y4344D01*
X4788Y4350D01*
X4779Y4355D01*
X4771Y4359D01*
X4762Y4364D01*
X4753Y4369D01*
X4744Y4374D01*
X4735Y4379D01*
X4726Y4383D01*
X4717Y4388D01*
X4708Y4392D01*
X4699Y4397D01*
X4690Y4401D01*
X4681Y4406D01*
X4672Y4410D01*
X4662Y4414D01*
X4653Y4418D01*
X4644Y4423D01*
X4635Y4427D01*
X4625Y4431D01*
X4616Y4435D01*
X4607Y4438D01*
X4597Y4442D01*
X4588Y4446D01*
X4998Y4241D02*
X4990Y4247D01*
X4982Y4253D01*
X4974Y4259D01*
X4966Y4265D01*
X4958Y4271D01*
X4950Y4277D01*
X4941Y4283D01*
X4933Y4289D01*
X4925Y4295D01*
X4917Y4301D01*
X4908Y4306D01*
X4900Y4312D01*
X4892Y4318D01*
X4883Y4323D01*
X4875Y4329D01*
X4866Y4334D01*
X4858Y4340D01*
X4849Y4345D01*
X4841Y4350D01*
X4832Y4355D01*
X4824Y4361D01*
X4815Y4366D01*
X4806Y4371D01*
X4798Y4376D01*
X4789Y4381D01*
X4780Y4386D01*
X4771Y4390D01*
X4762Y4395D01*
X4753Y4400D01*
X4744Y4405D01*
X4736Y4409D01*
X4727Y4414D01*
X4718Y4418D01*
X4709Y4423D01*
X4699Y4427D01*
X4690Y4431D01*
X4681Y4436D01*
X4672Y4440D01*
X4663Y4444D01*
X4654Y4448D01*
X4645Y4452D01*
X4635Y4456D01*
X4626Y4460D01*
X4617Y4464D01*
X4607Y4468D01*
X4598Y4471D01*
X5015Y4262D02*
X5007Y4268D01*
X4999Y4275D01*
X4991Y4281D01*
X4983Y4287D01*
X4975Y4293D01*
X4967Y4299D01*
X4959Y4305D01*
X4950Y4310D01*
X4942Y4316D01*
X4934Y4322D01*
X4926Y4328D01*
X4918Y4333D01*
X4909Y4339D01*
X4901Y4344D01*
X4893Y4350D01*
X4884Y4355D01*
X4876Y4361D01*
X4867Y4366D01*
X4859Y4371D01*
X4850Y4377D01*
X4842Y4382D01*
X4833Y4387D01*
X4824Y4392D01*
X4816Y4397D01*
X4807Y4402D01*
X4798Y4407D01*
X4789Y4412D01*
X4781Y4416D01*
X4772Y4421D01*
X4763Y4426D01*
X4754Y4430D01*
X4745Y4435D01*
X4736Y4440D01*
X4727Y4444D01*
X4718Y4448D01*
X4709Y4453D01*
X4700Y4457D01*
X4691Y4461D01*
X4682Y4465D01*
X4673Y4470D01*
X4664Y4474D01*
X4654Y4478D01*
X4645Y4482D01*
X4636Y4486D01*
X4627Y4489D01*
X4617Y4493D01*
X4608Y4497D01*
X4907Y4140D02*
X4899Y4146D01*
X4891Y4152D01*
X4883Y4158D01*
X4875Y4164D01*
X4867Y4171D01*
X4858Y4177D01*
X4850Y4182D01*
X4842Y4188D01*
X4833Y4194D01*
X4825Y4200D01*
X4816Y4206D01*
X4808Y4211D01*
X4799Y4217D01*
X4791Y4222D01*
X4782Y4228D01*
X4773Y4233D01*
X4765Y4238D01*
X4756Y4244D01*
X4747Y4249D01*
X4738Y4254D01*
X4909Y4130D02*
X4907Y4140D01*
X4475Y3771D02*
X4481Y3772D01*
X5018Y4008D02*
X5026Y4014D01*
X5033Y4022D01*
X5039Y4029D01*
X5045Y4037D01*
X5051Y4045D01*
X5056Y4054D01*
X5061Y4063D01*
X5065Y4072D01*
X5068Y4081D01*
X5071Y4091D01*
X5073Y4101D01*
X5075Y4111D01*
X5076Y4121D01*
X5077Y4131D01*
X5077Y4141D01*
X5076Y4151D01*
X5074Y4161D01*
X5073Y4171D01*
X5070Y4180D01*
X5067Y4190D01*
X5063Y4199D01*
X5059Y4208D01*
X5054Y4217D01*
X5049Y4226D01*
X5043Y4234D01*
X5036Y4241D01*
X5029Y4249D01*
X5022Y4256D01*
X5015Y4262D01*
X4948Y4092D02*
X4955Y4098D01*
X4960Y4106D01*
X4964Y4115D01*
X4967Y4125D01*
X4967Y4134D01*
X4966Y4144D01*
X4964Y4153D01*
X4959Y4162D01*
X4954Y4170D01*
X4947Y4176D01*
X4965Y4071D02*
X4972Y4077D01*
X4979Y4085D01*
X4984Y4093D01*
X4988Y4102D01*
X4991Y4111D01*
X4994Y4120D01*
X4995Y4130D01*
X4994Y4140D01*
X4993Y4149D01*
X4991Y4159D01*
X4987Y4168D01*
X4983Y4176D01*
X4977Y4184D01*
X4971Y4191D01*
X4964Y4198D01*
X4983Y4050D02*
X4990Y4057D01*
X4997Y4064D01*
X5003Y4072D01*
X5009Y4081D01*
X5013Y4090D01*
X5017Y4100D01*
X5019Y4110D01*
X5021Y4120D01*
X5022Y4130D01*
X5022Y4140D01*
X5021Y4150D01*
X5019Y4160D01*
X5016Y4170D01*
X5012Y4180D01*
X5007Y4189D01*
X5002Y4197D01*
X4995Y4205D01*
X4988Y4213D01*
X4981Y4219D01*
X5001Y4029D02*
X5008Y4035D01*
X5015Y4043D01*
X5021Y4051D01*
X5027Y4059D01*
X5032Y4068D01*
X5037Y4077D01*
X5041Y4086D01*
X5044Y4095D01*
X5046Y4105D01*
X5048Y4115D01*
X5049Y4125D01*
X5049Y4135D01*
X5049Y4146D01*
X5048Y4156D01*
X5046Y4165D01*
X5043Y4175D01*
X5039Y4185D01*
X5035Y4194D01*
X5031Y4203D01*
X5025Y4211D01*
X5019Y4219D01*
X5012Y4227D01*
X5005Y4234D01*
X4998Y4241D01*
X4632Y4576D02*
X4622Y4580D01*
X4612Y4582D01*
X4603Y4584D01*
X4593Y4586D01*
X4583Y4588D01*
X4573Y4589D01*
X4563Y4589D01*
X4552Y4590D01*
X4542Y4589D01*
X4532Y4589D01*
X4522Y4588D01*
X4512Y4586D01*
X4502Y4584D01*
X4492Y4582D01*
X4483Y4580D01*
X4473Y4576D01*
X4464Y4573D01*
X4454Y4569D01*
X4445Y4565D01*
X4436Y4560D01*
X4427Y4555D01*
X4419Y4550D01*
X4410Y4544D01*
X4402Y4538D01*
X4394Y4532D01*
X4387Y4525D01*
X4379Y4518D01*
X4372Y4511D01*
X4365Y4504D01*
X4359Y4496D01*
X4353Y4488D01*
X4347Y4479D01*
X4342Y4471D01*
X4337Y4462D01*
X4332Y4453D01*
X4328Y4444D01*
X4324Y4435D01*
X4320Y4425D01*
X4317Y4416D01*
X4314Y4406D01*
X4312Y4396D01*
X4310Y4386D01*
X4608Y4497D02*
X4599Y4500D01*
X4589Y4503D01*
X4580Y4505D01*
X4570Y4506D01*
X4560Y4507D01*
X4550Y4507D01*
X4540Y4507D01*
X4531Y4506D01*
X4521Y4504D01*
X4511Y4502D01*
X4502Y4499D01*
X4492Y4496D01*
X4483Y4492D01*
X4474Y4488D01*
X4466Y4483D01*
X4458Y4477D01*
X4450Y4472D01*
X4442Y4465D01*
X4435Y4458D01*
X4428Y4451D01*
X4422Y4444D01*
X4416Y4436D01*
X4411Y4427D01*
X4406Y4419D01*
X4402Y4410D01*
X4398Y4400D01*
X4395Y4391D01*
X4393Y4382D01*
X4391Y4372D01*
X4628Y4548D02*
X4619Y4551D01*
X4609Y4554D01*
X4599Y4556D01*
X4590Y4558D01*
X4580Y4560D01*
X4570Y4561D01*
X4559Y4562D01*
X4549Y4562D01*
X4539Y4561D01*
X4529Y4561D01*
X4519Y4559D01*
X4509Y4558D01*
X4499Y4556D01*
X4490Y4553D01*
X4480Y4550D01*
X4471Y4546D01*
X4461Y4542D01*
X4452Y4538D01*
X4443Y4533D01*
X4435Y4528D01*
X4426Y4522D01*
X4418Y4516D01*
X4410Y4510D01*
X4403Y4503D01*
X4396Y4496D01*
X4389Y4489D01*
X4382Y4481D01*
X4376Y4473D01*
X4370Y4465D01*
X4365Y4457D01*
X4360Y4448D01*
X4355Y4439D01*
X4351Y4430D01*
X4347Y4420D01*
X4344Y4411D01*
X4341Y4401D01*
X4339Y4391D01*
X4337Y4381D01*
X4618Y4522D02*
X4609Y4526D01*
X4599Y4528D01*
X4589Y4531D01*
X4579Y4532D01*
X4569Y4534D01*
X4559Y4534D01*
X4549Y4534D01*
X4539Y4534D01*
X4529Y4533D01*
X4519Y4531D01*
X4509Y4529D01*
X4499Y4527D01*
X4489Y4524D01*
X4480Y4520D01*
X4470Y4516D01*
X4461Y4512D01*
X4453Y4507D01*
X4444Y4501D01*
X4436Y4495D01*
X4428Y4489D01*
X4420Y4482D01*
X4413Y4475D01*
X4406Y4467D01*
X4400Y4459D01*
X4394Y4451D01*
X4389Y4443D01*
X4384Y4434D01*
X4379Y4425D01*
X4375Y4416D01*
X4371Y4406D01*
X4368Y4396D01*
X4366Y4387D01*
X4364Y4377D01*
X5053Y3966D02*
X5061Y3972D01*
X5068Y3979D01*
X5075Y3986D01*
X5081Y3994D01*
X5087Y4002D01*
X5093Y4010D01*
X5099Y4018D01*
X5104Y4027D01*
X5108Y4036D01*
X5113Y4045D01*
X5116Y4054D01*
X5120Y4063D01*
X5123Y4073D01*
X5125Y4082D01*
X5128Y4092D01*
X5129Y4102D01*
X5130Y4112D01*
X5131Y4122D01*
X5131Y4132D01*
X5131Y4142D01*
X5131Y4151D01*
X5130Y4161D01*
X5128Y4171D01*
X5126Y4181D01*
X5124Y4191D01*
X5121Y4200D01*
X5118Y4210D01*
X5114Y4219D01*
X5110Y4228D01*
X5106Y4237D01*
X5101Y4246D01*
X5095Y4254D01*
X5090Y4262D01*
X5084Y4270D01*
X5077Y4278D01*
X5071Y4285D01*
X5064Y4292D01*
X5056Y4299D01*
X5048Y4305D01*
X5071Y3945D02*
X5078Y3952D01*
X5085Y3958D01*
X5092Y3966D01*
X5099Y3973D01*
X5105Y3981D01*
X5111Y3988D01*
X5117Y3997D01*
X5122Y4005D01*
X5127Y4013D01*
X5132Y4022D01*
X5136Y4031D01*
X5140Y4040D01*
X5144Y4049D01*
X5147Y4059D01*
X5150Y4068D01*
X5152Y4078D01*
X5154Y4088D01*
X5156Y4097D01*
X5157Y4107D01*
X5158Y4117D01*
X5158Y4127D01*
X5159Y4137D01*
X5158Y4147D01*
X5157Y4157D01*
X5156Y4167D01*
X5155Y4176D01*
X5153Y4186D01*
X5151Y4196D01*
X5148Y4205D01*
X5145Y4215D01*
X5141Y4224D01*
X5137Y4233D01*
X5133Y4242D01*
X5129Y4251D01*
X5124Y4260D01*
X5119Y4268D01*
X5113Y4276D01*
X5107Y4284D01*
X5101Y4292D01*
X5094Y4299D01*
X5087Y4307D01*
X5080Y4313D01*
X5073Y4320D01*
X5065Y4326D01*
X4371Y3579D02*
X4379Y3574D01*
X4388Y3570D01*
X4397Y3566D01*
X4406Y3563D01*
X4416Y3560D01*
X4425Y3557D01*
X4435Y3555D01*
X4444Y3553D01*
X4454Y3552D01*
X4464Y3551D01*
X4474Y3550D01*
X4484Y3551D01*
X4493Y3551D01*
X4503Y3552D01*
X4513Y3553D01*
X4523Y3555D01*
X4532Y3557D01*
X4542Y3560D01*
X4551Y3563D01*
X4560Y3566D01*
X4569Y3570D01*
X4578Y3575D01*
X4587Y3579D01*
X4595Y3584D01*
X4603Y3590D01*
X4611Y3595D01*
X4619Y3602D01*
X5036Y3987D02*
X5043Y3993D01*
X5050Y4000D01*
X5057Y4008D01*
X5063Y4015D01*
X5069Y4023D01*
X5075Y4032D01*
X5080Y4040D01*
X5085Y4049D01*
X5089Y4058D01*
X5092Y4068D01*
X5096Y4077D01*
X5098Y4087D01*
X5101Y4096D01*
X5102Y4106D01*
X5103Y4116D01*
X5104Y4126D01*
X5104Y4136D01*
X5104Y4146D01*
X5103Y4156D01*
X5101Y4166D01*
X5099Y4176D01*
X5097Y4186D01*
X5094Y4195D01*
X5091Y4204D01*
X5087Y4214D01*
X5082Y4223D01*
X5077Y4231D01*
X5072Y4240D01*
X5066Y4248D01*
X5060Y4256D01*
X5053Y4263D01*
X5046Y4270D01*
X5039Y4277D01*
X5032Y4284D01*
X4598Y4471D02*
X4589Y4474D01*
X4579Y4477D01*
X4569Y4479D01*
X4559Y4479D01*
X4550Y4480D01*
X4540Y4479D01*
X4530Y4478D01*
X4520Y4476D01*
X4511Y4473D01*
X4501Y4470D01*
X4492Y4466D01*
X4483Y4462D01*
X4475Y4456D01*
X4467Y4450D01*
X4460Y4444D01*
X4453Y4437D01*
X4446Y4430D01*
X4440Y4422D01*
X4435Y4413D01*
X4430Y4405D01*
X4426Y4396D01*
X4422Y4386D01*
X4420Y4377D01*
X4418Y4367D01*
X5065Y4326D02*
X5058Y4332D01*
X5050Y4339D01*
X5042Y4345D01*
X5034Y4351D01*
X5026Y4357D01*
X5018Y4363D01*
X5010Y4368D01*
X5002Y4374D01*
X4994Y4380D01*
X4986Y4386D01*
X4977Y4391D01*
X4969Y4397D01*
X4961Y4403D01*
X4953Y4408D01*
X4945Y4414D01*
X4936Y4419D01*
X4928Y4424D01*
X4919Y4430D01*
X4911Y4435D01*
X4903Y4440D01*
X4894Y4446D01*
X4886Y4451D01*
X4877Y4456D01*
X4869Y4461D01*
X4860Y4466D01*
X4851Y4471D01*
X4843Y4476D01*
X4834Y4480D01*
X4825Y4485D01*
X4817Y4490D01*
X4808Y4495D01*
X4799Y4499D01*
X4790Y4504D01*
X4781Y4508D01*
X4772Y4513D01*
X4764Y4517D01*
X4755Y4522D01*
X4746Y4526D01*
X4737Y4530D01*
X4728Y4534D01*
X4719Y4539D01*
X4710Y4543D01*
X4701Y4547D01*
X4691Y4551D01*
X4682Y4555D01*
X4673Y4559D01*
X4664Y4562D01*
X4655Y4566D01*
X4646Y4570D01*
X4636Y4574D01*
X4627Y4577D01*
X4588Y4446D02*
X4578Y4449D01*
X4569Y4451D01*
X4559Y4452D01*
X4549Y4452D01*
X4539Y4452D01*
X4529Y4450D01*
X4520Y4448D01*
X4510Y4444D01*
X4501Y4440D01*
X4493Y4435D01*
X4484Y4429D01*
X4477Y4423D01*
X4470Y4416D01*
X4464Y4408D01*
X4458Y4400D01*
X4454Y4391D01*
X4450Y4382D01*
X4447Y4372D01*
X4445Y4362D01*
X4578Y4420D02*
X4568Y4423D01*
X4558Y4425D01*
X4548Y4425D01*
X4538Y4424D01*
X4529Y4422D01*
X4519Y4418D01*
X4510Y4414D01*
X4502Y4408D01*
X4494Y4402D01*
X4488Y4394D01*
X4482Y4386D01*
X4477Y4377D01*
X4474Y4367D01*
X4472Y4358D01*
X4568Y4395D02*
X4558Y4397D01*
X4548Y4398D01*
X4538Y4396D01*
X4528Y4392D01*
X4519Y4387D01*
X4512Y4380D01*
X4506Y4372D01*
X4501Y4363D01*
X4499Y4353D01*
X4558Y4369D02*
X4547Y4370D01*
X4537Y4366D01*
X4529Y4358D01*
X4525Y4348D01*
X4964Y4198D02*
X4956Y4204D01*
X4948Y4210D01*
X4940Y4216D01*
X4932Y4222D01*
X4924Y4228D01*
X4916Y4234D01*
X4908Y4240D01*
X4900Y4246D01*
X4892Y4251D01*
X4884Y4257D01*
X4876Y4263D01*
X4867Y4268D01*
X4859Y4274D01*
X4851Y4279D01*
X4842Y4285D01*
X4834Y4290D01*
X4826Y4295D01*
X4817Y4300D01*
X4809Y4306D01*
X4800Y4311D01*
X4792Y4316D01*
X4783Y4321D01*
X4775Y4326D01*
X4766Y4331D01*
X4757Y4336D01*
X4749Y4340D01*
X4740Y4345D01*
X4731Y4350D01*
X4722Y4354D01*
X4714Y4359D01*
X4705Y4364D01*
X4696Y4368D01*
X4687Y4372D01*
X4678Y4377D01*
X4669Y4381D01*
X4660Y4385D01*
X4651Y4389D01*
X4642Y4393D01*
X4633Y4398D01*
X4624Y4402D01*
X4615Y4405D01*
X4606Y4409D01*
X4596Y4413D01*
X4587Y4417D01*
X4578Y4421D01*
X5032Y4284D02*
X5024Y4290D01*
X5016Y4296D01*
X5008Y4302D01*
X5000Y4308D01*
X4992Y4314D01*
X4984Y4320D01*
X4976Y4326D01*
X4968Y4332D01*
X4960Y4337D01*
X4951Y4343D01*
X4943Y4349D01*
X4935Y4354D01*
X4927Y4360D01*
X4918Y4366D01*
X4910Y4371D01*
X4902Y4377D01*
X4893Y4382D01*
X4885Y4387D01*
X4876Y4392D01*
X4868Y4398D01*
X4859Y4403D01*
X4851Y4408D01*
X4842Y4413D01*
X4834Y4418D01*
X4825Y4423D01*
X4816Y4428D01*
X4808Y4433D01*
X4799Y4438D01*
X4790Y4442D01*
X4781Y4447D01*
X4772Y4452D01*
X4764Y4456D01*
X4755Y4461D01*
X4746Y4465D01*
X4737Y4470D01*
X4728Y4474D01*
X4719Y4478D01*
X4710Y4483D01*
X4701Y4487D01*
X4692Y4491D01*
X4683Y4495D01*
X4674Y4499D01*
X4664Y4503D01*
X4655Y4507D01*
X4646Y4511D01*
X4637Y4515D01*
X4628Y4519D01*
X4618Y4522D01*
X5048Y4305D02*
X5041Y4311D01*
X5033Y4317D01*
X5025Y4323D01*
X5017Y4329D01*
X5009Y4335D01*
X5001Y4341D01*
X4993Y4347D01*
X4985Y4353D01*
X4977Y4359D01*
X4969Y4364D01*
X4961Y4370D01*
X4952Y4376D01*
X4944Y4381D01*
X4936Y4387D01*
X4928Y4392D01*
X4919Y4398D01*
X4911Y4403D01*
X4903Y4408D01*
X4894Y4414D01*
X4886Y4419D01*
X4877Y4424D01*
X4869Y4429D01*
X4860Y4434D01*
X4852Y4439D01*
X4843Y4444D01*
X4834Y4449D01*
X4826Y4454D01*
X4817Y4459D01*
X4808Y4464D01*
X4800Y4468D01*
X4791Y4473D01*
X4782Y4478D01*
X4773Y4482D01*
X4764Y4487D01*
X4755Y4491D01*
X4746Y4495D01*
X4738Y4500D01*
X4729Y4504D01*
X4720Y4508D01*
X4711Y4513D01*
X4702Y4517D01*
X4692Y4521D01*
X4683Y4525D01*
X4674Y4529D01*
X4665Y4533D01*
X4656Y4536D01*
X4647Y4540D01*
X4638Y4544D01*
X4628Y4548D01*
X4930Y4113D02*
X4936Y4120D01*
X4940Y4129D01*
X4939Y4139D01*
X4936Y4148D01*
X4930Y4155D01*
X4947Y4176D02*
X4939Y4183D01*
X4931Y4189D01*
X4923Y4195D01*
X4915Y4201D01*
X4907Y4207D01*
X4899Y4213D01*
X4891Y4219D01*
X4883Y4224D01*
X4875Y4230D01*
X4866Y4236D01*
X4858Y4241D01*
X4850Y4247D01*
X4842Y4252D01*
X4833Y4258D01*
X4825Y4263D01*
X4816Y4269D01*
X4808Y4274D01*
X4800Y4279D01*
X4791Y4284D01*
X4782Y4290D01*
X4774Y4295D01*
X4765Y4300D01*
X4757Y4305D01*
X4748Y4310D01*
X4739Y4314D01*
X4730Y4319D01*
X4722Y4324D01*
X4713Y4329D01*
X4704Y4333D01*
X4695Y4338D01*
X4686Y4342D01*
X4677Y4347D01*
X4668Y4351D01*
X4659Y4355D01*
X4650Y4360D01*
X4641Y4364D01*
X4632Y4368D01*
X4623Y4372D01*
X4614Y4376D01*
X4605Y4380D01*
X4596Y4384D01*
X4586Y4388D01*
X4577Y4391D01*
X4568Y4395D01*
X4930Y4155D02*
X4922Y4161D01*
X4914Y4167D01*
X4906Y4173D01*
X4898Y4179D01*
X4890Y4185D01*
X4882Y4191D01*
X4874Y4197D01*
X4865Y4203D01*
X4857Y4209D01*
X4849Y4214D01*
X4841Y4220D01*
X4832Y4226D01*
X4824Y4231D01*
X4816Y4237D01*
X4807Y4242D01*
X4799Y4248D01*
X4790Y4253D01*
X4782Y4258D01*
X4773Y4263D01*
X4765Y4268D01*
X4756Y4273D01*
X4747Y4278D01*
X4738Y4283D01*
X4730Y4288D01*
X4721Y4293D01*
X4712Y4298D01*
X4703Y4303D01*
X4694Y4307D01*
X4686Y4312D01*
X4677Y4316D01*
X4668Y4321D01*
X4659Y4325D01*
X4650Y4330D01*
X4641Y4334D01*
X4631Y4338D01*
X4622Y4342D01*
X4613Y4346D01*
X4604Y4350D01*
X4595Y4354D01*
X4586Y4358D01*
X4576Y4362D01*
X4567Y4366D01*
X4558Y4370D01*
X5460Y3296D02*
X5458Y3306D01*
X5456Y3316D01*
X5454Y3326D01*
X5451Y3335D01*
X5449Y3345D01*
X5447Y3355D01*
X5444Y3365D01*
X5442Y3374D01*
X5439Y3384D01*
X5436Y3394D01*
X5434Y3403D01*
X5431Y3413D01*
X5428Y3422D01*
X5425Y3432D01*
X5422Y3442D01*
X5419Y3451D01*
X5416Y3461D01*
X5413Y3470D01*
X5410Y3480D01*
X5406Y3489D01*
X5403Y3499D01*
X5400Y3508D01*
X5396Y3517D01*
X5393Y3527D01*
X5389Y3536D01*
X5385Y3545D01*
X5381Y3555D01*
X5378Y3564D01*
X5374Y3573D01*
X5370Y3582D01*
X5366Y3592D01*
X5362Y3601D01*
X5358Y3610D01*
X5354Y3619D01*
X5349Y3628D01*
X5345Y3637D01*
X5341Y3646D01*
X5336Y3655D01*
X5332Y3664D01*
X5327Y3673D01*
X5323Y3682D01*
X5318Y3691D01*
X5313Y3700D01*
X5487Y3302D02*
X5485Y3311D01*
X5483Y3321D01*
X5480Y3331D01*
X5478Y3341D01*
X5476Y3350D01*
X5474Y3360D01*
X5471Y3370D01*
X5469Y3379D01*
X5466Y3389D01*
X5463Y3399D01*
X5461Y3408D01*
X5458Y3418D01*
X5455Y3427D01*
X5452Y3437D01*
X5449Y3447D01*
X5446Y3456D01*
X5443Y3466D01*
X5440Y3475D01*
X5437Y3484D01*
X5434Y3494D01*
X5430Y3503D01*
X5427Y3513D01*
X5424Y3522D01*
X5420Y3531D01*
X5416Y3541D01*
X5413Y3550D01*
X5409Y3559D01*
X5405Y3568D01*
X5402Y3578D01*
X5398Y3587D01*
X5394Y3596D01*
X5390Y3605D01*
X5386Y3614D01*
X5382Y3623D01*
X5377Y3632D01*
X5373Y3642D01*
X5369Y3651D01*
X5365Y3659D01*
X5360Y3668D01*
X5356Y3677D01*
X5351Y3686D01*
X5347Y3695D01*
X5342Y3704D01*
X5337Y3713D01*
X5433Y3263D02*
X5443Y3265D01*
X5451Y3270D01*
X5457Y3277D01*
X5460Y3287D01*
X5460Y3296D01*
X5648Y3335D02*
X5645Y3345D01*
X5643Y3354D01*
X5641Y3364D01*
X5639Y3374D01*
X5637Y3383D01*
X5634Y3393D01*
X5632Y3403D01*
X5630Y3412D01*
X5627Y3422D01*
X5625Y3431D01*
X5622Y3441D01*
X5619Y3451D01*
X5617Y3460D01*
X5614Y3470D01*
X5611Y3479D01*
X5608Y3489D01*
X5605Y3498D01*
X5602Y3508D01*
X5599Y3517D01*
X5596Y3527D01*
X5593Y3536D01*
X5590Y3545D01*
X5586Y3555D01*
X5583Y3564D01*
X5580Y3573D01*
X5576Y3583D01*
X5573Y3592D01*
X5569Y3601D01*
X5565Y3611D01*
X5562Y3620D01*
X5558Y3629D01*
X5554Y3638D01*
X5550Y3647D01*
X5546Y3657D01*
X5543Y3666D01*
X5539Y3675D01*
X5534Y3684D01*
X5530Y3693D01*
X5526Y3702D01*
X5522Y3711D01*
X5518Y3720D01*
X5513Y3729D01*
X5509Y3738D01*
X5505Y3747D01*
X5500Y3755D01*
X5496Y3764D01*
X5491Y3773D01*
X5486Y3782D01*
X5482Y3791D01*
X5621Y3329D02*
X5619Y3339D01*
X5617Y3349D01*
X5614Y3359D01*
X5612Y3368D01*
X5610Y3378D01*
X5608Y3388D01*
X5605Y3397D01*
X5603Y3407D01*
X5600Y3417D01*
X5598Y3426D01*
X5595Y3436D01*
X5592Y3446D01*
X5590Y3455D01*
X5587Y3465D01*
X5584Y3474D01*
X5581Y3484D01*
X5578Y3493D01*
X5575Y3503D01*
X5572Y3512D01*
X5569Y3522D01*
X5566Y3531D01*
X5562Y3541D01*
X5559Y3550D01*
X5556Y3559D01*
X5552Y3569D01*
X5549Y3578D01*
X5545Y3587D01*
X5541Y3597D01*
X5538Y3606D01*
X5534Y3615D01*
X5530Y3625D01*
X5526Y3634D01*
X5523Y3643D01*
X5519Y3652D01*
X5515Y3661D01*
X5511Y3670D01*
X5506Y3679D01*
X5502Y3689D01*
X5498Y3698D01*
X5494Y3707D01*
X5489Y3716D01*
X5485Y3725D01*
X5481Y3733D01*
X5476Y3742D01*
X5472Y3751D01*
X5467Y3760D01*
X5462Y3769D01*
X5458Y3778D01*
X5514Y3307D02*
X5512Y3317D01*
X5509Y3327D01*
X5507Y3336D01*
X5505Y3346D01*
X5503Y3356D01*
X5500Y3365D01*
X5498Y3375D01*
X5496Y3385D01*
X5493Y3394D01*
X5490Y3404D01*
X5488Y3413D01*
X5485Y3423D01*
X5482Y3432D01*
X5479Y3442D01*
X5476Y3451D01*
X5474Y3461D01*
X5470Y3470D01*
X5467Y3480D01*
X5464Y3489D01*
X5461Y3499D01*
X5458Y3508D01*
X5454Y3517D01*
X5451Y3527D01*
X5448Y3536D01*
X5444Y3545D01*
X5440Y3555D01*
X5437Y3564D01*
X5433Y3573D01*
X5429Y3582D01*
X5426Y3591D01*
X5422Y3601D01*
X5418Y3610D01*
X5414Y3619D01*
X5410Y3628D01*
X5406Y3637D01*
X5401Y3646D01*
X5397Y3655D01*
X5393Y3664D01*
X5389Y3673D01*
X5384Y3682D01*
X5380Y3690D01*
X5375Y3699D01*
X5371Y3708D01*
X5366Y3717D01*
X5361Y3726D01*
X5313Y3700D02*
X5305Y3707D01*
X5295Y3710D01*
X5284Y3709D01*
X5275Y3704D01*
X5337Y3713D02*
X5331Y3721D01*
X5323Y3728D01*
X5314Y3733D01*
X5305Y3736D01*
X5295Y3738D01*
X5285Y3737D01*
X5275Y3735D01*
X5265Y3731D01*
X5257Y3725D01*
X5361Y3726D02*
X5356Y3734D01*
X5349Y3741D01*
X5341Y3748D01*
X5333Y3754D01*
X5324Y3758D01*
X5315Y3762D01*
X5305Y3764D01*
X5295Y3765D01*
X5285Y3765D01*
X5275Y3763D01*
X5265Y3761D01*
X5256Y3757D01*
X5247Y3752D01*
X5239Y3746D01*
X5385Y3739D02*
X5380Y3747D01*
X5374Y3755D01*
X5367Y3762D01*
X5359Y3769D01*
X5351Y3775D01*
X5343Y3780D01*
X5334Y3784D01*
X5325Y3787D01*
X5315Y3790D01*
X5305Y3792D01*
X5295Y3792D01*
X5285Y3792D01*
X5275Y3791D01*
X5266Y3789D01*
X5256Y3786D01*
X5247Y3783D01*
X5238Y3778D01*
X5230Y3773D01*
X5222Y3767D01*
X5674Y3340D02*
X5672Y3350D01*
X5670Y3360D01*
X5668Y3369D01*
X5666Y3379D01*
X5663Y3389D01*
X5661Y3398D01*
X5659Y3408D01*
X5656Y3418D01*
X5654Y3427D01*
X5651Y3437D01*
X5649Y3447D01*
X5646Y3456D01*
X5643Y3466D01*
X5640Y3475D01*
X5638Y3485D01*
X5635Y3494D01*
X5632Y3504D01*
X5629Y3513D01*
X5626Y3523D01*
X5623Y3532D01*
X5620Y3542D01*
X5616Y3551D01*
X5613Y3560D01*
X5610Y3570D01*
X5606Y3579D01*
X5603Y3588D01*
X5599Y3598D01*
X5596Y3607D01*
X5592Y3616D01*
X5589Y3625D01*
X5585Y3635D01*
X5581Y3644D01*
X5577Y3653D01*
X5574Y3662D01*
X5570Y3671D01*
X5566Y3680D01*
X5562Y3690D01*
X5558Y3699D01*
X5553Y3708D01*
X5549Y3717D01*
X5545Y3726D01*
X5541Y3735D01*
X5536Y3744D01*
X5532Y3752D01*
X5527Y3761D01*
X5523Y3770D01*
X5518Y3779D01*
X5514Y3788D01*
X5509Y3797D01*
X5504Y3805D01*
X5500Y3814D01*
X5409Y3752D02*
X5404Y3760D01*
X5398Y3768D01*
X5392Y3776D01*
X5385Y3783D01*
X5378Y3789D01*
X5370Y3795D01*
X5361Y3801D01*
X5353Y3805D01*
X5344Y3809D01*
X5334Y3813D01*
X5325Y3816D01*
X5315Y3818D01*
X5305Y3819D01*
X5296Y3820D01*
X5286Y3820D01*
X5276Y3819D01*
X5266Y3817D01*
X5256Y3815D01*
X5247Y3812D01*
X5238Y3809D01*
X5229Y3804D01*
X5220Y3799D01*
X5212Y3794D01*
X5204Y3788D01*
X5433Y3099D02*
X5443Y3099D01*
X5453Y3100D01*
X5463Y3101D01*
X5473Y3103D01*
X5482Y3106D01*
X5492Y3108D01*
X5501Y3112D01*
X5511Y3116D01*
X5520Y3120D01*
X5529Y3125D01*
X5537Y3130D01*
X5545Y3135D01*
X5553Y3142D01*
X5561Y3148D01*
X5568Y3155D01*
X5575Y3162D01*
X5582Y3170D01*
X5588Y3178D01*
X5593Y3186D01*
X5599Y3194D01*
X5603Y3203D01*
X5608Y3212D01*
X5612Y3221D01*
X5615Y3231D01*
X5618Y3240D01*
X5620Y3250D01*
X5622Y3260D01*
X5623Y3270D01*
X5624Y3280D01*
X5625Y3290D01*
X5624Y3300D01*
X5624Y3310D01*
X5622Y3319D01*
X5621Y3329D01*
X4661Y3214D02*
X4665Y3205D01*
X4669Y3196D01*
X4674Y3187D01*
X4678Y3179D01*
X4684Y3170D01*
X4689Y3162D01*
X4695Y3155D01*
X4701Y3147D01*
X4708Y3140D01*
X4715Y3133D01*
X4722Y3126D01*
X4730Y3120D01*
X4738Y3114D01*
X4746Y3108D01*
X4754Y3103D01*
X4762Y3098D01*
X4771Y3094D01*
X4780Y3090D01*
X4789Y3086D01*
X4799Y3083D01*
X4808Y3080D01*
X4817Y3078D01*
X4827Y3076D01*
X4837Y3074D01*
X4847Y3073D01*
X4856Y3072D01*
X4866Y3072D01*
X5433Y3045D02*
X5443Y3045D01*
X5453Y3046D01*
X5463Y3046D01*
X5473Y3048D01*
X5482Y3050D01*
X5492Y3052D01*
X5502Y3054D01*
X5511Y3057D01*
X5520Y3061D01*
X5530Y3064D01*
X5539Y3068D01*
X5548Y3073D01*
X5556Y3078D01*
X5565Y3083D01*
X5573Y3088D01*
X5581Y3094D01*
X5589Y3100D01*
X5596Y3107D01*
X5604Y3113D01*
X5611Y3120D01*
X5617Y3128D01*
X5624Y3135D01*
X5630Y3143D01*
X5636Y3151D01*
X5641Y3159D01*
X5646Y3168D01*
X5651Y3177D01*
X5655Y3185D01*
X5660Y3194D01*
X5663Y3204D01*
X5667Y3213D01*
X5669Y3223D01*
X5672Y3232D01*
X5674Y3242D01*
X5676Y3252D01*
X5677Y3261D01*
X5678Y3271D01*
X5679Y3281D01*
X5679Y3291D01*
X5679Y3301D01*
X5678Y3311D01*
X5677Y3321D01*
X5676Y3330D01*
X5674Y3340D01*
X5433Y3072D02*
X5443Y3072D01*
X5453Y3073D01*
X5463Y3074D01*
X5473Y3075D01*
X5482Y3077D01*
X5492Y3080D01*
X5502Y3083D01*
X5511Y3086D01*
X5520Y3090D01*
X5529Y3094D01*
X5538Y3099D01*
X5547Y3104D01*
X5555Y3109D01*
X5563Y3115D01*
X5571Y3121D01*
X5579Y3127D01*
X5586Y3134D01*
X5593Y3141D01*
X5600Y3149D01*
X5606Y3156D01*
X5612Y3164D01*
X5617Y3172D01*
X5623Y3181D01*
X5627Y3190D01*
X5632Y3199D01*
X5636Y3208D01*
X5639Y3217D01*
X5642Y3227D01*
X5645Y3236D01*
X5647Y3246D01*
X5649Y3256D01*
X5651Y3265D01*
X5651Y3275D01*
X5652Y3285D01*
X5652Y3295D01*
X5652Y3305D01*
X5651Y3315D01*
X5649Y3325D01*
X5648Y3335D01*
X5458Y3778D02*
X5452Y3786D01*
X5447Y3795D01*
X5441Y3803D01*
X5434Y3811D01*
X5427Y3818D01*
X5420Y3825D01*
X5412Y3832D01*
X5404Y3838D01*
X5396Y3844D01*
X5387Y3849D01*
X5378Y3854D01*
X5369Y3858D01*
X5360Y3862D01*
X5350Y3865D01*
X5340Y3868D01*
X5330Y3870D01*
X5321Y3872D01*
X5310Y3874D01*
X5300Y3874D01*
X5290Y3874D01*
X5280Y3874D01*
X5270Y3873D01*
X5260Y3872D01*
X5250Y3870D01*
X5240Y3867D01*
X5231Y3864D01*
X5221Y3861D01*
X5212Y3857D01*
X5203Y3852D01*
X5194Y3847D01*
X5185Y3842D01*
X5177Y3836D01*
X5169Y3830D01*
X5482Y3791D02*
X5476Y3799D01*
X5471Y3808D01*
X5465Y3816D01*
X5459Y3824D01*
X5452Y3831D01*
X5445Y3839D01*
X5438Y3846D01*
X5430Y3852D01*
X5422Y3858D01*
X5414Y3864D01*
X5406Y3870D01*
X5397Y3875D01*
X5388Y3880D01*
X5379Y3884D01*
X5369Y3888D01*
X5360Y3891D01*
X5350Y3894D01*
X5341Y3896D01*
X5331Y3898D01*
X5321Y3900D01*
X5311Y3901D01*
X5301Y3902D01*
X5291Y3902D01*
X5280Y3902D01*
X5270Y3901D01*
X5260Y3900D01*
X5250Y3898D01*
X5241Y3896D01*
X5231Y3893D01*
X5221Y3890D01*
X5212Y3887D01*
X5203Y3883D01*
X5193Y3878D01*
X5185Y3874D01*
X5176Y3868D01*
X5167Y3863D01*
X5159Y3857D01*
X5151Y3851D01*
X5433Y3765D02*
X5428Y3773D01*
X5423Y3781D01*
X5417Y3789D01*
X5410Y3796D01*
X5403Y3803D01*
X5396Y3810D01*
X5388Y3816D01*
X5380Y3821D01*
X5371Y3826D01*
X5362Y3831D01*
X5353Y3835D01*
X5344Y3839D01*
X5335Y3841D01*
X5325Y3844D01*
X5316Y3845D01*
X5306Y3847D01*
X5296Y3847D01*
X5286Y3847D01*
X5276Y3846D01*
X5266Y3845D01*
X5257Y3843D01*
X5247Y3841D01*
X5238Y3838D01*
X5229Y3834D01*
X5220Y3830D01*
X5211Y3826D01*
X5202Y3821D01*
X5194Y3815D01*
X5187Y3809D01*
X5503Y3810D02*
X5497Y3819D01*
X5492Y3827D01*
X5486Y3835D01*
X5479Y3843D01*
X5472Y3851D01*
X5465Y3858D01*
X5458Y3865D01*
X5450Y3872D01*
X5443Y3878D01*
X5434Y3884D01*
X5426Y3890D01*
X5417Y3895D01*
X5409Y3900D01*
X5400Y3905D01*
X5390Y3909D01*
X5381Y3913D01*
X5372Y3916D01*
X5362Y3919D01*
X5352Y3922D01*
X5342Y3924D01*
X5332Y3926D01*
X5322Y3927D01*
X5312Y3928D01*
X5302Y3929D01*
X5292Y3929D01*
X5282Y3929D01*
X5272Y3928D01*
X5262Y3927D01*
X5252Y3926D01*
X5242Y3924D01*
X5232Y3922D01*
X5222Y3919D01*
X5213Y3916D01*
X5203Y3913D01*
X5194Y3909D01*
X5185Y3905D01*
X5176Y3900D01*
X5167Y3895D01*
X5158Y3890D01*
X5150Y3884D01*
X5142Y3878D01*
X5134Y3872D01*
X5433Y3154D02*
X5443Y3154D01*
X5453Y3155D01*
X5463Y3157D01*
X5473Y3160D01*
X5483Y3163D01*
X5492Y3167D01*
X5501Y3172D01*
X5509Y3177D01*
X5518Y3183D01*
X5525Y3190D01*
X5532Y3197D01*
X5539Y3204D01*
X5545Y3212D01*
X5551Y3221D01*
X5556Y3230D01*
X5560Y3239D01*
X5563Y3248D01*
X5566Y3258D01*
X5568Y3268D01*
X5569Y3278D01*
X5570Y3288D01*
X5570Y3298D01*
X5569Y3308D01*
X5567Y3318D01*
X5433Y3181D02*
X5443Y3182D01*
X5453Y3183D01*
X5463Y3185D01*
X5473Y3189D01*
X5482Y3193D01*
X5491Y3198D01*
X5500Y3204D01*
X5507Y3210D01*
X5515Y3218D01*
X5521Y3226D01*
X5527Y3234D01*
X5532Y3243D01*
X5536Y3252D01*
X5539Y3262D01*
X5541Y3272D01*
X5542Y3282D01*
X5543Y3292D01*
X5542Y3303D01*
X5540Y3313D01*
X5433Y3209D02*
X5443Y3209D01*
X5452Y3211D01*
X5462Y3214D01*
X5471Y3218D01*
X5479Y3223D01*
X5487Y3228D01*
X5494Y3235D01*
X5500Y3243D01*
X5505Y3251D01*
X5509Y3260D01*
X5512Y3269D01*
X5514Y3278D01*
X5515Y3288D01*
X5515Y3298D01*
X5514Y3307D01*
X5433Y3236D02*
X5443Y3237D01*
X5452Y3239D01*
X5461Y3243D01*
X5469Y3249D01*
X5476Y3256D01*
X5481Y3264D01*
X5485Y3273D01*
X5487Y3282D01*
X5488Y3292D01*
X5487Y3302D01*
X5433Y3127D02*
X5443Y3127D01*
X5453Y3128D01*
X5463Y3129D01*
X5473Y3131D01*
X5482Y3134D01*
X5492Y3137D01*
X5501Y3141D01*
X5510Y3146D01*
X5519Y3151D01*
X5527Y3156D01*
X5535Y3162D01*
X5543Y3169D01*
X5550Y3176D01*
X5557Y3183D01*
X5563Y3191D01*
X5569Y3199D01*
X5575Y3208D01*
X5579Y3216D01*
X5584Y3225D01*
X5587Y3235D01*
X5591Y3244D01*
X5593Y3254D01*
X5595Y3264D01*
X5596Y3274D01*
X5597Y3284D01*
X5597Y3294D01*
X5597Y3304D01*
X5596Y3314D01*
X5594Y3324D01*
X4865Y3295D02*
X4870Y3291D01*
X5428D02*
X5433Y3299D01*
X5433D02*
X5431Y3309D01*
X5429Y3319D01*
X5426Y3329D01*
X5424Y3339D01*
X5422Y3349D01*
X5419Y3358D01*
X5417Y3368D01*
X5414Y3378D01*
X5411Y3388D01*
X5409Y3398D01*
X5406Y3408D01*
X5403Y3418D01*
X5400Y3427D01*
X5397Y3437D01*
X5394Y3447D01*
X5390Y3456D01*
X5387Y3466D01*
X5384Y3476D01*
X5380Y3485D01*
X5377Y3495D01*
X5594Y3324D02*
X5592Y3334D01*
X5590Y3343D01*
X5588Y3353D01*
X5585Y3363D01*
X5583Y3373D01*
X5581Y3382D01*
X5578Y3392D01*
X5576Y3402D01*
X5573Y3412D01*
X5571Y3421D01*
X5568Y3431D01*
X5565Y3441D01*
X5563Y3450D01*
X5560Y3460D01*
X5557Y3469D01*
X5554Y3479D01*
X5551Y3488D01*
X5548Y3498D01*
X5545Y3508D01*
X5541Y3517D01*
X5538Y3526D01*
X5535Y3536D01*
X5532Y3545D01*
X5528Y3555D01*
X5525Y3564D01*
X5521Y3574D01*
X5517Y3583D01*
X5514Y3592D01*
X5510Y3602D01*
X5506Y3611D01*
X5502Y3620D01*
X5499Y3629D01*
X5495Y3639D01*
X5491Y3648D01*
X5487Y3657D01*
X5482Y3666D01*
X5478Y3675D01*
X5474Y3684D01*
X5470Y3693D01*
X5465Y3702D01*
X5461Y3711D01*
X5457Y3720D01*
X5452Y3729D01*
X5448Y3738D01*
X5443Y3747D01*
X5438Y3756D01*
X5433Y3765D01*
X5567Y3318D02*
X5565Y3328D01*
X5563Y3338D01*
X5561Y3348D01*
X5559Y3358D01*
X5556Y3367D01*
X5554Y3377D01*
X5551Y3387D01*
X5549Y3397D01*
X5546Y3406D01*
X5544Y3416D01*
X5541Y3426D01*
X5538Y3435D01*
X5536Y3445D01*
X5533Y3455D01*
X5530Y3464D01*
X5527Y3474D01*
X5524Y3484D01*
X5521Y3493D01*
X5517Y3503D01*
X5514Y3512D01*
X5511Y3522D01*
X5508Y3531D01*
X5504Y3541D01*
X5501Y3550D01*
X5497Y3560D01*
X5494Y3569D01*
X5490Y3578D01*
X5486Y3588D01*
X5482Y3597D01*
X5479Y3606D01*
X5475Y3616D01*
X5471Y3625D01*
X5467Y3634D01*
X5463Y3643D01*
X5459Y3653D01*
X5454Y3662D01*
X5450Y3671D01*
X5446Y3680D01*
X5441Y3689D01*
X5437Y3698D01*
X5433Y3707D01*
X5428Y3716D01*
X5423Y3725D01*
X5419Y3734D01*
X5414Y3743D01*
X5409Y3752D01*
X5540Y3313D02*
X5538Y3323D01*
X5536Y3333D01*
X5534Y3342D01*
X5532Y3352D01*
X5529Y3362D01*
X5527Y3372D01*
X5525Y3382D01*
X5522Y3391D01*
X5519Y3401D01*
X5517Y3411D01*
X5514Y3421D01*
X5511Y3430D01*
X5508Y3440D01*
X5506Y3450D01*
X5503Y3460D01*
X5500Y3469D01*
X5496Y3479D01*
X5493Y3488D01*
X5490Y3498D01*
X5487Y3508D01*
X5484Y3517D01*
X5480Y3527D01*
X5477Y3536D01*
X5473Y3546D01*
X5470Y3555D01*
X5466Y3564D01*
X5462Y3574D01*
X5458Y3583D01*
X5455Y3593D01*
X5451Y3602D01*
X5447Y3611D01*
X5443Y3621D01*
X5439Y3630D01*
X5435Y3639D01*
X5430Y3648D01*
X5426Y3657D01*
X5422Y3667D01*
X5418Y3676D01*
X5413Y3685D01*
X5409Y3694D01*
X5404Y3703D01*
X5399Y3712D01*
X5395Y3721D01*
X5390Y3730D01*
X5385Y3739D01*
X4844Y3378D02*
X4837Y3371D01*
X4832Y3364D01*
X4828Y3355D01*
X4825Y3346D01*
X4824Y3337D01*
X4825Y3327D01*
X4827Y3318D01*
X4686Y3223D02*
X4690Y3213D01*
X4694Y3204D01*
X4699Y3195D01*
X4704Y3187D01*
X4710Y3179D01*
X4716Y3171D01*
X4722Y3163D01*
X4729Y3156D01*
X4736Y3149D01*
X4744Y3142D01*
X4752Y3136D01*
X4760Y3130D01*
X4769Y3125D01*
X4778Y3120D01*
X4787Y3116D01*
X4796Y3112D01*
X4805Y3109D01*
X4815Y3106D01*
X4825Y3104D01*
X4835Y3102D01*
X4845Y3100D01*
X4855Y3100D01*
X4865Y3099D01*
X4713Y3233D02*
X4716Y3224D01*
X4721Y3215D01*
X4726Y3206D01*
X4731Y3198D01*
X4737Y3190D01*
X4743Y3182D01*
X4750Y3175D01*
X4757Y3168D01*
X4765Y3162D01*
X4773Y3156D01*
X4781Y3151D01*
X4790Y3146D01*
X4799Y3141D01*
X4808Y3137D01*
X4817Y3134D01*
X4827Y3131D01*
X4837Y3129D01*
X4846Y3128D01*
X4856Y3127D01*
X4866Y3127D01*
X4738Y3243D02*
X4742Y3234D01*
X4746Y3225D01*
X4751Y3217D01*
X4757Y3209D01*
X4763Y3201D01*
X4770Y3194D01*
X4777Y3187D01*
X4784Y3181D01*
X4792Y3176D01*
X4801Y3171D01*
X4809Y3166D01*
X4818Y3163D01*
X4828Y3160D01*
X4837Y3157D01*
X4847Y3155D01*
X4856Y3154D01*
X4866Y3154D01*
X4764Y3252D02*
X4768Y3243D01*
X4773Y3234D01*
X4778Y3226D01*
X4785Y3218D01*
X4792Y3210D01*
X4800Y3204D01*
X4808Y3198D01*
X4817Y3193D01*
X4826Y3189D01*
X4836Y3186D01*
X4846Y3183D01*
X4856Y3182D01*
X4866Y3181D01*
X4789Y3262D02*
X4793Y3253D01*
X4799Y3244D01*
X4805Y3237D01*
X4812Y3229D01*
X4819Y3223D01*
X4828Y3218D01*
X4837Y3214D01*
X4846Y3211D01*
X4856Y3209D01*
X4866Y3209D01*
X4815Y3272D02*
X4819Y3263D01*
X4825Y3255D01*
X4831Y3249D01*
X4839Y3243D01*
X4848Y3239D01*
X4857Y3237D01*
X4866Y3236D01*
X4841Y3281D02*
X4846Y3272D01*
X4855Y3266D01*
X4866Y3263D01*
X4635Y3305D02*
X4636Y3294D01*
X4638Y3284D01*
X4641Y3274D01*
X4643Y3264D01*
X4647Y3254D01*
X4826Y3399D02*
X4819Y3392D01*
X4813Y3385D01*
X4807Y3376D01*
X4803Y3367D01*
X4800Y3358D01*
X4798Y3348D01*
X4797Y3338D01*
X4797Y3328D01*
X4799Y3318D01*
X4801Y3309D01*
X4809Y3420D02*
X4801Y3413D01*
X4794Y3406D01*
X4788Y3397D01*
X4783Y3389D01*
X4778Y3379D01*
X4775Y3370D01*
X4772Y3360D01*
X4770Y3350D01*
X4769Y3340D01*
X4770Y3330D01*
X4771Y3320D01*
X4773Y3310D01*
X4776Y3300D01*
X4791Y3441D02*
X4784Y3434D01*
X4777Y3427D01*
X4771Y3420D01*
X4765Y3412D01*
X4760Y3404D01*
X4755Y3395D01*
X4751Y3386D01*
X4748Y3377D01*
X4746Y3368D01*
X4744Y3358D01*
X4743Y3348D01*
X4742Y3339D01*
X4742Y3329D01*
X4743Y3319D01*
X4745Y3309D01*
X4747Y3300D01*
X4750Y3291D01*
X4773Y3462D02*
X4766Y3455D01*
X4759Y3448D01*
X4752Y3441D01*
X4746Y3433D01*
X4741Y3425D01*
X4736Y3416D01*
X4731Y3407D01*
X4727Y3398D01*
X4723Y3389D01*
X4721Y3379D01*
X4718Y3370D01*
X4716Y3360D01*
X4715Y3350D01*
X4715Y3340D01*
X4715Y3330D01*
X4716Y3320D01*
X4717Y3310D01*
X4719Y3301D01*
X4721Y3291D01*
X4724Y3281D01*
X4756Y3483D02*
X4748Y3476D01*
X4741Y3469D01*
X4734Y3462D01*
X4728Y3454D01*
X4722Y3446D01*
X4716Y3437D01*
X4711Y3429D01*
X4707Y3420D01*
X4702Y3410D01*
X4699Y3401D01*
X4696Y3391D01*
X4693Y3382D01*
X4691Y3372D01*
X4689Y3362D01*
X4688Y3352D01*
X4687Y3342D01*
X4687Y3332D01*
X4688Y3322D01*
X4689Y3312D01*
X4691Y3302D01*
X4693Y3292D01*
X4695Y3282D01*
X4698Y3272D01*
X4738Y3504D02*
X4731Y3497D01*
X4724Y3491D01*
X4717Y3483D01*
X4710Y3476D01*
X4704Y3468D01*
X4699Y3460D01*
X4693Y3452D01*
X4688Y3444D01*
X4684Y3435D01*
X4679Y3426D01*
X4676Y3417D01*
X4672Y3408D01*
X4669Y3399D01*
X4666Y3389D01*
X4664Y3379D01*
X4663Y3370D01*
X4661Y3360D01*
X4660Y3350D01*
X4660Y3340D01*
X4660Y3331D01*
X4661Y3321D01*
X4661Y3311D01*
X4663Y3301D01*
X4665Y3292D01*
X4667Y3282D01*
X4669Y3273D01*
X4673Y3263D01*
X4861Y3357D02*
X4854Y3349D01*
X4852Y3338D01*
X4853Y3327D01*
X4721Y3525D02*
X4713Y3518D01*
X4706Y3511D01*
X4699Y3504D01*
X4692Y3497D01*
X4686Y3489D01*
X4680Y3481D01*
X4674Y3472D01*
X4668Y3464D01*
X4663Y3455D01*
X4659Y3446D01*
X4654Y3437D01*
X4650Y3428D01*
X4647Y3419D01*
X4644Y3409D01*
X4641Y3399D01*
X4638Y3390D01*
X4637Y3380D01*
X4635Y3370D01*
X4634Y3360D01*
X4633Y3350D01*
X4633Y3340D01*
X4633Y3330D01*
X4633Y3319D01*
X4634Y3309D01*
X4654Y3168D02*
X4659Y3159D01*
X4665Y3151D01*
X4671Y3143D01*
X4677Y3135D01*
X4683Y3128D01*
X4690Y3120D01*
X4697Y3113D01*
X4704Y3107D01*
X4712Y3100D01*
X4719Y3094D01*
X4727Y3088D01*
X4736Y3083D01*
X4744Y3078D01*
X4753Y3073D01*
X4762Y3069D01*
X4771Y3065D01*
X4780Y3061D01*
X4789Y3058D01*
X4799Y3055D01*
X4808Y3052D01*
X4818Y3050D01*
X4828Y3048D01*
X4837Y3047D01*
X4847Y3046D01*
X4857Y3045D01*
X4867Y3045D01*
X4613Y2719D02*
X4611Y2709D01*
X4610Y2700D01*
X4609Y2690D01*
X4609Y2680D01*
X4609Y2670D01*
X4610Y2660D01*
X4611Y2650D01*
X4612Y2640D01*
X4613Y2631D01*
X4616Y2621D01*
X4618Y2611D01*
X4621Y2602D01*
X4624Y2593D01*
X4628Y2583D01*
X4631Y2574D01*
X4636Y2565D01*
X4640Y2557D01*
X4645Y2548D01*
X4651Y2540D01*
X4656Y2532D01*
X4662Y2524D01*
X4669Y2516D01*
X4675Y2509D01*
X4682Y2502D01*
X4689Y2495D01*
X4697Y2488D01*
X4893Y2950D02*
X4883Y2950D01*
X4873Y2949D01*
X4863Y2948D01*
X4853Y2947D01*
X4843Y2945D01*
X4833Y2943D01*
X4824Y2940D01*
X4814Y2937D01*
X4805Y2934D01*
X4795Y2930D01*
X4786Y2926D01*
X4777Y2921D01*
X4768Y2916D01*
X4760Y2911D01*
X4752Y2905D01*
X4743Y2899D01*
X4736Y2893D01*
X4728Y2886D01*
X4721Y2879D01*
X4714Y2872D01*
X4707Y2865D01*
X4700Y2857D01*
X4694Y2849D01*
X4689Y2841D01*
X4893Y2731D02*
X4883Y2729D01*
X4874Y2723D01*
X4868Y2714D01*
X4893Y2923D02*
X4883Y2923D01*
X4874Y2922D01*
X4864Y2921D01*
X4854Y2919D01*
X4845Y2917D01*
X4835Y2915D01*
X4826Y2912D01*
X4816Y2909D01*
X4807Y2905D01*
X4798Y2901D01*
X4790Y2897D01*
X4781Y2892D01*
X4773Y2887D01*
X4765Y2881D01*
X4757Y2875D01*
X4749Y2869D01*
X4742Y2862D01*
X4735Y2855D01*
X4728Y2848D01*
X4722Y2840D01*
X4716Y2832D01*
X4711Y2824D01*
X4705Y2816D01*
X4700Y2807D01*
X4696Y2799D01*
X4692Y2790D01*
X4688Y2781D01*
X4893Y2895D02*
X4883Y2895D01*
X4873Y2894D01*
X4863Y2893D01*
X4853Y2891D01*
X4843Y2889D01*
X4834Y2886D01*
X4824Y2883D01*
X4815Y2879D01*
X4806Y2874D01*
X4797Y2869D01*
X4788Y2864D01*
X4780Y2858D01*
X4772Y2852D01*
X4764Y2846D01*
X4757Y2839D01*
X4750Y2831D01*
X4744Y2824D01*
X4738Y2815D01*
X4732Y2807D01*
X4727Y2798D01*
X4722Y2790D01*
X4718Y2780D01*
X4714Y2771D01*
X4893Y2868D02*
X4883Y2868D01*
X4873Y2867D01*
X4864Y2865D01*
X4854Y2863D01*
X4844Y2861D01*
X4835Y2857D01*
X4826Y2853D01*
X4817Y2849D01*
X4808Y2844D01*
X4800Y2839D01*
X4792Y2833D01*
X4784Y2826D01*
X4777Y2820D01*
X4770Y2812D01*
X4764Y2805D01*
X4758Y2797D01*
X4753Y2788D01*
X4748Y2780D01*
X4743Y2771D01*
X4740Y2761D01*
X4893Y2841D02*
X4884Y2840D01*
X4874Y2839D01*
X4864Y2838D01*
X4855Y2835D01*
X4846Y2832D01*
X4837Y2828D01*
X4828Y2824D01*
X4819Y2819D01*
X4811Y2813D01*
X4804Y2807D01*
X4797Y2801D01*
X4790Y2794D01*
X4784Y2786D01*
X4778Y2778D01*
X4773Y2770D01*
X4769Y2761D01*
X4765Y2752D01*
X4893Y2813D02*
X4883Y2813D01*
X4873Y2811D01*
X4863Y2809D01*
X4853Y2806D01*
X4844Y2802D01*
X4835Y2797D01*
X4827Y2791D01*
X4819Y2784D01*
X4812Y2777D01*
X4805Y2769D01*
X4800Y2761D01*
X4795Y2752D01*
X4791Y2742D01*
X4893Y2786D02*
X4883Y2785D01*
X4874Y2784D01*
X4864Y2781D01*
X4855Y2777D01*
X4847Y2771D01*
X4839Y2765D01*
X4832Y2758D01*
X4826Y2750D01*
X4820Y2742D01*
X4816Y2733D01*
X4686Y2837D02*
X4681Y2828D01*
X4675Y2819D01*
X4671Y2809D01*
X4667Y2800D01*
X4663Y2790D01*
X4829Y2686D02*
X4827Y2675D01*
X4830Y2665D01*
X4837Y2656D01*
X4803Y2695D02*
X4800Y2686D01*
X4800Y2677D01*
X4801Y2667D01*
X4803Y2658D01*
X4807Y2650D01*
X4812Y2642D01*
X4819Y2635D01*
X4777Y2705D02*
X4774Y2695D01*
X4773Y2685D01*
X4772Y2675D01*
X4773Y2665D01*
X4775Y2656D01*
X4778Y2646D01*
X4783Y2637D01*
X4788Y2629D01*
X4794Y2621D01*
X4802Y2614D01*
X4751Y2714D02*
X4748Y2704D01*
X4746Y2694D01*
X4745Y2684D01*
X4745Y2674D01*
X4746Y2663D01*
X4748Y2653D01*
X4750Y2644D01*
X4754Y2634D01*
X4758Y2625D01*
X4764Y2616D01*
X4770Y2608D01*
X4777Y2600D01*
X4784Y2593D01*
X4725Y2723D02*
X4723Y2713D01*
X4720Y2704D01*
X4719Y2694D01*
X4718Y2685D01*
X4718Y2675D01*
X4718Y2665D01*
X4719Y2656D01*
X4721Y2646D01*
X4724Y2637D01*
X4727Y2627D01*
X4731Y2618D01*
X4735Y2610D01*
X4741Y2601D01*
X4746Y2594D01*
X4752Y2586D01*
X4759Y2579D01*
X4766Y2572D01*
X4700Y2732D02*
X4697Y2722D01*
X4694Y2713D01*
X4692Y2703D01*
X4691Y2693D01*
X4690Y2683D01*
X4690Y2673D01*
X4691Y2663D01*
X4692Y2653D01*
X4694Y2644D01*
X4696Y2634D01*
X4699Y2625D01*
X4702Y2615D01*
X4707Y2606D01*
X4711Y2597D01*
X4716Y2589D01*
X4722Y2581D01*
X4728Y2573D01*
X4734Y2565D01*
X4741Y2558D01*
X4749Y2552D01*
X4673Y2741D02*
X4670Y2731D01*
X4667Y2722D01*
X4665Y2712D01*
X4663Y2702D01*
X4662Y2692D01*
X4662Y2682D01*
X4662Y2672D01*
X4663Y2662D01*
X4664Y2652D01*
X4665Y2642D01*
X4667Y2632D01*
X4670Y2622D01*
X4673Y2613D01*
X4677Y2604D01*
X4681Y2594D01*
X4686Y2586D01*
X4691Y2577D01*
X4696Y2569D01*
X4702Y2560D01*
X4709Y2553D01*
X4715Y2545D01*
X4723Y2538D01*
X4730Y2532D01*
X4893Y2759D02*
X4884Y2758D01*
X4875Y2755D01*
X4866Y2751D01*
X4858Y2746D01*
X4852Y2739D01*
X4846Y2732D01*
X4842Y2723D01*
X5385Y2261D02*
X5390Y2270D01*
X5394Y2279D01*
X5399Y2288D01*
X5404Y2297D01*
X5408Y2306D01*
X5413Y2315D01*
X5417Y2324D01*
X5421Y2333D01*
X5426Y2342D01*
X5430Y2351D01*
X5434Y2360D01*
X5438Y2370D01*
X5442Y2379D01*
X5446Y2388D01*
X5450Y2397D01*
X5454Y2407D01*
X5458Y2416D01*
X5462Y2426D01*
X5466Y2435D01*
X5469Y2444D01*
X5473Y2454D01*
X5476Y2463D01*
X5480Y2473D01*
X5483Y2482D01*
X5486Y2492D01*
X5490Y2501D01*
X5493Y2511D01*
X5496Y2521D01*
X5499Y2530D01*
X5502Y2540D01*
X5505Y2550D01*
X5508Y2559D01*
X5511Y2569D01*
X5514Y2579D01*
X5516Y2588D01*
X5519Y2598D01*
X5522Y2608D01*
X5524Y2618D01*
X5527Y2628D01*
X5529Y2637D01*
X5531Y2647D01*
X5534Y2657D01*
X5536Y2667D01*
X5538Y2677D01*
X5540Y2687D01*
X5409Y2248D02*
X5414Y2257D01*
X5418Y2266D01*
X5423Y2274D01*
X5428Y2283D01*
X5432Y2292D01*
X5437Y2301D01*
X5441Y2310D01*
X5445Y2320D01*
X5450Y2329D01*
X5454Y2338D01*
X5458Y2347D01*
X5462Y2356D01*
X5466Y2365D01*
X5470Y2375D01*
X5474Y2384D01*
X5478Y2393D01*
X5482Y2402D01*
X5486Y2412D01*
X5489Y2421D01*
X5493Y2430D01*
X5497Y2440D01*
X5500Y2449D01*
X5504Y2459D01*
X5507Y2468D01*
X5510Y2478D01*
X5514Y2487D01*
X5517Y2497D01*
X5520Y2506D01*
X5523Y2516D01*
X5526Y2525D01*
X5529Y2535D01*
X5532Y2545D01*
X5535Y2554D01*
X5538Y2564D01*
X5541Y2574D01*
X5543Y2583D01*
X5546Y2593D01*
X5549Y2603D01*
X5551Y2613D01*
X5553Y2622D01*
X5556Y2632D01*
X5558Y2642D01*
X5560Y2652D01*
X5563Y2661D01*
X5565Y2671D01*
X5567Y2681D01*
X5433Y2235D02*
X5438Y2244D01*
X5442Y2252D01*
X5447Y2261D01*
X5452Y2270D01*
X5456Y2279D01*
X5461Y2288D01*
X5465Y2297D01*
X5469Y2306D01*
X5474Y2315D01*
X5478Y2324D01*
X5482Y2333D01*
X5486Y2343D01*
X5490Y2352D01*
X5494Y2361D01*
X5498Y2370D01*
X5502Y2379D01*
X5506Y2389D01*
X5510Y2398D01*
X5513Y2407D01*
X5517Y2416D01*
X5521Y2426D01*
X5524Y2435D01*
X5528Y2445D01*
X5531Y2454D01*
X5535Y2463D01*
X5538Y2473D01*
X5541Y2482D01*
X5544Y2492D01*
X5547Y2501D01*
X5550Y2511D01*
X5553Y2520D01*
X5556Y2530D01*
X5559Y2540D01*
X5562Y2549D01*
X5565Y2559D01*
X5568Y2569D01*
X5570Y2578D01*
X5573Y2588D01*
X5575Y2598D01*
X5578Y2607D01*
X5580Y2617D01*
X5583Y2627D01*
X5585Y2636D01*
X5587Y2646D01*
X5589Y2656D01*
X5591Y2666D01*
X5594Y2676D01*
X5294Y2319D02*
X5299Y2328D01*
X5303Y2337D01*
X5308Y2346D01*
X5313Y2355D01*
X5317Y2364D01*
X5322Y2374D01*
X5326Y2383D01*
X5330Y2392D01*
X5334Y2401D01*
X5339Y2411D01*
X5343Y2420D01*
X5347Y2429D01*
X5351Y2439D01*
X5355Y2448D01*
X5359Y2458D01*
X5362Y2467D01*
X5366Y2477D01*
X5370Y2486D01*
X5373Y2496D01*
X5377Y2505D01*
X5285Y2316D02*
X5294Y2319D01*
X4856Y2681D02*
X4857Y2675D01*
X5183Y2187D02*
X5191Y2181D01*
X5199Y2175D01*
X5208Y2170D01*
X5217Y2165D01*
X5226Y2161D01*
X5235Y2158D01*
X5245Y2155D01*
X5255Y2152D01*
X5264Y2150D01*
X5274Y2149D01*
X5284Y2149D01*
X5294Y2149D01*
X5304Y2149D01*
X5314Y2151D01*
X5324Y2153D01*
X5334Y2155D01*
X5344Y2158D01*
X5353Y2162D01*
X5362Y2166D01*
X5371Y2171D01*
X5379Y2176D01*
X5388Y2182D01*
X5395Y2188D01*
X5403Y2195D01*
X5410Y2202D01*
X5416Y2210D01*
X5422Y2218D01*
X5428Y2226D01*
X5433Y2235D01*
X5253Y2271D02*
X5261Y2265D01*
X5270Y2261D01*
X5280Y2259D01*
X5289Y2258D01*
X5299Y2259D01*
X5308Y2262D01*
X5317Y2266D01*
X5325Y2272D01*
X5331Y2279D01*
X5337Y2287D01*
X5236Y2250D02*
X5244Y2244D01*
X5252Y2239D01*
X5261Y2235D01*
X5270Y2233D01*
X5280Y2231D01*
X5290Y2231D01*
X5299Y2231D01*
X5309Y2233D01*
X5318Y2236D01*
X5327Y2240D01*
X5335Y2245D01*
X5343Y2251D01*
X5350Y2258D01*
X5356Y2265D01*
X5361Y2274D01*
X5218Y2229D02*
X5226Y2223D01*
X5235Y2217D01*
X5244Y2213D01*
X5254Y2209D01*
X5263Y2206D01*
X5274Y2204D01*
X5284Y2203D01*
X5294Y2203D01*
X5304Y2204D01*
X5314Y2206D01*
X5324Y2209D01*
X5333Y2213D01*
X5343Y2218D01*
X5351Y2223D01*
X5359Y2229D01*
X5367Y2236D01*
X5374Y2244D01*
X5380Y2252D01*
X5385Y2261D01*
X5201Y2208D02*
X5209Y2202D01*
X5217Y2196D01*
X5226Y2191D01*
X5235Y2187D01*
X5244Y2183D01*
X5254Y2180D01*
X5264Y2178D01*
X5274Y2177D01*
X5284Y2176D01*
X5294Y2176D01*
X5304Y2177D01*
X5314Y2178D01*
X5324Y2181D01*
X5334Y2184D01*
X5343Y2187D01*
X5352Y2192D01*
X5361Y2197D01*
X5369Y2202D01*
X5377Y2209D01*
X5385Y2215D01*
X5392Y2223D01*
X5398Y2231D01*
X5404Y2239D01*
X5409Y2248D01*
X5676Y2666D02*
X5677Y2676D01*
X5678Y2686D01*
X5679Y2696D01*
X5679Y2706D01*
X5679Y2717D01*
X5678Y2727D01*
X5677Y2737D01*
X5675Y2747D01*
X5673Y2757D01*
X5671Y2766D01*
X5668Y2776D01*
X5665Y2786D01*
X5661Y2795D01*
X5658Y2805D01*
X5653Y2814D01*
X5648Y2823D01*
X5643Y2831D01*
X5638Y2840D01*
X5632Y2848D01*
X5626Y2856D01*
X5620Y2864D01*
X5613Y2872D01*
X5606Y2879D01*
X5599Y2886D01*
X5591Y2893D01*
X5583Y2899D01*
X5575Y2905D01*
X5567Y2911D01*
X5558Y2916D01*
X5549Y2921D01*
X5540Y2925D01*
X5531Y2930D01*
X5522Y2933D01*
X5512Y2937D01*
X5503Y2940D01*
X5493Y2943D01*
X5483Y2945D01*
X5473Y2947D01*
X5463Y2948D01*
X5453Y2949D01*
X5443Y2950D01*
X5433Y2950D01*
X5594Y2676D02*
X5595Y2685D01*
X5596Y2695D01*
X5596Y2705D01*
X5596Y2715D01*
X5595Y2725D01*
X5594Y2735D01*
X5591Y2744D01*
X5589Y2754D01*
X5586Y2763D01*
X5582Y2772D01*
X5578Y2781D01*
X5573Y2790D01*
X5567Y2798D01*
X5561Y2806D01*
X5555Y2813D01*
X5548Y2821D01*
X5541Y2827D01*
X5534Y2834D01*
X5526Y2839D01*
X5517Y2845D01*
X5509Y2850D01*
X5500Y2854D01*
X5491Y2858D01*
X5481Y2861D01*
X5472Y2863D01*
X5462Y2865D01*
X5452Y2867D01*
X5443Y2868D01*
X5433Y2868D01*
X5647Y2665D02*
X5649Y2675D01*
X5650Y2685D01*
X5651Y2695D01*
X5651Y2705D01*
X5651Y2715D01*
X5650Y2725D01*
X5649Y2735D01*
X5647Y2745D01*
X5645Y2755D01*
X5643Y2764D01*
X5640Y2774D01*
X5636Y2784D01*
X5632Y2793D01*
X5628Y2802D01*
X5623Y2811D01*
X5618Y2820D01*
X5613Y2828D01*
X5607Y2836D01*
X5601Y2844D01*
X5594Y2852D01*
X5587Y2859D01*
X5580Y2866D01*
X5572Y2873D01*
X5564Y2879D01*
X5556Y2885D01*
X5548Y2890D01*
X5539Y2895D01*
X5530Y2900D01*
X5521Y2904D01*
X5512Y2908D01*
X5502Y2912D01*
X5493Y2915D01*
X5483Y2917D01*
X5473Y2919D01*
X5463Y2921D01*
X5453Y2922D01*
X5443Y2923D01*
X5433Y2923D01*
X5620Y2670D02*
X5622Y2680D01*
X5623Y2690D01*
X5623Y2700D01*
X5623Y2710D01*
X5623Y2721D01*
X5622Y2731D01*
X5620Y2741D01*
X5618Y2751D01*
X5615Y2760D01*
X5612Y2770D01*
X5608Y2779D01*
X5604Y2789D01*
X5599Y2798D01*
X5594Y2806D01*
X5589Y2815D01*
X5583Y2823D01*
X5576Y2831D01*
X5569Y2838D01*
X5562Y2845D01*
X5554Y2852D01*
X5546Y2858D01*
X5538Y2864D01*
X5529Y2869D01*
X5521Y2874D01*
X5511Y2879D01*
X5502Y2882D01*
X5493Y2886D01*
X5483Y2889D01*
X5473Y2891D01*
X5463Y2893D01*
X5453Y2894D01*
X5443Y2895D01*
X5433Y2895D01*
X5148Y2145D02*
X5156Y2139D01*
X5164Y2133D01*
X5172Y2128D01*
X5180Y2122D01*
X5189Y2118D01*
X5198Y2113D01*
X5207Y2110D01*
X5217Y2106D01*
X5226Y2103D01*
X5236Y2100D01*
X5246Y2098D01*
X5255Y2096D01*
X5265Y2095D01*
X5275Y2094D01*
X5285Y2094D01*
X5295Y2094D01*
X5305Y2094D01*
X5315Y2095D01*
X5325Y2097D01*
X5334Y2099D01*
X5344Y2101D01*
X5354Y2104D01*
X5363Y2107D01*
X5372Y2111D01*
X5382Y2115D01*
X5390Y2119D01*
X5399Y2124D01*
X5408Y2129D01*
X5416Y2135D01*
X5424Y2141D01*
X5432Y2147D01*
X5439Y2154D01*
X5446Y2161D01*
X5453Y2168D01*
X5459Y2176D01*
X5465Y2184D01*
X5471Y2192D01*
X5476Y2200D01*
X5481Y2209D01*
X5130Y2124D02*
X5138Y2118D01*
X5146Y2112D01*
X5154Y2107D01*
X5163Y2101D01*
X5171Y2096D01*
X5180Y2092D01*
X5189Y2088D01*
X5198Y2084D01*
X5208Y2080D01*
X5217Y2077D01*
X5227Y2075D01*
X5236Y2072D01*
X5246Y2070D01*
X5256Y2069D01*
X5266Y2068D01*
X5276Y2067D01*
X5285Y2067D01*
X5295Y2067D01*
X5305Y2067D01*
X5315Y2068D01*
X5325Y2069D01*
X5335Y2071D01*
X5344Y2073D01*
X5354Y2076D01*
X5364Y2078D01*
X5373Y2082D01*
X5382Y2085D01*
X5391Y2089D01*
X5400Y2094D01*
X5409Y2098D01*
X5417Y2103D01*
X5426Y2109D01*
X5434Y2114D01*
X5442Y2120D01*
X5449Y2127D01*
X5457Y2133D01*
X5464Y2140D01*
X5471Y2147D01*
X5477Y2155D01*
X5483Y2163D01*
X5489Y2171D01*
X5495Y2179D01*
X5500Y2187D01*
X5505Y2196D01*
X4648Y2750D02*
X4645Y2741D01*
X4642Y2731D01*
X4640Y2722D01*
X4638Y2712D01*
X4637Y2702D01*
X4636Y2693D01*
X4636Y2683D01*
X4636Y2673D01*
X4636Y2663D01*
X4637Y2653D01*
X4638Y2644D01*
X4640Y2634D01*
X4642Y2624D01*
X4645Y2615D01*
X4648Y2606D01*
X4651Y2596D01*
X4655Y2587D01*
X4659Y2578D01*
X4664Y2570D01*
X4669Y2561D01*
X4674Y2553D01*
X4680Y2545D01*
X4686Y2537D01*
X4693Y2530D01*
X4699Y2523D01*
X4706Y2516D01*
X4714Y2510D01*
X5165Y2166D02*
X5173Y2160D01*
X5181Y2154D01*
X5190Y2149D01*
X5198Y2144D01*
X5207Y2139D01*
X5217Y2135D01*
X5226Y2132D01*
X5235Y2129D01*
X5245Y2126D01*
X5255Y2124D01*
X5265Y2123D01*
X5275Y2122D01*
X5285Y2121D01*
X5295Y2121D01*
X5305Y2122D01*
X5315Y2123D01*
X5324Y2125D01*
X5334Y2127D01*
X5344Y2129D01*
X5353Y2133D01*
X5363Y2136D01*
X5372Y2140D01*
X5381Y2145D01*
X5389Y2150D01*
X5398Y2155D01*
X5406Y2161D01*
X5413Y2168D01*
X5421Y2174D01*
X5428Y2181D01*
X5435Y2189D01*
X5441Y2197D01*
X5447Y2205D01*
X5452Y2213D01*
X5457Y2222D01*
X5567Y2681D02*
X5568Y2691D01*
X5569Y2701D01*
X5569Y2711D01*
X5568Y2721D01*
X5566Y2730D01*
X5564Y2740D01*
X5561Y2749D01*
X5558Y2759D01*
X5554Y2768D01*
X5549Y2776D01*
X5543Y2785D01*
X5537Y2792D01*
X5530Y2800D01*
X5523Y2806D01*
X5516Y2813D01*
X5508Y2819D01*
X5499Y2824D01*
X5490Y2828D01*
X5481Y2832D01*
X5472Y2835D01*
X5462Y2838D01*
X5453Y2839D01*
X5443Y2840D01*
X5433Y2841D01*
X5505Y2196D02*
X5510Y2205D01*
X5514Y2213D01*
X5519Y2222D01*
X5524Y2231D01*
X5528Y2240D01*
X5532Y2249D01*
X5537Y2258D01*
X5541Y2267D01*
X5545Y2276D01*
X5550Y2285D01*
X5554Y2294D01*
X5558Y2303D01*
X5562Y2312D01*
X5566Y2321D01*
X5570Y2330D01*
X5574Y2339D01*
X5578Y2348D01*
X5582Y2357D01*
X5585Y2367D01*
X5589Y2376D01*
X5593Y2385D01*
X5596Y2394D01*
X5600Y2404D01*
X5603Y2413D01*
X5607Y2422D01*
X5610Y2432D01*
X5613Y2441D01*
X5617Y2450D01*
X5620Y2460D01*
X5623Y2469D01*
X5626Y2479D01*
X5629Y2488D01*
X5632Y2498D01*
X5635Y2507D01*
X5638Y2517D01*
X5641Y2526D01*
X5643Y2536D01*
X5646Y2545D01*
X5649Y2555D01*
X5651Y2564D01*
X5654Y2574D01*
X5656Y2584D01*
X5659Y2593D01*
X5661Y2603D01*
X5663Y2613D01*
X5666Y2622D01*
X5668Y2632D01*
X5670Y2642D01*
X5672Y2651D01*
X5674Y2661D01*
X5676Y2671D01*
X5540Y2687D02*
X5541Y2697D01*
X5541Y2706D01*
X5541Y2716D01*
X5539Y2726D01*
X5537Y2736D01*
X5534Y2745D01*
X5530Y2754D01*
X5525Y2763D01*
X5519Y2771D01*
X5513Y2779D01*
X5506Y2786D01*
X5498Y2792D01*
X5490Y2798D01*
X5481Y2802D01*
X5472Y2806D01*
X5462Y2809D01*
X5453Y2812D01*
X5443Y2813D01*
X5433Y2813D01*
X5513Y2692D02*
X5514Y2702D01*
X5514Y2712D01*
X5512Y2722D01*
X5510Y2732D01*
X5506Y2741D01*
X5501Y2750D01*
X5495Y2758D01*
X5488Y2765D01*
X5480Y2771D01*
X5471Y2776D01*
X5462Y2781D01*
X5453Y2784D01*
X5443Y2785D01*
X5433Y2786D01*
X5486Y2698D02*
X5487Y2708D01*
X5485Y2718D01*
X5482Y2728D01*
X5477Y2736D01*
X5470Y2744D01*
X5462Y2750D01*
X5453Y2755D01*
X5443Y2758D01*
X5433Y2759D01*
X5459Y2703D02*
X5458Y2714D01*
X5452Y2723D01*
X5443Y2729D01*
X5433Y2731D01*
X5361Y2274D02*
X5366Y2282D01*
X5370Y2291D01*
X5375Y2300D01*
X5379Y2309D01*
X5384Y2318D01*
X5388Y2327D01*
X5392Y2336D01*
X5397Y2345D01*
X5401Y2354D01*
X5405Y2363D01*
X5409Y2372D01*
X5413Y2381D01*
X5417Y2390D01*
X5421Y2399D01*
X5425Y2408D01*
X5429Y2417D01*
X5433Y2426D01*
X5436Y2436D01*
X5440Y2445D01*
X5444Y2454D01*
X5447Y2463D01*
X5451Y2473D01*
X5454Y2482D01*
X5457Y2491D01*
X5461Y2501D01*
X5464Y2510D01*
X5467Y2520D01*
X5470Y2529D01*
X5473Y2538D01*
X5476Y2548D01*
X5479Y2557D01*
X5482Y2567D01*
X5485Y2577D01*
X5487Y2586D01*
X5490Y2596D01*
X5493Y2605D01*
X5495Y2615D01*
X5498Y2624D01*
X5500Y2634D01*
X5502Y2644D01*
X5505Y2653D01*
X5507Y2663D01*
X5509Y2673D01*
X5511Y2682D01*
X5513Y2692D01*
X5457Y2222D02*
X5462Y2231D01*
X5466Y2239D01*
X5471Y2248D01*
X5476Y2257D01*
X5480Y2266D01*
X5485Y2275D01*
X5489Y2284D01*
X5493Y2293D01*
X5498Y2302D01*
X5502Y2311D01*
X5506Y2320D01*
X5510Y2329D01*
X5514Y2338D01*
X5518Y2347D01*
X5522Y2356D01*
X5526Y2366D01*
X5530Y2375D01*
X5534Y2384D01*
X5537Y2393D01*
X5541Y2403D01*
X5545Y2412D01*
X5548Y2421D01*
X5552Y2431D01*
X5555Y2440D01*
X5559Y2449D01*
X5562Y2459D01*
X5565Y2468D01*
X5568Y2478D01*
X5571Y2487D01*
X5575Y2497D01*
X5578Y2506D01*
X5581Y2516D01*
X5584Y2525D01*
X5586Y2535D01*
X5589Y2544D01*
X5592Y2554D01*
X5595Y2563D01*
X5597Y2573D01*
X5600Y2583D01*
X5602Y2592D01*
X5605Y2602D01*
X5607Y2612D01*
X5610Y2621D01*
X5612Y2631D01*
X5614Y2641D01*
X5616Y2651D01*
X5618Y2660D01*
X5620Y2670D01*
X5481Y2209D02*
X5486Y2217D01*
X5491Y2226D01*
X5495Y2235D01*
X5500Y2244D01*
X5504Y2253D01*
X5509Y2262D01*
X5513Y2271D01*
X5517Y2280D01*
X5522Y2289D01*
X5526Y2298D01*
X5530Y2307D01*
X5534Y2316D01*
X5538Y2325D01*
X5542Y2334D01*
X5546Y2343D01*
X5550Y2352D01*
X5554Y2361D01*
X5558Y2370D01*
X5561Y2380D01*
X5565Y2389D01*
X5569Y2398D01*
X5572Y2407D01*
X5576Y2417D01*
X5579Y2426D01*
X5583Y2435D01*
X5586Y2445D01*
X5589Y2454D01*
X5592Y2463D01*
X5596Y2473D01*
X5599Y2482D01*
X5602Y2492D01*
X5605Y2501D01*
X5608Y2511D01*
X5611Y2520D01*
X5613Y2530D01*
X5616Y2539D01*
X5619Y2549D01*
X5622Y2558D01*
X5624Y2568D01*
X5627Y2578D01*
X5629Y2587D01*
X5632Y2597D01*
X5634Y2606D01*
X5636Y2616D01*
X5639Y2626D01*
X5641Y2635D01*
X5643Y2645D01*
X5645Y2655D01*
X5647Y2665D01*
X5271Y2292D02*
X5279Y2287D01*
X5289Y2285D01*
X5298Y2287D01*
X5307Y2292D01*
X5313Y2300D01*
X5337Y2287D02*
X5341Y2296D01*
X5346Y2304D01*
X5351Y2313D01*
X5355Y2322D01*
X5360Y2331D01*
X5364Y2340D01*
X5369Y2349D01*
X5373Y2358D01*
X5377Y2367D01*
X5381Y2376D01*
X5385Y2385D01*
X5389Y2394D01*
X5393Y2403D01*
X5397Y2413D01*
X5401Y2422D01*
X5405Y2431D01*
X5409Y2440D01*
X5412Y2449D01*
X5416Y2459D01*
X5420Y2468D01*
X5423Y2477D01*
X5427Y2487D01*
X5430Y2496D01*
X5433Y2506D01*
X5437Y2515D01*
X5440Y2524D01*
X5443Y2534D01*
X5446Y2543D01*
X5449Y2553D01*
X5452Y2562D01*
X5455Y2572D01*
X5458Y2582D01*
X5460Y2591D01*
X5463Y2601D01*
X5466Y2610D01*
X5468Y2620D01*
X5471Y2630D01*
X5473Y2639D01*
X5476Y2649D01*
X5478Y2659D01*
X5480Y2668D01*
X5482Y2678D01*
X5484Y2688D01*
X5486Y2698D01*
X5313Y2300D02*
X5317Y2309D01*
X5322Y2317D01*
X5327Y2326D01*
X5331Y2335D01*
X5336Y2344D01*
X5340Y2353D01*
X5345Y2362D01*
X5349Y2371D01*
X5353Y2380D01*
X5357Y2389D01*
X5361Y2399D01*
X5365Y2408D01*
X5369Y2417D01*
X5373Y2426D01*
X5377Y2435D01*
X5381Y2445D01*
X5385Y2454D01*
X5389Y2463D01*
X5392Y2473D01*
X5396Y2482D01*
X5399Y2491D01*
X5403Y2501D01*
X5406Y2510D01*
X5409Y2520D01*
X5413Y2529D01*
X5416Y2539D01*
X5419Y2548D01*
X5422Y2558D01*
X5425Y2567D01*
X5428Y2577D01*
X5431Y2587D01*
X5433Y2596D01*
X5436Y2606D01*
X5439Y2615D01*
X5441Y2625D01*
X5444Y2635D01*
X5446Y2645D01*
X5449Y2654D01*
X5451Y2664D01*
X5453Y2674D01*
X5455Y2684D01*
X5458Y2693D01*
X5460Y2703D01*
X4557Y1628D02*
X4567Y1632D01*
X4576Y1636D01*
X4585Y1640D01*
X4594Y1644D01*
X4603Y1648D01*
X4613Y1652D01*
X4622Y1656D01*
X4631Y1660D01*
X4640Y1664D01*
X4649Y1668D01*
X4658Y1673D01*
X4667Y1677D01*
X4676Y1682D01*
X4685Y1686D01*
X4694Y1691D01*
X4703Y1695D01*
X4712Y1700D01*
X4720Y1705D01*
X4729Y1710D01*
X4738Y1715D01*
X4747Y1720D01*
X4755Y1725D01*
X4764Y1730D01*
X4773Y1735D01*
X4781Y1740D01*
X4790Y1745D01*
X4798Y1750D01*
X4807Y1756D01*
X4815Y1761D01*
X4824Y1767D01*
X4832Y1772D01*
X4840Y1778D01*
X4848Y1783D01*
X4857Y1789D01*
X4865Y1795D01*
X4873Y1801D01*
X4881Y1807D01*
X4889Y1813D01*
X4897Y1819D01*
X4905Y1825D01*
X4913Y1831D01*
X4921Y1837D01*
X4929Y1843D01*
X4567Y1603D02*
X4577Y1607D01*
X4586Y1610D01*
X4595Y1614D01*
X4604Y1618D01*
X4613Y1622D01*
X4622Y1626D01*
X4632Y1630D01*
X4641Y1634D01*
X4650Y1638D01*
X4659Y1643D01*
X4668Y1647D01*
X4677Y1651D01*
X4686Y1656D01*
X4695Y1660D01*
X4703Y1665D01*
X4712Y1669D01*
X4721Y1674D01*
X4730Y1679D01*
X4739Y1684D01*
X4747Y1688D01*
X4756Y1693D01*
X4765Y1698D01*
X4773Y1703D01*
X4782Y1708D01*
X4790Y1714D01*
X4799Y1719D01*
X4807Y1724D01*
X4816Y1729D01*
X4824Y1735D01*
X4833Y1740D01*
X4841Y1746D01*
X4849Y1751D01*
X4858Y1757D01*
X4866Y1762D01*
X4874Y1768D01*
X4882Y1774D01*
X4890Y1779D01*
X4898Y1785D01*
X4906Y1791D01*
X4914Y1797D01*
X4922Y1803D01*
X4930Y1809D01*
X4938Y1815D01*
X4946Y1822D01*
X4520Y1649D02*
X4523Y1640D01*
X4530Y1633D01*
X4538Y1628D01*
X4548Y1626D01*
X4557Y1628D01*
X4628Y1450D02*
X4637Y1454D01*
X4646Y1458D01*
X4655Y1462D01*
X4665Y1465D01*
X4674Y1469D01*
X4683Y1473D01*
X4692Y1477D01*
X4701Y1481D01*
X4710Y1485D01*
X4719Y1490D01*
X4728Y1494D01*
X4737Y1498D01*
X4746Y1503D01*
X4755Y1507D01*
X4764Y1511D01*
X4773Y1516D01*
X4781Y1520D01*
X4790Y1525D01*
X4799Y1530D01*
X4808Y1534D01*
X4816Y1539D01*
X4825Y1544D01*
X4834Y1549D01*
X4842Y1554D01*
X4851Y1559D01*
X4860Y1564D01*
X4868Y1569D01*
X4877Y1574D01*
X4885Y1579D01*
X4894Y1584D01*
X4902Y1590D01*
X4910Y1595D01*
X4919Y1600D01*
X4927Y1606D01*
X4935Y1611D01*
X4944Y1617D01*
X4952Y1622D01*
X4960Y1628D01*
X4968Y1634D01*
X4976Y1639D01*
X4984Y1645D01*
X4993Y1651D01*
X5001Y1657D01*
X5009Y1663D01*
X5016Y1669D01*
X5024Y1675D01*
X5032Y1681D01*
X5040Y1687D01*
X5048Y1693D01*
X4618Y1476D02*
X4627Y1479D01*
X4636Y1483D01*
X4645Y1487D01*
X4655Y1491D01*
X4664Y1495D01*
X4673Y1499D01*
X4682Y1503D01*
X4691Y1507D01*
X4700Y1511D01*
X4709Y1515D01*
X4718Y1520D01*
X4727Y1524D01*
X4736Y1528D01*
X4745Y1533D01*
X4754Y1537D01*
X4763Y1542D01*
X4772Y1546D01*
X4781Y1551D01*
X4789Y1556D01*
X4798Y1560D01*
X4807Y1565D01*
X4816Y1570D01*
X4824Y1575D01*
X4833Y1580D01*
X4842Y1585D01*
X4850Y1590D01*
X4859Y1595D01*
X4867Y1600D01*
X4876Y1605D01*
X4884Y1611D01*
X4893Y1616D01*
X4901Y1621D01*
X4910Y1627D01*
X4918Y1632D01*
X4926Y1638D01*
X4934Y1643D01*
X4943Y1649D01*
X4951Y1655D01*
X4959Y1661D01*
X4967Y1666D01*
X4975Y1672D01*
X4983Y1678D01*
X4991Y1684D01*
X4999Y1690D01*
X5007Y1696D01*
X5015Y1702D01*
X5023Y1708D01*
X5031Y1714D01*
X4577Y1577D02*
X4587Y1581D01*
X4596Y1585D01*
X4605Y1589D01*
X4614Y1593D01*
X4623Y1596D01*
X4632Y1600D01*
X4641Y1605D01*
X4650Y1609D01*
X4659Y1613D01*
X4668Y1617D01*
X4677Y1621D01*
X4686Y1626D01*
X4695Y1630D01*
X4704Y1634D01*
X4713Y1639D01*
X4722Y1644D01*
X4731Y1648D01*
X4739Y1653D01*
X4748Y1658D01*
X4757Y1662D01*
X4765Y1667D01*
X4774Y1672D01*
X4783Y1677D01*
X4791Y1682D01*
X4800Y1687D01*
X4808Y1692D01*
X4817Y1698D01*
X4825Y1703D01*
X4834Y1708D01*
X4842Y1713D01*
X4850Y1719D01*
X4859Y1724D01*
X4867Y1730D01*
X4875Y1735D01*
X4883Y1741D01*
X4891Y1747D01*
X4900Y1752D01*
X4908Y1758D01*
X4916Y1764D01*
X4924Y1770D01*
X4932Y1776D01*
X4940Y1782D01*
X4947Y1788D01*
X4955Y1794D01*
X4963Y1800D01*
X4929Y1843D02*
X4935Y1852D01*
X4936Y1863D01*
X4933Y1873D01*
X4927Y1882D01*
X4946Y1822D02*
X4953Y1829D01*
X4958Y1838D01*
X4962Y1847D01*
X4964Y1857D01*
X4963Y1868D01*
X4961Y1878D01*
X4957Y1887D01*
X4951Y1895D01*
X4944Y1903D01*
X4963Y1800D02*
X4970Y1807D01*
X4976Y1815D01*
X4982Y1824D01*
X4986Y1833D01*
X4989Y1842D01*
X4991Y1852D01*
X4991Y1862D01*
X4990Y1872D01*
X4988Y1882D01*
X4985Y1892D01*
X4981Y1901D01*
X4975Y1909D01*
X4969Y1917D01*
X4962Y1924D01*
X4980Y1779D02*
X4987Y1785D01*
X4994Y1793D01*
X5000Y1801D01*
X5005Y1809D01*
X5009Y1818D01*
X5013Y1828D01*
X5016Y1837D01*
X5017Y1847D01*
X5018Y1857D01*
X5018Y1867D01*
X5017Y1877D01*
X5015Y1886D01*
X5013Y1896D01*
X5009Y1905D01*
X5005Y1914D01*
X4999Y1923D01*
X4993Y1931D01*
X4987Y1938D01*
X4979Y1945D01*
X4638Y1425D02*
X4647Y1429D01*
X4656Y1433D01*
X4665Y1436D01*
X4675Y1440D01*
X4684Y1444D01*
X4693Y1448D01*
X4702Y1452D01*
X4711Y1456D01*
X4720Y1460D01*
X4729Y1464D01*
X4738Y1469D01*
X4747Y1473D01*
X4756Y1477D01*
X4765Y1482D01*
X4774Y1486D01*
X4783Y1491D01*
X4791Y1495D01*
X4800Y1500D01*
X4809Y1504D01*
X4818Y1509D01*
X4827Y1514D01*
X4835Y1519D01*
X4844Y1523D01*
X4853Y1528D01*
X4861Y1533D01*
X4870Y1538D01*
X4878Y1543D01*
X4887Y1548D01*
X4895Y1554D01*
X4904Y1559D01*
X4912Y1564D01*
X4921Y1569D01*
X4929Y1575D01*
X4937Y1580D01*
X4946Y1585D01*
X4954Y1591D01*
X4962Y1597D01*
X4970Y1602D01*
X4979Y1608D01*
X4987Y1613D01*
X4995Y1619D01*
X5003Y1625D01*
X5011Y1631D01*
X5019Y1637D01*
X5027Y1643D01*
X5035Y1649D01*
X5043Y1655D01*
X5051Y1661D01*
X5059Y1667D01*
X5066Y1673D01*
X5074Y1679D01*
X4997Y1757D02*
X5004Y1764D01*
X5011Y1771D01*
X5018Y1779D01*
X5023Y1787D01*
X5028Y1795D01*
X5033Y1804D01*
X5037Y1813D01*
X5040Y1822D01*
X5043Y1832D01*
X5044Y1842D01*
X5045Y1851D01*
X5046Y1861D01*
X5045Y1871D01*
X5044Y1881D01*
X5043Y1891D01*
X5040Y1900D01*
X5037Y1910D01*
X5033Y1919D01*
X5028Y1928D01*
X5023Y1936D01*
X5018Y1944D01*
X5011Y1952D01*
X5004Y1959D01*
X4997Y1966D01*
X4358Y1621D02*
X4360Y1611D01*
X4363Y1601D01*
X4366Y1592D01*
X4369Y1582D01*
X4373Y1573D01*
X4378Y1564D01*
X4383Y1555D01*
X4388Y1547D01*
X4394Y1539D01*
X4400Y1531D01*
X4407Y1523D01*
X4414Y1516D01*
X4421Y1510D01*
X4429Y1503D01*
X4437Y1497D01*
X4445Y1492D01*
X4454Y1487D01*
X4463Y1482D01*
X4472Y1478D01*
X4481Y1474D01*
X4490Y1471D01*
X4500Y1468D01*
X4510Y1466D01*
X4520Y1464D01*
X4529Y1463D01*
X4539Y1462D01*
X4549Y1462D01*
X4559Y1463D01*
X4569Y1464D01*
X4579Y1465D01*
X4589Y1467D01*
X4599Y1469D01*
X4608Y1472D01*
X4618Y1476D01*
X4338Y2400D02*
X4329Y2395D01*
X4321Y2390D01*
X4313Y2384D01*
X4306Y2378D01*
X4299Y2371D01*
X4292Y2364D01*
X4285Y2357D01*
X4279Y2349D01*
X4273Y2342D01*
X4267Y2334D01*
X4262Y2325D01*
X4257Y2317D01*
X4252Y2308D01*
X4248Y2299D01*
X4244Y2290D01*
X4241Y2281D01*
X4238Y2271D01*
X4236Y2262D01*
X4234Y2252D01*
X4232Y2243D01*
X4231Y2233D01*
X4230Y2223D01*
X4230Y2213D01*
X4230Y2203D01*
X4231Y2194D01*
X4232Y2184D01*
X4233Y2174D01*
X4305Y1611D02*
X4307Y1601D01*
X4309Y1592D01*
X4312Y1582D01*
X4315Y1573D01*
X4318Y1563D01*
X4322Y1554D01*
X4326Y1545D01*
X4331Y1536D01*
X4336Y1528D01*
X4341Y1519D01*
X4347Y1511D01*
X4353Y1503D01*
X4359Y1496D01*
X4365Y1488D01*
X4372Y1481D01*
X4379Y1474D01*
X4387Y1467D01*
X4394Y1461D01*
X4402Y1455D01*
X4410Y1449D01*
X4419Y1444D01*
X4427Y1439D01*
X4436Y1434D01*
X4445Y1430D01*
X4454Y1426D01*
X4463Y1423D01*
X4473Y1419D01*
X4482Y1417D01*
X4492Y1414D01*
X4501Y1412D01*
X4511Y1410D01*
X4521Y1409D01*
X4531Y1408D01*
X4541Y1408D01*
X4551Y1408D01*
X4561Y1408D01*
X4571Y1409D01*
X4580Y1410D01*
X4590Y1412D01*
X4600Y1414D01*
X4610Y1416D01*
X4619Y1419D01*
X4628Y1422D01*
X4638Y1425D01*
X4332Y1616D02*
X4334Y1606D01*
X4336Y1596D01*
X4339Y1587D01*
X4342Y1577D01*
X4346Y1568D01*
X4350Y1559D01*
X4354Y1550D01*
X4359Y1542D01*
X4364Y1533D01*
X4370Y1525D01*
X4376Y1517D01*
X4383Y1509D01*
X4389Y1502D01*
X4396Y1495D01*
X4404Y1488D01*
X4411Y1482D01*
X4419Y1476D01*
X4428Y1470D01*
X4436Y1465D01*
X4445Y1460D01*
X4454Y1456D01*
X4463Y1452D01*
X4472Y1448D01*
X4481Y1445D01*
X4491Y1442D01*
X4501Y1440D01*
X4510Y1438D01*
X4520Y1437D01*
X4530Y1436D01*
X4540Y1435D01*
X4550Y1435D01*
X4560Y1435D01*
X4570Y1436D01*
X4580Y1437D01*
X4590Y1439D01*
X4599Y1441D01*
X4609Y1444D01*
X4618Y1447D01*
X4628Y1450D01*
X5031Y1714D02*
X5039Y1721D01*
X5046Y1728D01*
X5053Y1735D01*
X5059Y1743D01*
X5065Y1751D01*
X5071Y1760D01*
X5076Y1768D01*
X5081Y1777D01*
X5085Y1787D01*
X5089Y1796D01*
X5092Y1806D01*
X5095Y1815D01*
X5097Y1825D01*
X5099Y1835D01*
X5100Y1845D01*
X5100Y1856D01*
X5100Y1866D01*
X5100Y1876D01*
X5099Y1886D01*
X5097Y1896D01*
X5095Y1906D01*
X5092Y1916D01*
X5089Y1925D01*
X5086Y1935D01*
X5082Y1944D01*
X5077Y1953D01*
X5072Y1962D01*
X5066Y1970D01*
X5060Y1978D01*
X5054Y1986D01*
X5047Y1994D01*
X5040Y2001D01*
X5032Y2007D01*
X5048Y1693D02*
X5056Y1699D01*
X5063Y1706D01*
X5070Y1714D01*
X5077Y1721D01*
X5083Y1729D01*
X5089Y1737D01*
X5094Y1746D01*
X5100Y1754D01*
X5104Y1763D01*
X5109Y1772D01*
X5113Y1781D01*
X5116Y1791D01*
X5119Y1801D01*
X5122Y1810D01*
X5124Y1820D01*
X5126Y1830D01*
X5127Y1840D01*
X5128Y1850D01*
X5128Y1860D01*
X5128Y1870D01*
X5127Y1880D01*
X5126Y1890D01*
X5124Y1900D01*
X5122Y1910D01*
X5120Y1920D01*
X5117Y1930D01*
X5113Y1939D01*
X5110Y1948D01*
X5105Y1958D01*
X5101Y1967D01*
X5096Y1975D01*
X5090Y1984D01*
X5084Y1992D01*
X5078Y2000D01*
X5071Y2007D01*
X5065Y2015D01*
X5057Y2022D01*
X5050Y2028D01*
X5014Y1736D02*
X5021Y1742D01*
X5028Y1749D01*
X5035Y1757D01*
X5041Y1764D01*
X5047Y1772D01*
X5052Y1781D01*
X5056Y1790D01*
X5061Y1799D01*
X5064Y1808D01*
X5067Y1817D01*
X5069Y1827D01*
X5071Y1836D01*
X5072Y1846D01*
X5073Y1856D01*
X5073Y1866D01*
X5072Y1876D01*
X5071Y1886D01*
X5070Y1895D01*
X5067Y1905D01*
X5064Y1914D01*
X5061Y1923D01*
X5057Y1932D01*
X5052Y1941D01*
X5047Y1950D01*
X5041Y1958D01*
X5035Y1966D01*
X5029Y1973D01*
X5022Y1980D01*
X5015Y1986D01*
X5071Y1675D02*
X5079Y1682D01*
X5086Y1689D01*
X5093Y1697D01*
X5099Y1704D01*
X5105Y1712D01*
X5111Y1721D01*
X5117Y1729D01*
X5122Y1738D01*
X5127Y1746D01*
X5132Y1756D01*
X5136Y1765D01*
X5139Y1774D01*
X5143Y1784D01*
X5146Y1793D01*
X5148Y1803D01*
X5151Y1813D01*
X5152Y1823D01*
X5154Y1833D01*
X5155Y1843D01*
X5155Y1853D01*
X5155Y1863D01*
X5155Y1873D01*
X5154Y1883D01*
X5153Y1893D01*
X5151Y1903D01*
X5150Y1913D01*
X5147Y1923D01*
X5144Y1933D01*
X5141Y1943D01*
X5138Y1952D01*
X5134Y1961D01*
X5129Y1970D01*
X5125Y1979D01*
X5120Y1988D01*
X5114Y1997D01*
X5108Y2005D01*
X5102Y2013D01*
X5096Y2021D01*
X5089Y2028D01*
X5082Y2036D01*
X5075Y2043D01*
X5067Y2049D01*
X4412Y1630D02*
X4415Y1620D01*
X4417Y1610D01*
X4421Y1601D01*
X4425Y1592D01*
X4430Y1583D01*
X4436Y1575D01*
X4442Y1567D01*
X4448Y1559D01*
X4456Y1552D01*
X4464Y1545D01*
X4472Y1540D01*
X4480Y1534D01*
X4489Y1530D01*
X4499Y1526D01*
X4508Y1523D01*
X4518Y1520D01*
X4528Y1518D01*
X4538Y1517D01*
X4548Y1517D01*
X4558Y1517D01*
X4568Y1519D01*
X4578Y1521D01*
X4588Y1523D01*
X4598Y1527D01*
X4439Y1635D02*
X4442Y1625D01*
X4445Y1615D01*
X4449Y1606D01*
X4454Y1597D01*
X4459Y1588D01*
X4466Y1580D01*
X4473Y1573D01*
X4481Y1567D01*
X4489Y1561D01*
X4498Y1556D01*
X4508Y1552D01*
X4517Y1548D01*
X4527Y1546D01*
X4537Y1545D01*
X4548Y1544D01*
X4558Y1545D01*
X4568Y1546D01*
X4578Y1549D01*
X4587Y1552D01*
X4466Y1640D02*
X4469Y1630D01*
X4472Y1621D01*
X4476Y1612D01*
X4482Y1604D01*
X4488Y1597D01*
X4495Y1590D01*
X4503Y1585D01*
X4511Y1580D01*
X4520Y1576D01*
X4530Y1574D01*
X4539Y1572D01*
X4549Y1572D01*
X4559Y1572D01*
X4568Y1574D01*
X4577Y1577D01*
X4493Y1644D02*
X4496Y1635D01*
X4500Y1626D01*
X4505Y1618D01*
X4512Y1611D01*
X4520Y1606D01*
X4529Y1602D01*
X4539Y1600D01*
X4548Y1599D01*
X4558Y1600D01*
X4567Y1603D01*
X4385Y1625D02*
X4387Y1615D01*
X4390Y1606D01*
X4393Y1596D01*
X4397Y1587D01*
X4402Y1578D01*
X4406Y1569D01*
X4412Y1561D01*
X4418Y1553D01*
X4424Y1545D01*
X4431Y1538D01*
X4438Y1531D01*
X4446Y1524D01*
X4454Y1518D01*
X4463Y1513D01*
X4471Y1508D01*
X4481Y1504D01*
X4490Y1500D01*
X4499Y1497D01*
X4509Y1494D01*
X4519Y1492D01*
X4529Y1491D01*
X4539Y1490D01*
X4549Y1490D01*
X4559Y1490D01*
X4569Y1491D01*
X4579Y1493D01*
X4589Y1495D01*
X4598Y1498D01*
X4608Y1501D01*
X4452Y2214D02*
X4449Y2208D01*
X4546Y1659D02*
X4555Y1655D01*
X4555Y1655D02*
X4565Y1659D01*
X4574Y1663D01*
X4583Y1667D01*
X4593Y1671D01*
X4602Y1675D01*
X4611Y1679D01*
X4621Y1683D01*
X4630Y1688D01*
X4639Y1692D01*
X4648Y1697D01*
X4658Y1701D01*
X4667Y1706D01*
X4676Y1710D01*
X4685Y1715D01*
X4694Y1720D01*
X4703Y1725D01*
X4712Y1730D01*
X4721Y1734D01*
X4730Y1740D01*
X4739Y1745D01*
X4608Y1501D02*
X4617Y1505D01*
X4626Y1509D01*
X4635Y1512D01*
X4645Y1516D01*
X4654Y1520D01*
X4663Y1524D01*
X4672Y1528D01*
X4681Y1533D01*
X4690Y1537D01*
X4700Y1541D01*
X4709Y1545D01*
X4718Y1550D01*
X4727Y1554D01*
X4736Y1558D01*
X4745Y1563D01*
X4753Y1568D01*
X4762Y1572D01*
X4771Y1577D01*
X4780Y1582D01*
X4789Y1586D01*
X4798Y1591D01*
X4806Y1596D01*
X4815Y1601D01*
X4824Y1606D01*
X4832Y1611D01*
X4841Y1616D01*
X4850Y1621D01*
X4858Y1627D01*
X4867Y1632D01*
X4875Y1637D01*
X4884Y1643D01*
X4892Y1648D01*
X4900Y1654D01*
X4909Y1659D01*
X4917Y1665D01*
X4925Y1670D01*
X4934Y1676D01*
X4942Y1682D01*
X4950Y1688D01*
X4958Y1693D01*
X4966Y1699D01*
X4974Y1705D01*
X4982Y1711D01*
X4990Y1717D01*
X4998Y1723D01*
X5006Y1730D01*
X5014Y1736D01*
X4598Y1527D02*
X4607Y1530D01*
X4616Y1534D01*
X4625Y1538D01*
X4635Y1542D01*
X4644Y1546D01*
X4653Y1550D01*
X4662Y1554D01*
X4672Y1558D01*
X4681Y1562D01*
X4690Y1567D01*
X4699Y1571D01*
X4708Y1575D01*
X4717Y1580D01*
X4726Y1584D01*
X4735Y1589D01*
X4744Y1593D01*
X4753Y1598D01*
X4762Y1603D01*
X4771Y1608D01*
X4779Y1612D01*
X4788Y1617D01*
X4797Y1622D01*
X4806Y1627D01*
X4814Y1632D01*
X4823Y1637D01*
X4832Y1643D01*
X4840Y1648D01*
X4849Y1653D01*
X4857Y1658D01*
X4866Y1664D01*
X4874Y1669D01*
X4883Y1675D01*
X4891Y1680D01*
X4900Y1686D01*
X4908Y1692D01*
X4916Y1697D01*
X4924Y1703D01*
X4933Y1709D01*
X4941Y1715D01*
X4949Y1721D01*
X4957Y1727D01*
X4965Y1733D01*
X4973Y1739D01*
X4981Y1745D01*
X4989Y1751D01*
X4997Y1757D01*
X4587Y1552D02*
X4597Y1556D01*
X4606Y1560D01*
X4616Y1563D01*
X4625Y1567D01*
X4634Y1571D01*
X4643Y1575D01*
X4653Y1580D01*
X4662Y1584D01*
X4671Y1588D01*
X4680Y1592D01*
X4689Y1597D01*
X4698Y1601D01*
X4707Y1606D01*
X4716Y1610D01*
X4725Y1615D01*
X4734Y1619D01*
X4743Y1624D01*
X4752Y1629D01*
X4761Y1634D01*
X4770Y1638D01*
X4779Y1643D01*
X4788Y1648D01*
X4796Y1653D01*
X4805Y1659D01*
X4814Y1664D01*
X4822Y1669D01*
X4831Y1674D01*
X4840Y1680D01*
X4848Y1685D01*
X4857Y1690D01*
X4865Y1696D01*
X4874Y1701D01*
X4882Y1707D01*
X4890Y1713D01*
X4899Y1718D01*
X4907Y1724D01*
X4915Y1730D01*
X4924Y1736D01*
X4932Y1742D01*
X4940Y1748D01*
X4948Y1754D01*
X4956Y1760D01*
X4964Y1766D01*
X4972Y1772D01*
X4980Y1779D01*
X4531Y2249D02*
X4523Y2255D01*
X4515Y2259D01*
X4505Y2261D01*
X4496Y2262D01*
X4487Y2261D01*
X4477Y2259D01*
X4469Y2255D01*
X4350Y2378D02*
X4342Y2372D01*
X4334Y2367D01*
X4326Y2360D01*
X4318Y2354D01*
X4311Y2347D01*
X4304Y2339D01*
X4298Y2332D01*
X4292Y2324D01*
X4286Y2315D01*
X4281Y2307D01*
X4277Y2298D01*
X4272Y2289D01*
X4269Y2279D01*
X4266Y2270D01*
X4263Y2260D01*
X4261Y2250D01*
X4259Y2240D01*
X4258Y2230D01*
X4257Y2220D01*
X4257Y2210D01*
X4258Y2200D01*
X4258Y2190D01*
X4260Y2180D01*
X4365Y2353D02*
X4357Y2348D01*
X4349Y2342D01*
X4341Y2336D01*
X4334Y2329D01*
X4327Y2322D01*
X4321Y2314D01*
X4315Y2307D01*
X4309Y2298D01*
X4304Y2290D01*
X4300Y2281D01*
X4296Y2272D01*
X4293Y2262D01*
X4290Y2253D01*
X4288Y2243D01*
X4286Y2233D01*
X4285Y2223D01*
X4285Y2213D01*
X4285Y2203D01*
X4286Y2193D01*
X4287Y2184D01*
X4379Y2330D02*
X4371Y2325D01*
X4363Y2319D01*
X4356Y2312D01*
X4349Y2306D01*
X4343Y2298D01*
X4337Y2290D01*
X4331Y2282D01*
X4327Y2274D01*
X4323Y2265D01*
X4319Y2256D01*
X4316Y2246D01*
X4314Y2237D01*
X4313Y2227D01*
X4312Y2217D01*
X4312Y2208D01*
X4313Y2198D01*
X4314Y2188D01*
X4393Y2306D02*
X4385Y2301D01*
X4377Y2294D01*
X4369Y2287D01*
X4363Y2280D01*
X4357Y2271D01*
X4352Y2262D01*
X4347Y2253D01*
X4344Y2244D01*
X4342Y2234D01*
X4340Y2224D01*
X4339Y2213D01*
X4340Y2203D01*
X4341Y2193D01*
X4407Y2283D02*
X4399Y2277D01*
X4391Y2271D01*
X4385Y2263D01*
X4379Y2255D01*
X4374Y2246D01*
X4371Y2237D01*
X4368Y2228D01*
X4367Y2218D01*
X4367Y2208D01*
X4368Y2198D01*
X4421Y2259D02*
X4413Y2254D01*
X4407Y2247D01*
X4401Y2239D01*
X4397Y2231D01*
X4395Y2221D01*
X4394Y2212D01*
X4395Y2203D01*
X4435Y2236D02*
X4427Y2228D01*
X4422Y2218D01*
X4422Y2207D01*
X4422Y2442D02*
X4412Y2439D01*
X4403Y2435D01*
X4393Y2431D01*
X4384Y2427D01*
X4375Y2422D01*
X4548Y2270D02*
X4540Y2276D01*
X4532Y2281D01*
X4523Y2285D01*
X4513Y2288D01*
X4503Y2289D01*
X4493Y2290D01*
X4483Y2289D01*
X4474Y2287D01*
X4464Y2283D01*
X4455Y2279D01*
X4566Y2291D02*
X4558Y2298D01*
X4549Y2303D01*
X4540Y2308D01*
X4531Y2311D01*
X4521Y2314D01*
X4511Y2316D01*
X4501Y2317D01*
X4490Y2317D01*
X4480Y2316D01*
X4470Y2314D01*
X4460Y2311D01*
X4451Y2307D01*
X4442Y2303D01*
X4584Y2312D02*
X4576Y2318D01*
X4568Y2324D01*
X4559Y2329D01*
X4551Y2333D01*
X4542Y2336D01*
X4532Y2339D01*
X4523Y2342D01*
X4513Y2343D01*
X4503Y2344D01*
X4494Y2344D01*
X4484Y2344D01*
X4474Y2343D01*
X4465Y2341D01*
X4455Y2338D01*
X4446Y2335D01*
X4437Y2331D01*
X4428Y2327D01*
X4601Y2333D02*
X4593Y2339D01*
X4585Y2345D01*
X4577Y2350D01*
X4568Y2355D01*
X4559Y2359D01*
X4550Y2363D01*
X4540Y2366D01*
X4530Y2368D01*
X4521Y2370D01*
X4511Y2371D01*
X4501Y2372D01*
X4491Y2372D01*
X4481Y2371D01*
X4471Y2370D01*
X4461Y2368D01*
X4452Y2366D01*
X4442Y2363D01*
X4433Y2359D01*
X4424Y2355D01*
X4415Y2350D01*
X4619Y2354D02*
X4611Y2360D01*
X4603Y2366D01*
X4594Y2372D01*
X4585Y2377D01*
X4576Y2381D01*
X4567Y2385D01*
X4558Y2389D01*
X4548Y2392D01*
X4538Y2394D01*
X4528Y2396D01*
X4518Y2398D01*
X4508Y2399D01*
X4498Y2399D01*
X4488Y2399D01*
X4478Y2398D01*
X4468Y2397D01*
X4458Y2395D01*
X4448Y2393D01*
X4438Y2390D01*
X4429Y2387D01*
X4420Y2383D01*
X4410Y2379D01*
X4401Y2374D01*
X4636Y2375D02*
X4629Y2381D01*
X4621Y2387D01*
X4613Y2393D01*
X4604Y2398D01*
X4596Y2402D01*
X4587Y2407D01*
X4578Y2410D01*
X4568Y2414D01*
X4559Y2417D01*
X4550Y2420D01*
X4540Y2422D01*
X4530Y2424D01*
X4521Y2425D01*
X4511Y2426D01*
X4501Y2426D01*
X4491Y2426D01*
X4481Y2426D01*
X4472Y2425D01*
X4462Y2424D01*
X4452Y2422D01*
X4443Y2420D01*
X4433Y2417D01*
X4424Y2414D01*
X4415Y2411D01*
X4406Y2407D01*
X4397Y2403D01*
X4388Y2398D01*
X4513Y2228D02*
X4504Y2234D01*
X4493Y2235D01*
X4482Y2231D01*
X4654Y2396D02*
X4646Y2402D01*
X4638Y2408D01*
X4630Y2414D01*
X4621Y2419D01*
X4612Y2424D01*
X4603Y2429D01*
X4594Y2433D01*
X4585Y2437D01*
X4576Y2440D01*
X4566Y2444D01*
X4556Y2446D01*
X4546Y2448D01*
X4536Y2450D01*
X4527Y2452D01*
X4517Y2453D01*
X4506Y2453D01*
X4496Y2454D01*
X4486Y2454D01*
X4476Y2453D01*
X4466Y2452D01*
X4456Y2451D01*
X4446Y2449D01*
X4437Y2446D01*
X4427Y2444D01*
X4291Y2400D02*
X4283Y2393D01*
X4276Y2386D01*
X4269Y2379D01*
X4263Y2372D01*
X4256Y2364D01*
X4250Y2356D01*
X4245Y2348D01*
X4239Y2340D01*
X4234Y2331D01*
X4230Y2323D01*
X4225Y2314D01*
X4221Y2305D01*
X4218Y2295D01*
X4215Y2286D01*
X4212Y2276D01*
X4209Y2267D01*
X4207Y2257D01*
X4206Y2247D01*
X4204Y2238D01*
X4204Y2228D01*
X4203Y2218D01*
X4203Y2208D01*
X4203Y2198D01*
X4204Y2188D01*
X4205Y2178D01*
X4207Y2169D01*
X3842Y2361D02*
X3832Y2361D01*
X3822Y2360D01*
X3813Y2359D01*
X3803Y2358D01*
X3793Y2356D01*
X3783Y2354D01*
X3774Y2351D01*
X3764Y2348D01*
X3755Y2345D01*
X3746Y2341D01*
X3737Y2337D01*
X3728Y2333D01*
X3719Y2328D01*
X3711Y2323D01*
X3703Y2317D01*
X3695Y2311D01*
X3687Y2305D01*
X3679Y2299D01*
X3672Y2292D01*
X3665Y2285D01*
X3658Y2278D01*
X3652Y2270D01*
X3646Y2263D01*
X3640Y2255D01*
X3635Y2246D01*
X3630Y2238D01*
X4118Y2125D02*
X4116Y2134D01*
X4114Y2144D01*
X4111Y2154D01*
X4108Y2164D01*
X4105Y2173D01*
X4101Y2182D01*
X4096Y2191D01*
X4092Y2200D01*
X4087Y2209D01*
X4081Y2218D01*
X4076Y2226D01*
X4070Y2234D01*
X4063Y2242D01*
X4056Y2249D01*
X4049Y2256D01*
X4042Y2263D01*
X4035Y2270D01*
X4027Y2276D01*
X4019Y2282D01*
X4010Y2288D01*
X4002Y2293D01*
X3993Y2298D01*
X3984Y2303D01*
X3975Y2307D01*
X3903Y2087D02*
X3899Y2097D01*
X3891Y2105D01*
X3881Y2109D01*
X4091Y2120D02*
X4089Y2129D01*
X4087Y2139D01*
X4084Y2148D01*
X4081Y2158D01*
X4078Y2167D01*
X4074Y2176D01*
X4069Y2185D01*
X4064Y2193D01*
X4059Y2202D01*
X4054Y2210D01*
X4048Y2218D01*
X4041Y2225D01*
X4035Y2232D01*
X4028Y2239D01*
X4021Y2246D01*
X4013Y2252D01*
X4005Y2258D01*
X3997Y2264D01*
X3989Y2269D01*
X3980Y2274D01*
X3972Y2279D01*
X3963Y2283D01*
X3954Y2286D01*
X3944Y2290D01*
X3935Y2293D01*
X3925Y2295D01*
X3916Y2297D01*
X4064Y2115D02*
X4062Y2125D01*
X4060Y2135D01*
X4057Y2144D01*
X4053Y2154D01*
X4049Y2163D01*
X4045Y2172D01*
X4040Y2181D01*
X4034Y2189D01*
X4028Y2198D01*
X4022Y2205D01*
X4015Y2213D01*
X4008Y2220D01*
X4001Y2227D01*
X3993Y2233D01*
X3985Y2239D01*
X3976Y2245D01*
X3968Y2250D01*
X3959Y2255D01*
X3949Y2259D01*
X3940Y2262D01*
X3930Y2265D01*
X3921Y2268D01*
X3911Y2270D01*
X4038Y2110D02*
X4036Y2120D01*
X4033Y2130D01*
X4030Y2139D01*
X4026Y2148D01*
X4022Y2157D01*
X4017Y2166D01*
X4011Y2174D01*
X4006Y2182D01*
X3999Y2190D01*
X3992Y2197D01*
X3985Y2204D01*
X3978Y2211D01*
X3970Y2217D01*
X3961Y2222D01*
X3953Y2227D01*
X3944Y2231D01*
X3935Y2235D01*
X3925Y2238D01*
X3916Y2241D01*
X3906Y2243D01*
X4011Y2106D02*
X4009Y2115D01*
X4006Y2125D01*
X4002Y2134D01*
X3998Y2143D01*
X3994Y2151D01*
X3989Y2159D01*
X3983Y2167D01*
X3976Y2175D01*
X3970Y2182D01*
X3962Y2188D01*
X3954Y2194D01*
X3946Y2199D01*
X3938Y2204D01*
X3929Y2208D01*
X3920Y2211D01*
X3910Y2214D01*
X3901Y2216D01*
X3984Y2101D02*
X3981Y2111D01*
X3978Y2121D01*
X3974Y2130D01*
X3969Y2139D01*
X3964Y2147D01*
X3957Y2155D01*
X3950Y2162D01*
X3942Y2169D01*
X3934Y2175D01*
X3925Y2180D01*
X3915Y2184D01*
X3906Y2187D01*
X3896Y2189D01*
X3957Y2096D02*
X3954Y2106D01*
X3951Y2115D01*
X3946Y2124D01*
X3941Y2132D01*
X3934Y2140D01*
X3927Y2146D01*
X3919Y2152D01*
X3910Y2157D01*
X3901Y2160D01*
X3891Y2163D01*
X3971Y2309D02*
X3961Y2313D01*
X3951Y2316D01*
X3941Y2319D01*
X3931Y2322D01*
X3921Y2324D01*
X3847Y2143D02*
X3836Y2142D01*
X3826Y2137D01*
X3819Y2129D01*
X3852Y2170D02*
X3842Y2170D01*
X3833Y2169D01*
X3824Y2167D01*
X3815Y2163D01*
X3808Y2157D01*
X3801Y2151D01*
X3795Y2143D01*
X3856Y2196D02*
X3846Y2198D01*
X3836Y2197D01*
X3827Y2196D01*
X3817Y2193D01*
X3808Y2190D01*
X3799Y2185D01*
X3791Y2179D01*
X3784Y2172D01*
X3777Y2165D01*
X3772Y2157D01*
X3861Y2223D02*
X3851Y2225D01*
X3840Y2225D01*
X3830Y2224D01*
X3820Y2223D01*
X3810Y2220D01*
X3801Y2217D01*
X3792Y2212D01*
X3783Y2207D01*
X3775Y2201D01*
X3767Y2194D01*
X3760Y2187D01*
X3754Y2179D01*
X3748Y2170D01*
X3865Y2250D02*
X3856Y2252D01*
X3846Y2252D01*
X3836Y2252D01*
X3826Y2251D01*
X3817Y2250D01*
X3807Y2248D01*
X3798Y2245D01*
X3789Y2241D01*
X3780Y2237D01*
X3772Y2232D01*
X3763Y2227D01*
X3756Y2221D01*
X3748Y2214D01*
X3742Y2208D01*
X3735Y2200D01*
X3730Y2192D01*
X3724Y2184D01*
X3870Y2277D02*
X3860Y2279D01*
X3850Y2279D01*
X3840Y2280D01*
X3830Y2279D01*
X3820Y2278D01*
X3810Y2276D01*
X3801Y2274D01*
X3791Y2271D01*
X3782Y2268D01*
X3773Y2264D01*
X3764Y2259D01*
X3755Y2254D01*
X3747Y2249D01*
X3739Y2243D01*
X3732Y2236D01*
X3725Y2229D01*
X3718Y2222D01*
X3712Y2214D01*
X3706Y2206D01*
X3701Y2198D01*
X3874Y2306D02*
X3864Y2307D01*
X3854Y2308D01*
X3844Y2308D01*
X3834Y2308D01*
X3824Y2307D01*
X3814Y2306D01*
X3804Y2304D01*
X3794Y2302D01*
X3785Y2299D01*
X3775Y2296D01*
X3766Y2292D01*
X3757Y2287D01*
X3748Y2283D01*
X3740Y2277D01*
X3731Y2272D01*
X3723Y2266D01*
X3716Y2259D01*
X3708Y2252D01*
X3701Y2245D01*
X3695Y2237D01*
X3689Y2229D01*
X3683Y2221D01*
X3678Y2213D01*
X3930Y2091D02*
X3927Y2101D01*
X3923Y2109D01*
X3918Y2117D01*
X3911Y2124D01*
X3904Y2129D01*
X3895Y2133D01*
X3886Y2136D01*
X3525Y1521D02*
X3534Y1518D01*
X3544Y1514D01*
X3554Y1511D01*
X3563Y1509D01*
X3573Y1506D01*
X3583Y1503D01*
X3592Y1500D01*
X3602Y1497D01*
X3612Y1495D01*
X3622Y1492D01*
X3631Y1489D01*
X3641Y1487D01*
X3651Y1485D01*
X3661Y1482D01*
X3671Y1480D01*
X3681Y1478D01*
X3691Y1476D01*
X3700Y1474D01*
X3710Y1472D01*
X3720Y1470D01*
X3730Y1468D01*
X3740Y1466D01*
X3750Y1464D01*
X3760Y1462D01*
X3770Y1461D01*
X3780Y1459D01*
X3790Y1458D01*
X3800Y1456D01*
X3810Y1455D01*
X3820Y1454D01*
X3830Y1452D01*
X3840Y1451D01*
X3850Y1450D01*
X3860Y1449D01*
X3870Y1448D01*
X3880Y1447D01*
X3890Y1446D01*
X3901Y1446D01*
X3911Y1445D01*
X3921Y1444D01*
X3931Y1444D01*
X3941Y1443D01*
X3951Y1443D01*
X3961Y1442D01*
X3971Y1442D01*
X3516Y1495D02*
X3526Y1492D01*
X3535Y1489D01*
X3545Y1486D01*
X3555Y1483D01*
X3564Y1480D01*
X3574Y1477D01*
X3584Y1474D01*
X3593Y1471D01*
X3603Y1469D01*
X3613Y1466D01*
X3622Y1464D01*
X3632Y1461D01*
X3642Y1459D01*
X3652Y1456D01*
X3661Y1454D01*
X3671Y1452D01*
X3681Y1450D01*
X3691Y1448D01*
X3701Y1446D01*
X3711Y1444D01*
X3721Y1442D01*
X3730Y1440D01*
X3740Y1438D01*
X3750Y1436D01*
X3760Y1435D01*
X3770Y1433D01*
X3780Y1432D01*
X3790Y1430D01*
X3800Y1429D01*
X3810Y1427D01*
X3820Y1426D01*
X3830Y1425D01*
X3840Y1424D01*
X3850Y1423D01*
X3860Y1422D01*
X3870Y1421D01*
X3880Y1420D01*
X3890Y1419D01*
X3900Y1418D01*
X3910Y1418D01*
X3920Y1417D01*
X3930Y1416D01*
X3940Y1416D01*
X3950Y1415D01*
X3960Y1415D01*
X3970Y1415D01*
X3508Y1469D02*
X3517Y1466D01*
X3527Y1463D01*
X3536Y1460D01*
X3546Y1457D01*
X3555Y1454D01*
X3565Y1451D01*
X3575Y1448D01*
X3584Y1445D01*
X3594Y1443D01*
X3604Y1440D01*
X3613Y1438D01*
X3623Y1435D01*
X3633Y1433D01*
X3642Y1430D01*
X3652Y1428D01*
X3662Y1426D01*
X3672Y1424D01*
X3682Y1422D01*
X3691Y1420D01*
X3701Y1418D01*
X3711Y1416D01*
X3721Y1414D01*
X3731Y1412D01*
X3741Y1410D01*
X3750Y1409D01*
X3760Y1407D01*
X3770Y1405D01*
X3780Y1404D01*
X3790Y1403D01*
X3800Y1401D01*
X3810Y1400D01*
X3820Y1399D01*
X3830Y1397D01*
X3840Y1396D01*
X3850Y1395D01*
X3860Y1394D01*
X3870Y1393D01*
X3880Y1392D01*
X3890Y1392D01*
X3900Y1391D01*
X3910Y1390D01*
X3920Y1390D01*
X3930Y1389D01*
X3940Y1388D01*
X3950Y1388D01*
X3960Y1388D01*
X3970Y1387D01*
X3566Y1621D02*
X3576Y1617D01*
X3586Y1614D01*
X3596Y1611D01*
X3605Y1608D01*
X3615Y1606D01*
X3625Y1603D01*
X3635Y1600D01*
X3645Y1597D01*
X3655Y1595D01*
X3664Y1592D01*
X3674Y1590D01*
X3684Y1588D01*
X3694Y1585D01*
X3704Y1583D01*
X3714Y1581D01*
X3724Y1579D01*
X3734Y1577D01*
X3744Y1575D01*
X3754Y1573D01*
X3764Y1571D01*
X3562Y1629D02*
X3566Y1621D01*
X3847Y2115D02*
X3841Y2112D01*
X3417Y1707D02*
X3412Y1698D01*
X3408Y1689D01*
X3405Y1679D01*
X3402Y1670D01*
X3399Y1660D01*
X3397Y1650D01*
X3396Y1640D01*
X3395Y1630D01*
X3395Y1620D01*
X3396Y1610D01*
X3397Y1600D01*
X3399Y1590D01*
X3401Y1581D01*
X3404Y1571D01*
X3408Y1562D01*
X3412Y1553D01*
X3417Y1544D01*
X3422Y1535D01*
X3427Y1527D01*
X3434Y1519D01*
X3440Y1511D01*
X3448Y1504D01*
X3455Y1498D01*
X3463Y1492D01*
X3471Y1486D01*
X3480Y1481D01*
X3489Y1476D01*
X3498Y1472D01*
X3508Y1469D01*
X3512Y1652D02*
X3508Y1643D01*
X3505Y1634D01*
X3505Y1624D01*
X3506Y1615D01*
X3508Y1605D01*
X3512Y1596D01*
X3518Y1589D01*
X3525Y1582D01*
X3533Y1577D01*
X3542Y1573D01*
X3488Y1666D02*
X3484Y1657D01*
X3481Y1648D01*
X3478Y1638D01*
X3477Y1629D01*
X3477Y1619D01*
X3479Y1609D01*
X3481Y1600D01*
X3484Y1591D01*
X3489Y1582D01*
X3494Y1574D01*
X3501Y1567D01*
X3508Y1561D01*
X3516Y1555D01*
X3524Y1550D01*
X3533Y1547D01*
X3465Y1679D02*
X3460Y1670D01*
X3456Y1661D01*
X3453Y1651D01*
X3451Y1641D01*
X3450Y1631D01*
X3450Y1621D01*
X3451Y1610D01*
X3453Y1600D01*
X3455Y1591D01*
X3459Y1581D01*
X3463Y1572D01*
X3469Y1563D01*
X3475Y1555D01*
X3482Y1547D01*
X3489Y1540D01*
X3497Y1534D01*
X3506Y1529D01*
X3515Y1524D01*
X3525Y1521D01*
X3441Y1693D02*
X3436Y1684D01*
X3432Y1675D01*
X3429Y1665D01*
X3426Y1656D01*
X3424Y1646D01*
X3423Y1636D01*
X3423Y1626D01*
X3423Y1615D01*
X3424Y1605D01*
X3426Y1595D01*
X3428Y1586D01*
X3431Y1576D01*
X3435Y1567D01*
X3440Y1558D01*
X3445Y1549D01*
X3451Y1541D01*
X3458Y1533D01*
X3465Y1526D01*
X3472Y1519D01*
X3480Y1513D01*
X3489Y1507D01*
X3498Y1503D01*
X3507Y1498D01*
X3516Y1495D01*
X3975Y1304D02*
X3985Y1305D01*
X3995Y1306D01*
X4005Y1307D01*
X4015Y1309D01*
X4025Y1311D01*
X4034Y1313D01*
X4044Y1316D01*
X4054Y1319D01*
X4063Y1323D01*
X4072Y1327D01*
X4082Y1331D01*
X4090Y1336D01*
X4099Y1341D01*
X4108Y1347D01*
X4116Y1353D01*
X4124Y1359D01*
X4132Y1365D01*
X4139Y1372D01*
X4146Y1379D01*
X4153Y1387D01*
X4160Y1394D01*
X4166Y1402D01*
X4172Y1410D01*
X4178Y1419D01*
X4183Y1427D01*
X4188Y1436D01*
X4192Y1445D01*
X4196Y1455D01*
X4200Y1464D01*
X4203Y1473D01*
X4206Y1483D01*
X4209Y1493D01*
X4211Y1503D01*
X4213Y1513D01*
X4214Y1523D01*
X4215Y1533D01*
X4216Y1543D01*
X4216Y1553D01*
X4215Y1563D01*
X4215Y1573D01*
X4214Y1583D01*
X4212Y1593D01*
X3970Y1387D02*
X3979Y1388D01*
X3989Y1388D01*
X3999Y1390D01*
X4009Y1392D01*
X4018Y1394D01*
X4028Y1398D01*
X4037Y1401D01*
X4046Y1406D01*
X4054Y1410D01*
X4063Y1416D01*
X4071Y1421D01*
X4078Y1428D01*
X4085Y1434D01*
X4092Y1442D01*
X4099Y1449D01*
X4104Y1457D01*
X4110Y1465D01*
X4115Y1474D01*
X4119Y1483D01*
X4123Y1492D01*
X4126Y1501D01*
X4129Y1511D01*
X4131Y1520D01*
X4133Y1530D01*
X4133Y1540D01*
X4134Y1550D01*
X4134Y1559D01*
X4133Y1569D01*
X4131Y1579D01*
X3968Y1333D02*
X3978Y1333D01*
X3988Y1333D01*
X3998Y1334D01*
X4008Y1336D01*
X4018Y1338D01*
X4028Y1340D01*
X4038Y1343D01*
X4047Y1346D01*
X4056Y1350D01*
X4066Y1354D01*
X4075Y1359D01*
X4083Y1364D01*
X4092Y1369D01*
X4100Y1375D01*
X4108Y1381D01*
X4116Y1388D01*
X4123Y1395D01*
X4130Y1402D01*
X4137Y1409D01*
X4143Y1417D01*
X4149Y1425D01*
X4155Y1434D01*
X4160Y1442D01*
X4165Y1451D01*
X4169Y1460D01*
X4173Y1470D01*
X4177Y1479D01*
X4180Y1489D01*
X4182Y1499D01*
X4184Y1508D01*
X4186Y1518D01*
X4187Y1528D01*
X4188Y1538D01*
X4188Y1548D01*
X4188Y1558D01*
X4188Y1569D01*
X4187Y1579D01*
X4185Y1589D01*
X3969Y1360D02*
X3979Y1360D01*
X3989Y1361D01*
X3999Y1362D01*
X4009Y1364D01*
X4019Y1366D01*
X4029Y1369D01*
X4038Y1372D01*
X4048Y1376D01*
X4057Y1381D01*
X4066Y1385D01*
X4074Y1391D01*
X4083Y1396D01*
X4091Y1403D01*
X4098Y1409D01*
X4106Y1416D01*
X4113Y1424D01*
X4119Y1431D01*
X4125Y1439D01*
X4131Y1448D01*
X4136Y1457D01*
X4141Y1465D01*
X4145Y1475D01*
X4149Y1484D01*
X4152Y1494D01*
X4155Y1503D01*
X4157Y1513D01*
X4159Y1523D01*
X4160Y1533D01*
X4161Y1543D01*
X4161Y1554D01*
X4161Y1564D01*
X4160Y1574D01*
X4158Y1584D01*
X3370Y1734D02*
X3365Y1725D01*
X3361Y1716D01*
X3357Y1707D01*
X3353Y1698D01*
X3350Y1689D01*
X3347Y1679D01*
X3345Y1669D01*
X3343Y1660D01*
X3342Y1650D01*
X3341Y1640D01*
X3341Y1630D01*
X3340Y1620D01*
X3341Y1610D01*
X3342Y1600D01*
X3343Y1590D01*
X3345Y1580D01*
X3347Y1571D01*
X3350Y1561D01*
X3353Y1552D01*
X3357Y1542D01*
X3360Y1533D01*
X3365Y1524D01*
X3370Y1515D01*
X3375Y1507D01*
X3380Y1499D01*
X3386Y1491D01*
X3393Y1483D01*
X3399Y1475D01*
X3406Y1468D01*
X3413Y1462D01*
X3421Y1455D01*
X3429Y1449D01*
X3437Y1443D01*
X3445Y1438D01*
X3454Y1433D01*
X3463Y1428D01*
X3472Y1424D01*
X3481Y1420D01*
X3490Y1417D01*
X3346Y1748D02*
X3342Y1739D01*
X3337Y1730D01*
X3333Y1721D01*
X3329Y1712D01*
X3326Y1702D01*
X3323Y1693D01*
X3320Y1683D01*
X3318Y1674D01*
X3317Y1664D01*
X3315Y1654D01*
X3314Y1644D01*
X3314Y1634D01*
X3313Y1625D01*
X3314Y1615D01*
X3314Y1605D01*
X3315Y1595D01*
X3317Y1585D01*
X3318Y1575D01*
X3321Y1566D01*
X3323Y1556D01*
X3326Y1547D01*
X3329Y1537D01*
X3333Y1528D01*
X3337Y1519D01*
X3342Y1510D01*
X3346Y1501D01*
X3352Y1493D01*
X3357Y1485D01*
X3363Y1477D01*
X3369Y1469D01*
X3375Y1461D01*
X3382Y1454D01*
X3389Y1447D01*
X3396Y1440D01*
X3404Y1434D01*
X3412Y1428D01*
X3420Y1422D01*
X3428Y1417D01*
X3437Y1411D01*
X3445Y1407D01*
X3454Y1402D01*
X3463Y1398D01*
X3472Y1395D01*
X3482Y1391D01*
X3879Y2331D02*
X3869Y2333D01*
X3859Y2334D01*
X3850Y2334D01*
X3840Y2334D01*
X3830Y2334D01*
X3820Y2333D01*
X3810Y2332D01*
X3801Y2330D01*
X3791Y2328D01*
X3782Y2326D01*
X3772Y2323D01*
X3763Y2319D01*
X3754Y2315D01*
X3745Y2311D01*
X3736Y2307D01*
X3728Y2302D01*
X3720Y2296D01*
X3712Y2291D01*
X3704Y2285D01*
X3697Y2278D01*
X3689Y2271D01*
X3683Y2264D01*
X3676Y2257D01*
X3670Y2249D01*
X3664Y2241D01*
X3659Y2233D01*
X3653Y2225D01*
X3393Y1720D02*
X3389Y1712D01*
X3384Y1703D01*
X3381Y1693D01*
X3377Y1684D01*
X3374Y1674D01*
X3372Y1665D01*
X3370Y1655D01*
X3369Y1645D01*
X3368Y1635D01*
X3368Y1625D01*
X3368Y1615D01*
X3369Y1605D01*
X3370Y1595D01*
X3372Y1585D01*
X3374Y1576D01*
X3377Y1566D01*
X3380Y1557D01*
X3384Y1547D01*
X3388Y1538D01*
X3393Y1530D01*
X3398Y1521D01*
X3404Y1513D01*
X3410Y1505D01*
X3416Y1497D01*
X3423Y1490D01*
X3430Y1483D01*
X3438Y1476D01*
X3446Y1470D01*
X3454Y1465D01*
X3463Y1459D01*
X3471Y1455D01*
X3480Y1450D01*
X3490Y1446D01*
X3499Y1443D01*
X3970Y1415D02*
X3980Y1415D01*
X3990Y1416D01*
X4000Y1418D01*
X4009Y1420D01*
X4019Y1423D01*
X4028Y1427D01*
X4037Y1432D01*
X4045Y1437D01*
X4053Y1443D01*
X4061Y1449D01*
X4068Y1456D01*
X4075Y1463D01*
X4081Y1471D01*
X4086Y1479D01*
X4091Y1488D01*
X4095Y1497D01*
X4099Y1506D01*
X4102Y1515D01*
X4104Y1525D01*
X4106Y1535D01*
X4106Y1545D01*
X4106Y1555D01*
X4106Y1564D01*
X4104Y1574D01*
X3482Y1391D02*
X3491Y1388D01*
X3501Y1385D01*
X3510Y1382D01*
X3520Y1379D01*
X3529Y1376D01*
X3539Y1373D01*
X3548Y1371D01*
X3558Y1368D01*
X3567Y1365D01*
X3577Y1363D01*
X3587Y1360D01*
X3596Y1358D01*
X3606Y1355D01*
X3615Y1353D01*
X3625Y1350D01*
X3635Y1348D01*
X3644Y1346D01*
X3654Y1344D01*
X3664Y1342D01*
X3674Y1340D01*
X3683Y1338D01*
X3693Y1336D01*
X3703Y1334D01*
X3713Y1332D01*
X3722Y1330D01*
X3732Y1329D01*
X3742Y1327D01*
X3752Y1326D01*
X3762Y1324D01*
X3771Y1323D01*
X3781Y1321D01*
X3791Y1320D01*
X3801Y1318D01*
X3811Y1317D01*
X3821Y1316D01*
X3831Y1315D01*
X3841Y1314D01*
X3850Y1313D01*
X3860Y1312D01*
X3870Y1311D01*
X3880Y1310D01*
X3890Y1310D01*
X3900Y1309D01*
X3910Y1308D01*
X3920Y1308D01*
X3930Y1307D01*
X3940Y1307D01*
X3950Y1306D01*
X3959Y1306D01*
X3969Y1305D01*
X3979Y1305D01*
X3971Y1442D02*
X3981Y1443D01*
X3991Y1444D01*
X4001Y1446D01*
X4010Y1449D01*
X4019Y1453D01*
X4028Y1458D01*
X4036Y1464D01*
X4044Y1470D01*
X4051Y1477D01*
X4057Y1485D01*
X4063Y1493D01*
X4068Y1502D01*
X4072Y1511D01*
X4075Y1520D01*
X4077Y1530D01*
X4079Y1540D01*
X4079Y1550D01*
X4079Y1560D01*
X4077Y1570D01*
X3972Y1469D02*
X3982Y1470D01*
X3992Y1472D01*
X4001Y1475D01*
X4010Y1480D01*
X4019Y1485D01*
X4026Y1492D01*
X4033Y1499D01*
X4039Y1507D01*
X4044Y1516D01*
X4048Y1525D01*
X4050Y1535D01*
X4052Y1545D01*
X4052Y1555D01*
X4050Y1565D01*
X3973Y1497D02*
X3983Y1498D01*
X3993Y1501D01*
X4001Y1506D01*
X4009Y1513D01*
X4016Y1521D01*
X4020Y1530D01*
X4023Y1540D01*
X4024Y1550D01*
X4023Y1560D01*
X3974Y1524D02*
X3984Y1528D01*
X3992Y1535D01*
X3996Y1545D01*
X3997Y1555D01*
X3533Y1547D02*
X3543Y1544D01*
X3552Y1541D01*
X3562Y1538D01*
X3571Y1535D01*
X3581Y1532D01*
X3590Y1529D01*
X3600Y1526D01*
X3609Y1524D01*
X3619Y1521D01*
X3629Y1518D01*
X3638Y1516D01*
X3648Y1514D01*
X3658Y1511D01*
X3667Y1509D01*
X3677Y1507D01*
X3687Y1505D01*
X3696Y1502D01*
X3706Y1500D01*
X3716Y1498D01*
X3725Y1496D01*
X3735Y1495D01*
X3745Y1493D01*
X3755Y1491D01*
X3765Y1489D01*
X3774Y1488D01*
X3784Y1486D01*
X3794Y1485D01*
X3804Y1483D01*
X3814Y1482D01*
X3824Y1481D01*
X3833Y1480D01*
X3843Y1478D01*
X3853Y1477D01*
X3863Y1476D01*
X3873Y1475D01*
X3883Y1475D01*
X3893Y1474D01*
X3903Y1473D01*
X3912Y1472D01*
X3922Y1472D01*
X3932Y1471D01*
X3942Y1470D01*
X3952Y1470D01*
X3962Y1470D01*
X3972Y1469D01*
X3499Y1443D02*
X3508Y1440D01*
X3518Y1437D01*
X3527Y1434D01*
X3537Y1431D01*
X3547Y1428D01*
X3556Y1425D01*
X3566Y1422D01*
X3575Y1420D01*
X3585Y1417D01*
X3595Y1414D01*
X3604Y1412D01*
X3614Y1409D01*
X3624Y1407D01*
X3633Y1405D01*
X3643Y1402D01*
X3653Y1400D01*
X3662Y1398D01*
X3672Y1396D01*
X3682Y1394D01*
X3692Y1392D01*
X3701Y1390D01*
X3711Y1388D01*
X3721Y1386D01*
X3731Y1384D01*
X3741Y1383D01*
X3751Y1381D01*
X3760Y1379D01*
X3770Y1378D01*
X3780Y1376D01*
X3790Y1375D01*
X3800Y1374D01*
X3810Y1372D01*
X3820Y1371D01*
X3830Y1370D01*
X3840Y1369D01*
X3849Y1368D01*
X3859Y1367D01*
X3869Y1366D01*
X3879Y1365D01*
X3889Y1364D01*
X3899Y1363D01*
X3909Y1363D01*
X3919Y1362D01*
X3929Y1362D01*
X3939Y1361D01*
X3949Y1361D01*
X3959Y1360D01*
X3969Y1360D01*
X3490Y1417D02*
X3500Y1414D01*
X3509Y1411D01*
X3519Y1408D01*
X3528Y1405D01*
X3538Y1402D01*
X3547Y1399D01*
X3557Y1396D01*
X3566Y1394D01*
X3576Y1391D01*
X3585Y1388D01*
X3595Y1386D01*
X3605Y1383D01*
X3614Y1381D01*
X3624Y1379D01*
X3634Y1376D01*
X3643Y1374D01*
X3653Y1372D01*
X3663Y1370D01*
X3672Y1368D01*
X3682Y1366D01*
X3692Y1364D01*
X3702Y1362D01*
X3711Y1360D01*
X3721Y1358D01*
X3731Y1356D01*
X3741Y1355D01*
X3751Y1353D01*
X3760Y1352D01*
X3770Y1350D01*
X3780Y1349D01*
X3790Y1347D01*
X3800Y1346D01*
X3810Y1345D01*
X3819Y1344D01*
X3829Y1342D01*
X3839Y1341D01*
X3849Y1340D01*
X3859Y1339D01*
X3869Y1338D01*
X3879Y1338D01*
X3889Y1337D01*
X3899Y1336D01*
X3909Y1335D01*
X3918Y1335D01*
X3928Y1334D01*
X3938Y1334D01*
X3948Y1333D01*
X3958Y1333D01*
X3968Y1333D01*
X3536Y1638D02*
X3532Y1629D01*
X3532Y1620D01*
X3536Y1611D01*
X3542Y1603D01*
X3551Y1599D01*
X3542Y1573D02*
X3552Y1570D01*
X3561Y1567D01*
X3571Y1564D01*
X3580Y1561D01*
X3590Y1558D01*
X3599Y1555D01*
X3609Y1552D01*
X3618Y1550D01*
X3628Y1547D01*
X3638Y1544D01*
X3647Y1542D01*
X3657Y1539D01*
X3667Y1537D01*
X3676Y1535D01*
X3686Y1533D01*
X3696Y1530D01*
X3706Y1528D01*
X3715Y1526D01*
X3725Y1524D01*
X3735Y1523D01*
X3745Y1521D01*
X3755Y1519D01*
X3764Y1517D01*
X3774Y1516D01*
X3784Y1514D01*
X3794Y1513D01*
X3804Y1511D01*
X3814Y1510D01*
X3824Y1508D01*
X3834Y1507D01*
X3843Y1506D01*
X3853Y1505D01*
X3863Y1504D01*
X3873Y1503D01*
X3883Y1502D01*
X3893Y1501D01*
X3903Y1500D01*
X3913Y1500D01*
X3923Y1499D01*
X3933Y1498D01*
X3943Y1498D01*
X3953Y1497D01*
X3963Y1497D01*
X3973Y1497D01*
X3551Y1599D02*
X3560Y1595D01*
X3570Y1592D01*
X3579Y1589D01*
X3589Y1587D01*
X3598Y1584D01*
X3608Y1581D01*
X3618Y1578D01*
X3627Y1575D01*
X3637Y1573D01*
X3647Y1570D01*
X3656Y1568D01*
X3666Y1565D01*
X3676Y1563D01*
X3686Y1561D01*
X3695Y1559D01*
X3705Y1556D01*
X3715Y1554D01*
X3725Y1552D01*
X3735Y1550D01*
X3745Y1549D01*
X3754Y1547D01*
X3764Y1545D01*
X3774Y1543D01*
X3784Y1542D01*
X3794Y1540D01*
X3804Y1539D01*
X3814Y1537D01*
X3824Y1536D01*
X3834Y1535D01*
X3844Y1533D01*
X3854Y1532D01*
X3864Y1531D01*
X3874Y1530D01*
X3884Y1529D01*
X3893Y1528D01*
X3903Y1528D01*
X3913Y1527D01*
X3923Y1526D01*
X3933Y1526D01*
X3943Y1525D01*
X3953Y1525D01*
X3964Y1524D01*
X3974Y1524D01*
X2759Y2228D02*
X2764Y2220D01*
X2770Y2211D01*
X2775Y2203D01*
X2781Y2195D01*
X2786Y2186D01*
X2792Y2178D01*
X2797Y2170D01*
X2803Y2161D01*
X2809Y2153D01*
X2815Y2145D01*
X2820Y2137D01*
X2826Y2129D01*
X2832Y2121D01*
X2838Y2113D01*
X2844Y2105D01*
X2850Y2097D01*
X2857Y2089D01*
X2863Y2081D01*
X2869Y2073D01*
X2875Y2065D01*
X2882Y2058D01*
X2888Y2050D01*
X2895Y2042D01*
X2901Y2035D01*
X2908Y2027D01*
X2915Y2020D01*
X2921Y2012D01*
X2928Y2005D01*
X2935Y1998D01*
X2942Y1990D01*
X2949Y1983D01*
X2956Y1976D01*
X2963Y1969D01*
X2970Y1961D01*
X2977Y1954D01*
X2984Y1947D01*
X2991Y1940D01*
X2998Y1933D01*
X3006Y1927D01*
X3013Y1920D01*
X3020Y1913D01*
X3028Y1906D01*
X3035Y1900D01*
X2736Y2214D02*
X2741Y2206D01*
X2746Y2197D01*
X2752Y2189D01*
X2757Y2180D01*
X2763Y2172D01*
X2768Y2164D01*
X2774Y2156D01*
X2779Y2147D01*
X2785Y2139D01*
X2791Y2131D01*
X2797Y2123D01*
X2803Y2115D01*
X2809Y2107D01*
X2815Y2099D01*
X2821Y2091D01*
X2827Y2083D01*
X2833Y2075D01*
X2839Y2067D01*
X2845Y2059D01*
X2851Y2052D01*
X2858Y2044D01*
X2864Y2036D01*
X2871Y2029D01*
X2877Y2021D01*
X2884Y2014D01*
X2890Y2006D01*
X2897Y1999D01*
X2904Y1991D01*
X2910Y1984D01*
X2917Y1977D01*
X2924Y1969D01*
X2931Y1962D01*
X2938Y1955D01*
X2945Y1948D01*
X2952Y1941D01*
X2959Y1934D01*
X2966Y1927D01*
X2973Y1920D01*
X2980Y1913D01*
X2987Y1906D01*
X2995Y1899D01*
X3002Y1892D01*
X3010Y1886D01*
X3017Y1879D01*
X2773Y2269D02*
X2765Y2264D01*
X2759Y2256D01*
X2755Y2247D01*
X2756Y2237D01*
X2759Y2228D01*
X2596Y2128D02*
X2601Y2120D01*
X2607Y2111D01*
X2612Y2103D01*
X2617Y2094D01*
X2623Y2086D01*
X2628Y2078D01*
X2634Y2070D01*
X2639Y2061D01*
X2645Y2053D01*
X2651Y2045D01*
X2656Y2037D01*
X2662Y2029D01*
X2668Y2021D01*
X2674Y2013D01*
X2680Y2005D01*
X2686Y1997D01*
X2692Y1989D01*
X2698Y1981D01*
X2704Y1973D01*
X2710Y1965D01*
X2716Y1958D01*
X2723Y1950D01*
X2729Y1942D01*
X2735Y1935D01*
X2742Y1927D01*
X2748Y1919D01*
X2755Y1912D01*
X2761Y1904D01*
X2768Y1897D01*
X2774Y1890D01*
X2781Y1882D01*
X2788Y1875D01*
X2794Y1868D01*
X2801Y1860D01*
X2808Y1853D01*
X2815Y1846D01*
X2822Y1839D01*
X2829Y1832D01*
X2836Y1825D01*
X2843Y1818D01*
X2850Y1811D01*
X2857Y1804D01*
X2864Y1797D01*
X2871Y1790D01*
X2879Y1783D01*
X2886Y1776D01*
X2893Y1770D01*
X2901Y1763D01*
X2908Y1756D01*
X2619Y2142D02*
X2625Y2134D01*
X2630Y2125D01*
X2635Y2117D01*
X2641Y2109D01*
X2646Y2100D01*
X2652Y2092D01*
X2657Y2084D01*
X2663Y2075D01*
X2669Y2067D01*
X2674Y2059D01*
X2680Y2051D01*
X2686Y2043D01*
X2692Y2035D01*
X2698Y2027D01*
X2704Y2019D01*
X2710Y2011D01*
X2716Y2003D01*
X2722Y1995D01*
X2728Y1987D01*
X2734Y1979D01*
X2740Y1971D01*
X2747Y1964D01*
X2753Y1956D01*
X2759Y1948D01*
X2766Y1941D01*
X2772Y1933D01*
X2779Y1926D01*
X2785Y1918D01*
X2792Y1911D01*
X2799Y1903D01*
X2805Y1896D01*
X2812Y1889D01*
X2819Y1881D01*
X2826Y1874D01*
X2833Y1867D01*
X2840Y1860D01*
X2847Y1852D01*
X2854Y1845D01*
X2861Y1838D01*
X2868Y1831D01*
X2875Y1824D01*
X2882Y1817D01*
X2889Y1811D01*
X2897Y1804D01*
X2904Y1797D01*
X2911Y1790D01*
X2919Y1783D01*
X2926Y1777D01*
X2713Y2200D02*
X2718Y2191D01*
X2723Y2183D01*
X2728Y2175D01*
X2734Y2166D01*
X2739Y2158D01*
X2745Y2150D01*
X2750Y2141D01*
X2756Y2133D01*
X2762Y2125D01*
X2767Y2117D01*
X2773Y2109D01*
X2779Y2101D01*
X2785Y2093D01*
X2791Y2085D01*
X2797Y2077D01*
X2803Y2069D01*
X2809Y2061D01*
X2815Y2053D01*
X2821Y2046D01*
X2827Y2038D01*
X2834Y2030D01*
X2840Y2023D01*
X2846Y2015D01*
X2853Y2007D01*
X2859Y2000D01*
X2866Y1992D01*
X2872Y1985D01*
X2879Y1978D01*
X2886Y1970D01*
X2892Y1963D01*
X2899Y1956D01*
X2906Y1948D01*
X2913Y1941D01*
X2920Y1934D01*
X2927Y1927D01*
X2934Y1920D01*
X2941Y1913D01*
X2948Y1906D01*
X2955Y1899D01*
X2962Y1892D01*
X2969Y1885D01*
X2977Y1879D01*
X2984Y1872D01*
X2991Y1865D01*
X2999Y1859D01*
X3035Y1900D02*
X3045Y1896D01*
X3056Y1896D01*
X3066Y1901D01*
X3073Y1909D01*
X3017Y1879D02*
X3026Y1874D01*
X3035Y1870D01*
X3045Y1868D01*
X3055Y1868D01*
X3065Y1870D01*
X3075Y1874D01*
X3083Y1880D01*
X3091Y1887D01*
X3097Y1895D01*
X2999Y1859D02*
X3007Y1853D01*
X3016Y1848D01*
X3025Y1844D01*
X3035Y1842D01*
X3045Y1841D01*
X3055Y1841D01*
X3065Y1842D01*
X3075Y1844D01*
X3084Y1848D01*
X3093Y1853D01*
X3101Y1858D01*
X3108Y1865D01*
X3115Y1873D01*
X3120Y1881D01*
X2981Y1838D02*
X2989Y1832D01*
X2997Y1827D01*
X3006Y1822D01*
X3015Y1819D01*
X3025Y1816D01*
X3034Y1814D01*
X3044Y1813D01*
X3054Y1813D01*
X3064Y1814D01*
X3074Y1816D01*
X3084Y1818D01*
X3093Y1822D01*
X3102Y1826D01*
X3110Y1832D01*
X3118Y1837D01*
X3126Y1844D01*
X3133Y1851D01*
X3139Y1859D01*
X3144Y1868D01*
X2573Y2114D02*
X2578Y2105D01*
X2584Y2097D01*
X2589Y2089D01*
X2594Y2080D01*
X2600Y2072D01*
X2605Y2064D01*
X2611Y2055D01*
X2616Y2047D01*
X2622Y2039D01*
X2628Y2031D01*
X2633Y2023D01*
X2639Y2015D01*
X2645Y2007D01*
X2651Y1998D01*
X2657Y1991D01*
X2663Y1983D01*
X2669Y1975D01*
X2675Y1967D01*
X2681Y1959D01*
X2687Y1951D01*
X2693Y1943D01*
X2699Y1936D01*
X2706Y1928D01*
X2712Y1920D01*
X2718Y1913D01*
X2725Y1905D01*
X2731Y1897D01*
X2738Y1890D01*
X2744Y1882D01*
X2751Y1875D01*
X2757Y1868D01*
X2764Y1860D01*
X2771Y1853D01*
X2778Y1846D01*
X2784Y1838D01*
X2791Y1831D01*
X2798Y1824D01*
X2805Y1817D01*
X2812Y1810D01*
X2819Y1803D01*
X2826Y1796D01*
X2833Y1789D01*
X2840Y1782D01*
X2848Y1775D01*
X2855Y1768D01*
X2862Y1761D01*
X2869Y1755D01*
X2877Y1748D01*
X2884Y1741D01*
X2891Y1735D01*
X2899Y1728D01*
X2962Y1818D02*
X2970Y1812D01*
X2978Y1806D01*
X2987Y1801D01*
X2996Y1797D01*
X3005Y1793D01*
X3015Y1790D01*
X3024Y1788D01*
X3034Y1787D01*
X3044Y1786D01*
X3054Y1786D01*
X3064Y1786D01*
X3074Y1788D01*
X3083Y1790D01*
X3093Y1793D01*
X3102Y1796D01*
X3111Y1800D01*
X3120Y1805D01*
X3128Y1810D01*
X3136Y1816D01*
X3143Y1823D01*
X3150Y1830D01*
X3157Y1838D01*
X3162Y1846D01*
X3168Y1854D01*
X2717Y2423D02*
X2708Y2419D01*
X2699Y2415D01*
X2690Y2410D01*
X2681Y2405D01*
X2673Y2400D01*
X2665Y2394D01*
X2657Y2388D01*
X2650Y2381D01*
X2643Y2374D01*
X2636Y2366D01*
X2630Y2358D01*
X2624Y2350D01*
X2619Y2342D01*
X2614Y2333D01*
X2609Y2324D01*
X2605Y2315D01*
X2602Y2306D01*
X2599Y2296D01*
X2596Y2287D01*
X2594Y2277D01*
X2592Y2267D01*
X2591Y2257D01*
X2591Y2247D01*
X2591Y2237D01*
X2592Y2227D01*
X2593Y2217D01*
X2594Y2207D01*
X2596Y2197D01*
X2599Y2188D01*
X2602Y2178D01*
X2606Y2169D01*
X2610Y2160D01*
X2614Y2151D01*
X2619Y2142D01*
X3481Y2579D02*
X3475Y2586D01*
X3468Y2593D01*
X3461Y2600D01*
X3453Y2606D01*
X3446Y2612D01*
X3438Y2618D01*
X3429Y2623D01*
X3421Y2628D01*
X3412Y2633D01*
X3403Y2637D01*
X3394Y2641D01*
X3385Y2644D01*
X3376Y2647D01*
X3366Y2649D01*
X3357Y2651D01*
X3347Y2653D01*
X3337Y2654D01*
X3327Y2655D01*
X3317Y2655D01*
X3308Y2655D01*
X3298Y2655D01*
X3288Y2654D01*
X3278Y2652D01*
X3269Y2650D01*
X3259Y2648D01*
X3250Y2645D01*
X3240Y2642D01*
X2698Y2474D02*
X2689Y2470D01*
X2680Y2466D01*
X2671Y2462D01*
X2662Y2457D01*
X2654Y2452D01*
X2645Y2447D01*
X2637Y2441D01*
X2629Y2435D01*
X2622Y2429D01*
X2614Y2422D01*
X2607Y2416D01*
X2601Y2408D01*
X2594Y2401D01*
X2588Y2393D01*
X2582Y2385D01*
X2576Y2377D01*
X2571Y2369D01*
X2566Y2360D01*
X2562Y2351D01*
X2557Y2342D01*
X2554Y2333D01*
X2550Y2324D01*
X2547Y2314D01*
X2544Y2305D01*
X2542Y2295D01*
X2540Y2285D01*
X2539Y2276D01*
X2538Y2266D01*
X2537Y2256D01*
X2537Y2246D01*
X2537Y2236D01*
X2537Y2226D01*
X2538Y2216D01*
X2539Y2206D01*
X2541Y2197D01*
X2543Y2187D01*
X2545Y2177D01*
X2548Y2168D01*
X2551Y2158D01*
X2555Y2149D01*
X2559Y2140D01*
X2563Y2131D01*
X2568Y2122D01*
X2573Y2114D01*
X2708Y2449D02*
X2698Y2445D01*
X2689Y2441D01*
X2680Y2436D01*
X2672Y2432D01*
X2663Y2426D01*
X2655Y2421D01*
X2647Y2415D01*
X2639Y2408D01*
X2632Y2402D01*
X2625Y2395D01*
X2618Y2387D01*
X2612Y2380D01*
X2606Y2372D01*
X2600Y2364D01*
X2595Y2355D01*
X2590Y2347D01*
X2585Y2338D01*
X2581Y2329D01*
X2577Y2319D01*
X2574Y2310D01*
X2571Y2301D01*
X2569Y2291D01*
X2567Y2281D01*
X2565Y2271D01*
X2564Y2261D01*
X2564Y2251D01*
X2564Y2241D01*
X2564Y2232D01*
X2565Y2222D01*
X2566Y2212D01*
X2567Y2202D01*
X2570Y2192D01*
X2572Y2183D01*
X2575Y2173D01*
X2578Y2164D01*
X2582Y2154D01*
X2586Y2145D01*
X2591Y2137D01*
X2596Y2128D01*
X2926Y1777D02*
X2934Y1770D01*
X2942Y1765D01*
X2951Y1759D01*
X2959Y1754D01*
X2969Y1749D01*
X2978Y1745D01*
X2987Y1742D01*
X2997Y1739D01*
X3007Y1736D01*
X3017Y1734D01*
X3027Y1733D01*
X3037Y1732D01*
X3047Y1731D01*
X3057Y1731D01*
X3067Y1732D01*
X3077Y1733D01*
X3087Y1735D01*
X3097Y1737D01*
X3107Y1740D01*
X3116Y1743D01*
X3126Y1747D01*
X3135Y1751D01*
X3144Y1756D01*
X3153Y1761D01*
X3161Y1767D01*
X3169Y1773D01*
X3177Y1780D01*
X3184Y1787D01*
X3191Y1794D01*
X3198Y1802D01*
X3204Y1810D01*
X3210Y1818D01*
X3215Y1827D01*
X2908Y1756D02*
X2916Y1750D01*
X2924Y1744D01*
X2932Y1738D01*
X2941Y1733D01*
X2950Y1728D01*
X2959Y1724D01*
X2968Y1720D01*
X2977Y1716D01*
X2987Y1713D01*
X2997Y1710D01*
X3006Y1708D01*
X3016Y1706D01*
X3026Y1705D01*
X3036Y1704D01*
X3046Y1704D01*
X3057Y1704D01*
X3067Y1704D01*
X3077Y1705D01*
X3087Y1707D01*
X3097Y1709D01*
X3106Y1711D01*
X3116Y1714D01*
X3126Y1717D01*
X3135Y1721D01*
X3144Y1725D01*
X3153Y1730D01*
X3162Y1735D01*
X3170Y1740D01*
X3179Y1746D01*
X3187Y1752D01*
X3194Y1758D01*
X3202Y1765D01*
X3209Y1772D01*
X3215Y1780D01*
X3222Y1788D01*
X3228Y1796D01*
X3233Y1804D01*
X3239Y1813D01*
X2944Y1797D02*
X2952Y1791D01*
X2960Y1785D01*
X2968Y1780D01*
X2977Y1776D01*
X2986Y1771D01*
X2995Y1768D01*
X3005Y1765D01*
X3014Y1762D01*
X3024Y1760D01*
X3034Y1759D01*
X3043Y1759D01*
X3053Y1758D01*
X3063Y1759D01*
X3073Y1760D01*
X3083Y1762D01*
X3092Y1764D01*
X3102Y1767D01*
X3111Y1770D01*
X3120Y1774D01*
X3129Y1779D01*
X3137Y1784D01*
X3145Y1789D01*
X3153Y1795D01*
X3161Y1802D01*
X3168Y1809D01*
X3174Y1816D01*
X3180Y1824D01*
X3186Y1832D01*
X3191Y1840D01*
X2895Y1731D02*
X2903Y1724D01*
X2911Y1719D01*
X2920Y1713D01*
X2928Y1708D01*
X2937Y1703D01*
X2946Y1699D01*
X2955Y1695D01*
X2965Y1691D01*
X2974Y1688D01*
X2984Y1685D01*
X2994Y1682D01*
X3004Y1680D01*
X3014Y1679D01*
X3024Y1677D01*
X3034Y1677D01*
X3044Y1676D01*
X3054Y1676D01*
X3064Y1677D01*
X3074Y1677D01*
X3084Y1679D01*
X3094Y1680D01*
X3104Y1682D01*
X3114Y1685D01*
X3124Y1688D01*
X3133Y1691D01*
X3143Y1695D01*
X3152Y1699D01*
X3161Y1703D01*
X3170Y1708D01*
X3179Y1713D01*
X3187Y1719D01*
X3195Y1724D01*
X3203Y1731D01*
X3211Y1737D01*
X3219Y1744D01*
X3226Y1751D01*
X3233Y1758D01*
X3239Y1766D01*
X3246Y1774D01*
X3252Y1782D01*
X3257Y1791D01*
X3262Y1799D01*
X2736Y2371D02*
X2726Y2368D01*
X2717Y2363D01*
X2709Y2358D01*
X2700Y2352D01*
X2692Y2346D01*
X2685Y2339D01*
X2678Y2331D01*
X2672Y2323D01*
X2666Y2315D01*
X2661Y2306D01*
X2657Y2297D01*
X2653Y2288D01*
X2650Y2278D01*
X2648Y2268D01*
X2647Y2258D01*
X2646Y2248D01*
X2646Y2238D01*
X2646Y2228D01*
X2648Y2218D01*
X2650Y2208D01*
X2653Y2198D01*
X2657Y2189D01*
X2661Y2180D01*
X2666Y2171D01*
X2745Y2346D02*
X2736Y2342D01*
X2727Y2337D01*
X2718Y2331D01*
X2710Y2325D01*
X2703Y2318D01*
X2696Y2310D01*
X2690Y2302D01*
X2685Y2293D01*
X2681Y2284D01*
X2678Y2274D01*
X2675Y2264D01*
X2674Y2254D01*
X2673Y2244D01*
X2673Y2234D01*
X2675Y2223D01*
X2677Y2213D01*
X2680Y2204D01*
X2684Y2194D01*
X2689Y2185D01*
X2754Y2320D02*
X2746Y2316D01*
X2737Y2311D01*
X2729Y2305D01*
X2722Y2299D01*
X2716Y2291D01*
X2711Y2283D01*
X2707Y2274D01*
X2703Y2265D01*
X2701Y2256D01*
X2700Y2246D01*
X2701Y2236D01*
X2702Y2227D01*
X2704Y2217D01*
X2708Y2208D01*
X2713Y2200D01*
X2764Y2294D02*
X2755Y2290D01*
X2747Y2285D01*
X2740Y2278D01*
X2735Y2270D01*
X2731Y2261D01*
X2728Y2251D01*
X2728Y2242D01*
X2729Y2232D01*
X2732Y2223D01*
X2736Y2214D01*
X2726Y2397D02*
X2717Y2393D01*
X2708Y2389D01*
X2699Y2384D01*
X2691Y2379D01*
X2683Y2373D01*
X2675Y2367D01*
X2667Y2360D01*
X2660Y2353D01*
X2654Y2345D01*
X2648Y2337D01*
X2642Y2329D01*
X2637Y2320D01*
X2633Y2311D01*
X2629Y2302D01*
X2626Y2292D01*
X2623Y2282D01*
X2621Y2273D01*
X2620Y2263D01*
X2619Y2253D01*
X2618Y2243D01*
X2619Y2233D01*
X2620Y2223D01*
X2621Y2213D01*
X2623Y2203D01*
X2626Y2193D01*
X2629Y2184D01*
X2633Y2174D01*
X2638Y2165D01*
X2643Y2157D01*
X3318Y2434D02*
X3312Y2435D01*
X2787Y2245D02*
X2785Y2235D01*
X2785Y2235D02*
X2791Y2227D01*
X2796Y2218D01*
X2802Y2209D01*
X2807Y2201D01*
X2813Y2192D01*
X2819Y2184D01*
X2825Y2175D01*
X2830Y2167D01*
X2836Y2159D01*
X2842Y2150D01*
X2848Y2142D01*
X2854Y2134D01*
X2861Y2126D01*
X2867Y2118D01*
X2873Y2110D01*
X2879Y2102D01*
X2886Y2094D01*
X2892Y2086D01*
X2899Y2078D01*
X2905Y2070D01*
X2643Y2157D02*
X2648Y2148D01*
X2653Y2140D01*
X2659Y2131D01*
X2664Y2123D01*
X2670Y2114D01*
X2675Y2106D01*
X2681Y2098D01*
X2686Y2090D01*
X2692Y2081D01*
X2698Y2073D01*
X2704Y2065D01*
X2709Y2057D01*
X2715Y2049D01*
X2721Y2041D01*
X2727Y2033D01*
X2733Y2025D01*
X2739Y2017D01*
X2746Y2009D01*
X2752Y2001D01*
X2758Y1993D01*
X2764Y1985D01*
X2771Y1978D01*
X2777Y1970D01*
X2784Y1962D01*
X2790Y1955D01*
X2797Y1947D01*
X2803Y1939D01*
X2810Y1932D01*
X2816Y1924D01*
X2823Y1917D01*
X2830Y1910D01*
X2837Y1902D01*
X2844Y1895D01*
X2851Y1888D01*
X2857Y1880D01*
X2864Y1873D01*
X2871Y1866D01*
X2879Y1859D01*
X2886Y1852D01*
X2893Y1845D01*
X2900Y1838D01*
X2907Y1831D01*
X2915Y1824D01*
X2922Y1817D01*
X2929Y1811D01*
X2937Y1804D01*
X2944Y1797D01*
X2666Y2171D02*
X2671Y2163D01*
X2677Y2154D01*
X2682Y2146D01*
X2688Y2137D01*
X2693Y2129D01*
X2699Y2120D01*
X2704Y2112D01*
X2710Y2104D01*
X2716Y2095D01*
X2721Y2087D01*
X2727Y2079D01*
X2733Y2071D01*
X2739Y2063D01*
X2745Y2055D01*
X2751Y2047D01*
X2757Y2039D01*
X2763Y2031D01*
X2770Y2023D01*
X2776Y2015D01*
X2782Y2007D01*
X2788Y1999D01*
X2795Y1991D01*
X2801Y1984D01*
X2808Y1976D01*
X2814Y1968D01*
X2821Y1961D01*
X2828Y1953D01*
X2834Y1946D01*
X2841Y1938D01*
X2848Y1931D01*
X2855Y1923D01*
X2861Y1916D01*
X2868Y1909D01*
X2875Y1901D01*
X2882Y1894D01*
X2889Y1887D01*
X2897Y1880D01*
X2904Y1873D01*
X2911Y1866D01*
X2918Y1859D01*
X2925Y1852D01*
X2933Y1845D01*
X2940Y1838D01*
X2947Y1831D01*
X2955Y1824D01*
X2962Y1818D01*
X2689Y2185D02*
X2695Y2177D01*
X2700Y2168D01*
X2705Y2160D01*
X2711Y2151D01*
X2716Y2143D01*
X2722Y2134D01*
X2728Y2126D01*
X2733Y2118D01*
X2739Y2109D01*
X2745Y2101D01*
X2751Y2093D01*
X2757Y2085D01*
X2763Y2077D01*
X2769Y2068D01*
X2775Y2060D01*
X2781Y2052D01*
X2787Y2044D01*
X2794Y2036D01*
X2800Y2028D01*
X2806Y2021D01*
X2813Y2013D01*
X2819Y2005D01*
X2825Y1997D01*
X2832Y1990D01*
X2839Y1982D01*
X2845Y1974D01*
X2852Y1967D01*
X2859Y1959D01*
X2866Y1952D01*
X2872Y1944D01*
X2879Y1937D01*
X2886Y1930D01*
X2893Y1922D01*
X2900Y1915D01*
X2907Y1908D01*
X2914Y1901D01*
X2922Y1893D01*
X2929Y1886D01*
X2936Y1879D01*
X2943Y1872D01*
X2951Y1865D01*
X2958Y1859D01*
X2966Y1852D01*
X2973Y1845D01*
X2981Y1838D01*
X3366Y2362D02*
X3370Y2371D01*
X3373Y2380D01*
X3374Y2389D01*
X3373Y2399D01*
X3370Y2408D01*
X3366Y2417D01*
X3361Y2424D01*
X3461Y2562D02*
X3454Y2570D01*
X3447Y2577D01*
X3440Y2583D01*
X3432Y2590D01*
X3424Y2596D01*
X3415Y2601D01*
X3407Y2606D01*
X3398Y2610D01*
X3389Y2614D01*
X3379Y2618D01*
X3370Y2621D01*
X3360Y2624D01*
X3350Y2626D01*
X3340Y2627D01*
X3330Y2628D01*
X3320Y2629D01*
X3310Y2628D01*
X3300Y2628D01*
X3290Y2627D01*
X3280Y2625D01*
X3270Y2623D01*
X3261Y2620D01*
X3251Y2617D01*
X3440Y2543D02*
X3433Y2551D01*
X3426Y2558D01*
X3419Y2564D01*
X3411Y2570D01*
X3402Y2576D01*
X3394Y2581D01*
X3385Y2585D01*
X3376Y2589D01*
X3367Y2592D01*
X3357Y2595D01*
X3347Y2598D01*
X3337Y2599D01*
X3328Y2600D01*
X3318Y2601D01*
X3308Y2601D01*
X3298Y2600D01*
X3288Y2598D01*
X3278Y2596D01*
X3269Y2594D01*
X3259Y2591D01*
X3419Y2525D02*
X3413Y2533D01*
X3405Y2539D01*
X3398Y2546D01*
X3390Y2551D01*
X3382Y2556D01*
X3373Y2561D01*
X3364Y2564D01*
X3355Y2568D01*
X3345Y2570D01*
X3336Y2572D01*
X3326Y2573D01*
X3316Y2573D01*
X3307Y2573D01*
X3297Y2572D01*
X3287Y2570D01*
X3278Y2568D01*
X3268Y2565D01*
X3398Y2508D02*
X3391Y2515D01*
X3384Y2522D01*
X3375Y2528D01*
X3367Y2533D01*
X3358Y2538D01*
X3348Y2541D01*
X3338Y2544D01*
X3328Y2545D01*
X3318Y2546D01*
X3308Y2546D01*
X3298Y2545D01*
X3288Y2542D01*
X3278Y2539D01*
X3378Y2490D02*
X3371Y2497D01*
X3363Y2503D01*
X3355Y2509D01*
X3346Y2513D01*
X3336Y2516D01*
X3326Y2518D01*
X3316Y2519D01*
X3307Y2518D01*
X3297Y2517D01*
X3287Y2514D01*
X3357Y2472D02*
X3350Y2479D01*
X3342Y2484D01*
X3334Y2488D01*
X3325Y2491D01*
X3315Y2491D01*
X3306Y2491D01*
X3297Y2488D01*
X3336Y2454D02*
X3327Y2461D01*
X3317Y2464D01*
X3306Y2462D01*
X3538Y2503D02*
X3533Y2512D01*
X3527Y2521D01*
X3521Y2530D01*
X3515Y2538D01*
X3509Y2546D01*
X3390Y2349D02*
X3394Y2357D01*
X3398Y2367D01*
X3400Y2377D01*
X3401Y2386D01*
X3401Y2396D01*
X3399Y2406D01*
X3397Y2416D01*
X3393Y2425D01*
X3388Y2434D01*
X3382Y2442D01*
X3414Y2335D02*
X3418Y2344D01*
X3422Y2353D01*
X3425Y2363D01*
X3427Y2373D01*
X3428Y2383D01*
X3428Y2394D01*
X3427Y2404D01*
X3426Y2414D01*
X3423Y2424D01*
X3419Y2433D01*
X3415Y2442D01*
X3409Y2451D01*
X3403Y2459D01*
X3437Y2321D02*
X3442Y2330D01*
X3446Y2339D01*
X3449Y2348D01*
X3452Y2357D01*
X3454Y2367D01*
X3455Y2377D01*
X3456Y2386D01*
X3456Y2396D01*
X3455Y2406D01*
X3453Y2415D01*
X3451Y2425D01*
X3448Y2434D01*
X3445Y2443D01*
X3441Y2452D01*
X3436Y2461D01*
X3430Y2469D01*
X3424Y2477D01*
X3461Y2308D02*
X3466Y2316D01*
X3470Y2325D01*
X3474Y2335D01*
X3477Y2344D01*
X3479Y2354D01*
X3481Y2363D01*
X3482Y2373D01*
X3483Y2383D01*
X3483Y2393D01*
X3482Y2403D01*
X3481Y2413D01*
X3480Y2423D01*
X3477Y2433D01*
X3474Y2442D01*
X3471Y2451D01*
X3467Y2460D01*
X3462Y2469D01*
X3457Y2478D01*
X3452Y2486D01*
X3446Y2494D01*
X3485Y2294D02*
X3490Y2303D01*
X3494Y2312D01*
X3498Y2321D01*
X3501Y2331D01*
X3504Y2340D01*
X3506Y2350D01*
X3508Y2360D01*
X3509Y2370D01*
X3510Y2380D01*
X3510Y2390D01*
X3510Y2400D01*
X3509Y2410D01*
X3508Y2420D01*
X3506Y2430D01*
X3504Y2440D01*
X3501Y2450D01*
X3497Y2459D01*
X3493Y2469D01*
X3489Y2478D01*
X3484Y2487D01*
X3479Y2495D01*
X3473Y2503D01*
X3467Y2511D01*
X3508Y2280D02*
X3513Y2289D01*
X3517Y2298D01*
X3521Y2307D01*
X3525Y2316D01*
X3528Y2325D01*
X3531Y2335D01*
X3533Y2344D01*
X3535Y2354D01*
X3536Y2364D01*
X3537Y2373D01*
X3538Y2383D01*
X3538Y2393D01*
X3537Y2403D01*
X3537Y2413D01*
X3535Y2422D01*
X3534Y2432D01*
X3531Y2442D01*
X3529Y2451D01*
X3526Y2460D01*
X3523Y2470D01*
X3519Y2479D01*
X3515Y2488D01*
X3510Y2496D01*
X3505Y2505D01*
X3500Y2513D01*
X3494Y2521D01*
X3488Y2529D01*
X3343Y2376D02*
X3346Y2386D01*
X3345Y2397D01*
X3340Y2407D01*
X3532Y2266D02*
X3537Y2275D01*
X3541Y2284D01*
X3546Y2294D01*
X3549Y2303D01*
X3553Y2312D01*
X3556Y2322D01*
X3558Y2332D01*
X3560Y2342D01*
X3562Y2351D01*
X3563Y2361D01*
X3564Y2371D01*
X3565Y2382D01*
X3565Y2392D01*
X3565Y2402D01*
X3564Y2412D01*
X3563Y2422D01*
X3561Y2432D01*
X3560Y2442D01*
X3557Y2451D01*
X3554Y2461D01*
X3551Y2471D01*
X3548Y2480D01*
X3544Y2489D01*
X3540Y2498D01*
X3472Y2625D02*
X3465Y2631D01*
X3457Y2637D01*
X3449Y2643D01*
X3440Y2648D01*
X3432Y2653D01*
X3423Y2657D01*
X3414Y2661D01*
X3405Y2665D01*
X3395Y2669D01*
X3386Y2672D01*
X3376Y2674D01*
X3367Y2677D01*
X3357Y2678D01*
X3347Y2680D01*
X3338Y2681D01*
X3328Y2682D01*
X3318Y2682D01*
X3308Y2682D01*
X3298Y2682D01*
X3288Y2681D01*
X3278Y2680D01*
X3269Y2678D01*
X3259Y2676D01*
X3249Y2673D01*
X3240Y2671D01*
X3230Y2667D01*
X2476Y2774D02*
X2478Y2764D01*
X2481Y2755D01*
X2485Y2746D01*
X2490Y2737D01*
X2495Y2729D01*
X2501Y2721D01*
X2508Y2714D01*
X2516Y2707D01*
X2524Y2702D01*
X2533Y2697D01*
X2542Y2693D01*
X2551Y2689D01*
X2561Y2687D01*
X2571Y2685D01*
X2581Y2685D01*
X2591Y2685D01*
X2600Y2686D01*
X2610Y2689D01*
X2620Y2692D01*
X2422Y2766D02*
X2423Y2756D01*
X2426Y2747D01*
X2429Y2737D01*
X2433Y2728D01*
X2437Y2719D01*
X2442Y2711D01*
X2447Y2702D01*
X2453Y2694D01*
X2459Y2687D01*
X2465Y2679D01*
X2473Y2673D01*
X2480Y2666D01*
X2488Y2660D01*
X2496Y2655D01*
X2505Y2650D01*
X2513Y2645D01*
X2523Y2641D01*
X2532Y2638D01*
X2541Y2635D01*
X2551Y2633D01*
X2561Y2632D01*
X2570Y2631D01*
X2580Y2630D01*
X2590Y2630D01*
X2600Y2631D01*
X2610Y2633D01*
X2619Y2634D01*
X2629Y2637D01*
X2638Y2640D01*
X2341Y2747D02*
X2343Y2737D01*
X2345Y2727D01*
X2348Y2717D01*
X2352Y2708D01*
X2355Y2698D01*
X2360Y2689D01*
X2364Y2680D01*
X2369Y2671D01*
X2374Y2663D01*
X2380Y2654D01*
X2386Y2646D01*
X2392Y2638D01*
X2399Y2630D01*
X2405Y2623D01*
X2413Y2616D01*
X2420Y2609D01*
X2428Y2603D01*
X2436Y2596D01*
X2444Y2591D01*
X2453Y2585D01*
X2461Y2580D01*
X2470Y2575D01*
X2479Y2571D01*
X2489Y2567D01*
X2498Y2563D01*
X2508Y2560D01*
X2517Y2557D01*
X2527Y2554D01*
X2537Y2552D01*
X2547Y2551D01*
X2557Y2549D01*
X2567Y2549D01*
X2577Y2548D01*
X2587Y2548D01*
X2597Y2549D01*
X2607Y2549D01*
X2617Y2551D01*
X2627Y2552D01*
X2637Y2554D01*
X2647Y2557D01*
X2657Y2560D01*
X2666Y2563D01*
X2557Y2786D02*
X2562Y2776D01*
X2571Y2770D01*
X2581Y2767D01*
X2592Y2769D01*
X2530Y2782D02*
X2533Y2772D01*
X2538Y2763D01*
X2544Y2755D01*
X2552Y2749D01*
X2561Y2744D01*
X2571Y2741D01*
X2581Y2740D01*
X2591Y2740D01*
X2601Y2743D01*
X2503Y2778D02*
X2505Y2768D01*
X2509Y2759D01*
X2514Y2750D01*
X2520Y2742D01*
X2526Y2735D01*
X2534Y2728D01*
X2542Y2723D01*
X2551Y2718D01*
X2561Y2715D01*
X2571Y2713D01*
X2581Y2712D01*
X2591Y2713D01*
X2601Y2714D01*
X2610Y2717D01*
X2394Y2762D02*
X2396Y2752D01*
X2399Y2742D01*
X2402Y2733D01*
X2405Y2723D01*
X2409Y2714D01*
X2414Y2705D01*
X2419Y2696D01*
X2424Y2687D01*
X2430Y2679D01*
X2436Y2671D01*
X2443Y2663D01*
X2450Y2656D01*
X2458Y2649D01*
X2465Y2643D01*
X2474Y2637D01*
X2482Y2631D01*
X2491Y2626D01*
X2500Y2622D01*
X2509Y2618D01*
X2519Y2614D01*
X2528Y2611D01*
X2538Y2608D01*
X2548Y2606D01*
X2558Y2604D01*
X2568Y2603D01*
X2578Y2603D01*
X2588Y2603D01*
X2598Y2604D01*
X2608Y2605D01*
X2618Y2606D01*
X2628Y2609D01*
X2638Y2611D01*
X2648Y2614D01*
X2367Y2758D02*
X2369Y2748D01*
X2372Y2738D01*
X2374Y2729D01*
X2377Y2719D01*
X2381Y2710D01*
X2385Y2700D01*
X2390Y2691D01*
X2395Y2683D01*
X2400Y2674D01*
X2406Y2666D01*
X2412Y2658D01*
X2418Y2650D01*
X2425Y2643D01*
X2432Y2635D01*
X2440Y2629D01*
X2447Y2622D01*
X2455Y2616D01*
X2464Y2610D01*
X2472Y2605D01*
X2481Y2600D01*
X2490Y2596D01*
X2499Y2592D01*
X2509Y2588D01*
X2518Y2585D01*
X2528Y2582D01*
X2538Y2580D01*
X2548Y2578D01*
X2558Y2577D01*
X2568Y2576D01*
X2578Y2575D01*
X2588Y2576D01*
X2598Y2576D01*
X2608Y2577D01*
X2618Y2578D01*
X2628Y2580D01*
X2638Y2583D01*
X2648Y2585D01*
X2657Y2589D01*
X2449Y2770D02*
X2451Y2760D01*
X2453Y2751D01*
X2457Y2741D01*
X2461Y2732D01*
X2466Y2724D01*
X2471Y2715D01*
X2477Y2708D01*
X2483Y2700D01*
X2490Y2693D01*
X2498Y2687D01*
X2506Y2681D01*
X2514Y2676D01*
X2523Y2671D01*
X2532Y2667D01*
X2542Y2664D01*
X2551Y2661D01*
X2561Y2659D01*
X2571Y2658D01*
X2580Y2658D01*
X2590Y2658D01*
X2600Y2659D01*
X2610Y2660D01*
X2620Y2663D01*
X2629Y2666D01*
X2341Y3247D02*
X2339Y3237D01*
X2338Y3227D01*
X2336Y3218D01*
X2335Y3208D01*
X2334Y3198D01*
X2333Y3188D01*
X2332Y3178D01*
X2331Y3168D01*
X2330Y3158D01*
X2329Y3148D01*
X2328Y3139D01*
X2327Y3129D01*
X2327Y3119D01*
X2326Y3109D01*
X2325Y3099D01*
X2325Y3089D01*
X2324Y3079D01*
X2324Y3069D01*
X2324Y3059D01*
X2323Y3049D01*
X2323Y3039D01*
X2323Y3029D01*
X2323Y3019D01*
X2323Y3009D01*
X2322Y3000D01*
X2323Y2990D01*
X2323Y2980D01*
X2323Y2970D01*
X2323Y2960D01*
X2323Y2950D01*
X2324Y2940D01*
X2324Y2930D01*
X2324Y2920D01*
X2325Y2910D01*
X2325Y2900D01*
X2326Y2890D01*
X2327Y2880D01*
X2327Y2870D01*
X2328Y2861D01*
X2329Y2851D01*
X2330Y2841D01*
X2331Y2831D01*
X2332Y2821D01*
X2333Y2811D01*
X2334Y2801D01*
X2335Y2791D01*
X2337Y2782D01*
X2338Y2772D01*
X2339Y2762D01*
X2341Y2752D01*
X2342Y2742D01*
X2367Y3243D02*
X2366Y3233D01*
X2365Y3223D01*
X2363Y3214D01*
X2362Y3204D01*
X2361Y3194D01*
X2360Y3184D01*
X2359Y3174D01*
X2358Y3164D01*
X2357Y3154D01*
X2356Y3144D01*
X2355Y3135D01*
X2354Y3125D01*
X2354Y3115D01*
X2353Y3105D01*
X2352Y3095D01*
X2352Y3085D01*
X2351Y3075D01*
X2351Y3065D01*
X2351Y3055D01*
X2350Y3045D01*
X2350Y3035D01*
X2350Y3025D01*
X2350Y3015D01*
X2350Y3006D01*
X2350Y2996D01*
X2350Y2986D01*
X2350Y2976D01*
X2350Y2966D01*
X2350Y2956D01*
X2350Y2946D01*
X2351Y2936D01*
X2351Y2926D01*
X2352Y2916D01*
X2352Y2906D01*
X2353Y2896D01*
X2354Y2886D01*
X2354Y2877D01*
X2355Y2867D01*
X2356Y2857D01*
X2357Y2847D01*
X2358Y2837D01*
X2359Y2827D01*
X2360Y2817D01*
X2361Y2807D01*
X2362Y2797D01*
X2363Y2788D01*
X2365Y2778D01*
X2366Y2768D01*
X2367Y2758D01*
X2394Y3239D02*
X2393Y3229D01*
X2392Y3219D01*
X2390Y3210D01*
X2389Y3200D01*
X2388Y3190D01*
X2387Y3180D01*
X2386Y3170D01*
X2385Y3160D01*
X2384Y3150D01*
X2383Y3140D01*
X2382Y3130D01*
X2381Y3120D01*
X2381Y3110D01*
X2380Y3100D01*
X2379Y3090D01*
X2379Y3080D01*
X2378Y3070D01*
X2378Y3060D01*
X2378Y3050D01*
X2377Y3040D01*
X2377Y3031D01*
X2377Y3021D01*
X2377Y3011D01*
X2377Y3001D01*
X2377Y2991D01*
X2377Y2981D01*
X2377Y2971D01*
X2377Y2961D01*
X2378Y2951D01*
X2378Y2941D01*
X2378Y2931D01*
X2379Y2921D01*
X2379Y2911D01*
X2380Y2901D01*
X2381Y2891D01*
X2381Y2881D01*
X2382Y2871D01*
X2383Y2861D01*
X2384Y2851D01*
X2385Y2841D01*
X2386Y2831D01*
X2387Y2821D01*
X2388Y2811D01*
X2389Y2802D01*
X2390Y2792D01*
X2392Y2782D01*
X2393Y2772D01*
X2394Y2762D01*
X2421Y3235D02*
X2420Y3225D01*
X2419Y3215D01*
X2417Y3205D01*
X2416Y3195D01*
X2415Y3186D01*
X2414Y3176D01*
X2413Y3166D01*
X2412Y3156D01*
X2411Y3146D01*
X2410Y3136D01*
X2409Y3126D01*
X2408Y3116D01*
X2408Y3106D01*
X2407Y3096D01*
X2407Y3086D01*
X2406Y3076D01*
X2406Y3066D01*
X2405Y3056D01*
X2405Y3046D01*
X2405Y3036D01*
X2405Y3026D01*
X2404Y3016D01*
X2404Y3006D01*
X2404Y2996D01*
X2404Y2986D01*
X2405Y2976D01*
X2405Y2966D01*
X2405Y2956D01*
X2405Y2945D01*
X2406Y2935D01*
X2406Y2925D01*
X2407Y2915D01*
X2407Y2905D01*
X2408Y2895D01*
X2408Y2885D01*
X2409Y2875D01*
X2410Y2865D01*
X2411Y2856D01*
X2412Y2846D01*
X2413Y2836D01*
X2414Y2826D01*
X2415Y2816D01*
X2416Y2806D01*
X2417Y2796D01*
X2419Y2786D01*
X2420Y2776D01*
X2421Y2766D01*
X2449Y3231D02*
X2447Y3221D01*
X2446Y3211D01*
X2444Y3201D01*
X2443Y3191D01*
X2442Y3181D01*
X2441Y3171D01*
X2440Y3161D01*
X2439Y3151D01*
X2438Y3141D01*
X2437Y3131D01*
X2436Y3121D01*
X2436Y3111D01*
X2435Y3101D01*
X2434Y3091D01*
X2434Y3081D01*
X2433Y3071D01*
X2433Y3061D01*
X2432Y3051D01*
X2432Y3041D01*
X2432Y3031D01*
X2432Y3021D01*
X2432Y3011D01*
X2432Y3001D01*
X2432Y2991D01*
X2432Y2980D01*
X2432Y2970D01*
X2432Y2960D01*
X2432Y2950D01*
X2433Y2940D01*
X2433Y2930D01*
X2434Y2920D01*
X2434Y2910D01*
X2435Y2900D01*
X2436Y2890D01*
X2436Y2880D01*
X2437Y2870D01*
X2438Y2860D01*
X2439Y2850D01*
X2440Y2840D01*
X2441Y2830D01*
X2442Y2820D01*
X2443Y2810D01*
X2444Y2800D01*
X2446Y2790D01*
X2447Y2780D01*
X2449Y2770D01*
X2476Y3227D02*
X2474Y3217D01*
X2473Y3207D01*
X2471Y3197D01*
X2470Y3187D01*
X2469Y3177D01*
X2468Y3167D01*
X2467Y3157D01*
X2466Y3147D01*
X2465Y3137D01*
X2464Y3127D01*
X2463Y3117D01*
X2463Y3107D01*
X2462Y3097D01*
X2461Y3086D01*
X2461Y3076D01*
X2460Y3066D01*
X2460Y3056D01*
X2460Y3046D01*
X2459Y3036D01*
X2459Y3026D01*
X2459Y3016D01*
X2459Y3006D01*
X2459Y2996D01*
X2459Y2985D01*
X2459Y2975D01*
X2459Y2965D01*
X2460Y2955D01*
X2460Y2945D01*
X2460Y2935D01*
X2461Y2925D01*
X2461Y2915D01*
X2462Y2905D01*
X2463Y2895D01*
X2463Y2884D01*
X2464Y2874D01*
X2465Y2864D01*
X2466Y2854D01*
X2467Y2844D01*
X2468Y2834D01*
X2469Y2824D01*
X2470Y2814D01*
X2471Y2804D01*
X2473Y2794D01*
X2474Y2784D01*
X2476Y2774D01*
X2503Y3223D02*
X2501Y3213D01*
X2500Y3204D01*
X2499Y3194D01*
X2497Y3184D01*
X2496Y3174D01*
X2495Y3164D01*
X2494Y3154D01*
X2493Y3144D01*
X2492Y3134D01*
X2491Y3125D01*
X2491Y3115D01*
X2490Y3105D01*
X2489Y3095D01*
X2489Y3085D01*
X2488Y3075D01*
X2488Y3065D01*
X2487Y3055D01*
X2487Y3045D01*
X2487Y3035D01*
X2487Y3025D01*
X2486Y3015D01*
X2486Y3006D01*
X2486Y2996D01*
X2486Y2986D01*
X2487Y2976D01*
X2487Y2966D01*
X2487Y2956D01*
X2487Y2946D01*
X2488Y2936D01*
X2488Y2926D01*
X2489Y2916D01*
X2489Y2906D01*
X2490Y2896D01*
X2491Y2886D01*
X2491Y2877D01*
X2492Y2867D01*
X2493Y2857D01*
X2494Y2847D01*
X2495Y2837D01*
X2496Y2827D01*
X2497Y2817D01*
X2499Y2807D01*
X2500Y2798D01*
X2501Y2788D01*
X2503Y2778D01*
X2668Y3442D02*
X2659Y3446D01*
X2649Y3448D01*
X2640Y3451D01*
X2630Y3453D01*
X2620Y3455D01*
X2610Y3456D01*
X2600Y3457D01*
X2590Y3457D01*
X2581Y3457D01*
X2571Y3457D01*
X2561Y3456D01*
X2551Y3455D01*
X2541Y3453D01*
X2531Y3452D01*
X2522Y3449D01*
X2512Y3447D01*
X2503Y3443D01*
X2493Y3440D01*
X2484Y3436D01*
X2475Y3432D01*
X2467Y3427D01*
X2458Y3423D01*
X2450Y3417D01*
X2441Y3412D01*
X2433Y3406D01*
X2426Y3400D01*
X2418Y3393D01*
X2411Y3386D01*
X2404Y3379D01*
X2397Y3372D01*
X2391Y3364D01*
X2385Y3356D01*
X2379Y3348D01*
X2374Y3340D01*
X2369Y3331D01*
X2364Y3322D01*
X2360Y3313D01*
X2356Y3304D01*
X2353Y3295D01*
X2349Y3286D01*
X2347Y3276D01*
X2344Y3267D01*
X2342Y3257D01*
X2341Y3247D01*
X2659Y3417D02*
X2649Y3420D01*
X2640Y3423D01*
X2630Y3425D01*
X2620Y3427D01*
X2611Y3429D01*
X2601Y3430D01*
X2591Y3430D01*
X2581Y3430D01*
X2571Y3430D01*
X2561Y3429D01*
X2551Y3428D01*
X2541Y3426D01*
X2531Y3424D01*
X2522Y3421D01*
X2512Y3418D01*
X2503Y3415D01*
X2494Y3411D01*
X2485Y3406D01*
X2476Y3402D01*
X2468Y3397D01*
X2459Y3391D01*
X2451Y3385D01*
X2443Y3379D01*
X2436Y3373D01*
X2429Y3366D01*
X2422Y3358D01*
X2415Y3351D01*
X2409Y3343D01*
X2403Y3335D01*
X2398Y3327D01*
X2393Y3318D01*
X2388Y3309D01*
X2384Y3300D01*
X2380Y3291D01*
X2377Y3282D01*
X2374Y3272D01*
X2371Y3263D01*
X2369Y3253D01*
X2367Y3243D01*
X2530Y3219D02*
X2528Y3209D01*
X2527Y3199D01*
X2526Y3190D01*
X2524Y3180D01*
X2523Y3170D01*
X2522Y3160D01*
X2521Y3150D01*
X2520Y3140D01*
X2519Y3130D01*
X2519Y3120D01*
X2518Y3110D01*
X2517Y3100D01*
X2516Y3090D01*
X2516Y3080D01*
X2515Y3070D01*
X2515Y3060D01*
X2515Y3050D01*
X2514Y3040D01*
X2514Y3031D01*
X2514Y3021D01*
X2514Y3011D01*
X2514Y3001D01*
X2514Y2991D01*
X2514Y2981D01*
X2514Y2971D01*
X2514Y2961D01*
X2515Y2951D01*
X2515Y2941D01*
X2515Y2931D01*
X2516Y2921D01*
X2516Y2911D01*
X2517Y2901D01*
X2518Y2891D01*
X2518Y2881D01*
X2519Y2871D01*
X2520Y2861D01*
X2521Y2851D01*
X2522Y2841D01*
X2523Y2831D01*
X2524Y2821D01*
X2526Y2812D01*
X2527Y2802D01*
X2528Y2792D01*
X2530Y2782D01*
X2649Y3391D02*
X2640Y3394D01*
X2630Y3397D01*
X2621Y3399D01*
X2611Y3401D01*
X2601Y3402D01*
X2591Y3403D01*
X2581Y3403D01*
X2571Y3402D01*
X2561Y3401D01*
X2551Y3400D01*
X2541Y3398D01*
X2532Y3396D01*
X2522Y3393D01*
X2513Y3389D01*
X2504Y3385D01*
X2495Y3381D01*
X2486Y3376D01*
X2477Y3370D01*
X2469Y3365D01*
X2461Y3358D01*
X2454Y3352D01*
X2447Y3345D01*
X2440Y3338D01*
X2434Y3330D01*
X2428Y3322D01*
X2422Y3314D01*
X2417Y3305D01*
X2412Y3296D01*
X2408Y3287D01*
X2404Y3278D01*
X2401Y3268D01*
X2398Y3259D01*
X2396Y3249D01*
X2394Y3239D01*
X2640Y3366D02*
X2631Y3369D01*
X2621Y3371D01*
X2611Y3373D01*
X2601Y3375D01*
X2591Y3375D01*
X2581Y3375D01*
X2571Y3375D01*
X2561Y3374D01*
X2551Y3372D01*
X2541Y3370D01*
X2532Y3367D01*
X2522Y3363D01*
X2513Y3359D01*
X2504Y3355D01*
X2496Y3350D01*
X2487Y3344D01*
X2479Y3338D01*
X2472Y3331D01*
X2465Y3324D01*
X2458Y3317D01*
X2452Y3309D01*
X2446Y3300D01*
X2441Y3292D01*
X2436Y3283D01*
X2432Y3274D01*
X2429Y3264D01*
X2426Y3255D01*
X2423Y3245D01*
X2421Y3235D01*
X2631Y3340D02*
X2621Y3343D01*
X2611Y3345D01*
X2601Y3347D01*
X2591Y3348D01*
X2581Y3348D01*
X2571Y3347D01*
X2561Y3346D01*
X2551Y3344D01*
X2541Y3341D01*
X2532Y3338D01*
X2523Y3334D01*
X2514Y3329D01*
X2505Y3323D01*
X2497Y3317D01*
X2490Y3311D01*
X2483Y3303D01*
X2476Y3296D01*
X2470Y3287D01*
X2465Y3279D01*
X2460Y3270D01*
X2456Y3260D01*
X2453Y3251D01*
X2450Y3241D01*
X2449Y3231D01*
X2621Y3314D02*
X2612Y3317D01*
X2602Y3319D01*
X2591Y3320D01*
X2581Y3321D01*
X2571Y3320D01*
X2561Y3318D01*
X2551Y3316D01*
X2542Y3312D01*
X2532Y3308D01*
X2524Y3303D01*
X2515Y3297D01*
X2508Y3290D01*
X2501Y3282D01*
X2494Y3274D01*
X2489Y3266D01*
X2484Y3257D01*
X2480Y3247D01*
X2478Y3237D01*
X2476Y3227D01*
X2557Y3215D02*
X2555Y3205D01*
X2554Y3195D01*
X2553Y3185D01*
X2552Y3176D01*
X2550Y3166D01*
X2549Y3156D01*
X2548Y3146D01*
X2547Y3136D01*
X2546Y3126D01*
X2546Y3116D01*
X2545Y3106D01*
X2544Y3096D01*
X2544Y3086D01*
X2543Y3076D01*
X2543Y3066D01*
X2542Y3056D01*
X2542Y3046D01*
X2542Y3036D01*
X2541Y3026D01*
X2541Y3016D01*
X2541Y3006D01*
X2541Y2996D01*
X2541Y2986D01*
X2541Y2976D01*
X2541Y2966D01*
X2542Y2955D01*
X2542Y2945D01*
X2543Y2935D01*
X2543Y2925D01*
X2544Y2915D01*
X2544Y2905D01*
X2545Y2895D01*
X2546Y2885D01*
X2546Y2875D01*
X2547Y2865D01*
X2548Y2856D01*
X2549Y2846D01*
X2550Y2836D01*
X2551Y2826D01*
X2553Y2816D01*
X2554Y2806D01*
X2555Y2796D01*
X2557Y2786D01*
X2612Y3288D02*
X2603Y3291D01*
X2593Y3293D01*
X2583Y3293D01*
X2574Y3293D01*
X2564Y3291D01*
X2555Y3288D01*
X2546Y3284D01*
X2538Y3279D01*
X2530Y3273D01*
X2523Y3266D01*
X2517Y3259D01*
X2512Y3251D01*
X2508Y3242D01*
X2505Y3233D01*
X2503Y3223D01*
X2603Y3263D02*
X2593Y3265D01*
X2584Y3266D01*
X2574Y3265D01*
X2565Y3263D01*
X2556Y3258D01*
X2548Y3253D01*
X2541Y3246D01*
X2536Y3238D01*
X2532Y3229D01*
X2530Y3219D01*
X2581Y3204D02*
X2580Y3194D01*
X2578Y3183D01*
X2577Y3173D01*
X2576Y3163D01*
X2575Y3153D01*
X2574Y3143D01*
X2573Y3133D01*
X2572Y3122D01*
X2571Y3112D01*
X2570Y3102D01*
X2570Y3092D01*
X2569Y3082D01*
X2569Y3071D01*
X2568Y3061D01*
X2568Y3051D01*
X2567Y3041D01*
X2567Y3031D01*
X2567Y3020D01*
X2567Y3010D01*
X2567Y3000D01*
X2593Y3237D02*
X2584Y3239D01*
X2574Y3237D01*
X2566Y3232D01*
X2560Y3224D01*
X2557Y3215D01*
X2589Y3210D02*
X2581Y3204D01*
X3099Y2953D02*
X3108Y2959D01*
X3114Y2968D01*
X3117Y2979D01*
X3108Y2927D02*
X3116Y2931D01*
X3124Y2937D01*
X3131Y2944D01*
X3136Y2951D01*
X3140Y2960D01*
X3143Y2969D01*
X3144Y2978D01*
X3117Y2902D02*
X3126Y2906D01*
X3135Y2911D01*
X3143Y2917D01*
X3150Y2924D01*
X3156Y2932D01*
X3161Y2940D01*
X3166Y2949D01*
X3169Y2958D01*
X3171Y2968D01*
X3171Y2978D01*
X3127Y2876D02*
X3136Y2880D01*
X3145Y2885D01*
X3154Y2890D01*
X3162Y2897D01*
X3169Y2904D01*
X3175Y2912D01*
X3181Y2920D01*
X3186Y2929D01*
X3191Y2938D01*
X3194Y2948D01*
X3197Y2958D01*
X3198Y2968D01*
X3199Y2978D01*
X3136Y2850D02*
X3145Y2854D01*
X3154Y2858D01*
X3162Y2863D01*
X3170Y2869D01*
X3178Y2875D01*
X3185Y2881D01*
X3192Y2888D01*
X3198Y2896D01*
X3204Y2904D01*
X3209Y2912D01*
X3213Y2921D01*
X3217Y2930D01*
X3220Y2939D01*
X3223Y2949D01*
X3224Y2958D01*
X3226Y2968D01*
X3226Y2978D01*
X3145Y2825D02*
X3155Y2828D01*
X3164Y2833D01*
X3172Y2837D01*
X3181Y2843D01*
X3189Y2848D01*
X3197Y2855D01*
X3204Y2861D01*
X3211Y2869D01*
X3217Y2876D01*
X3223Y2884D01*
X3229Y2892D01*
X3234Y2901D01*
X3238Y2910D01*
X3242Y2919D01*
X3245Y2928D01*
X3248Y2938D01*
X3250Y2948D01*
X3252Y2958D01*
X3253Y2967D01*
X3253Y2977D01*
X3155Y2799D02*
X3164Y2803D01*
X3173Y2807D01*
X3182Y2812D01*
X3191Y2817D01*
X3199Y2822D01*
X3207Y2828D01*
X3215Y2835D01*
X3223Y2842D01*
X3230Y2849D01*
X3236Y2856D01*
X3243Y2864D01*
X3248Y2873D01*
X3254Y2881D01*
X3259Y2890D01*
X3263Y2899D01*
X3267Y2908D01*
X3271Y2918D01*
X3274Y2927D01*
X3276Y2937D01*
X3278Y2947D01*
X3279Y2957D01*
X3280Y2967D01*
X3281Y2977D01*
X3164Y2773D02*
X3173Y2777D01*
X3182Y2781D01*
X3191Y2785D01*
X3200Y2790D01*
X3208Y2795D01*
X3216Y2801D01*
X3224Y2806D01*
X3232Y2813D01*
X3239Y2819D01*
X3246Y2826D01*
X3253Y2833D01*
X3259Y2841D01*
X3265Y2849D01*
X3271Y2857D01*
X3276Y2865D01*
X3281Y2873D01*
X3285Y2882D01*
X3290Y2891D01*
X3293Y2900D01*
X3297Y2909D01*
X3300Y2919D01*
X3302Y2928D01*
X3304Y2938D01*
X3306Y2948D01*
X3307Y2957D01*
X3308Y2967D01*
X3308Y2977D01*
X3173Y2748D02*
X3183Y2751D01*
X3192Y2755D01*
X3201Y2760D01*
X3210Y2764D01*
X3219Y2769D01*
X3227Y2775D01*
X3235Y2781D01*
X3243Y2787D01*
X3251Y2793D01*
X3258Y2800D01*
X3266Y2807D01*
X3272Y2815D01*
X3279Y2822D01*
X3285Y2830D01*
X3291Y2838D01*
X3297Y2847D01*
X3302Y2855D01*
X3307Y2864D01*
X3311Y2873D01*
X3316Y2882D01*
X3319Y2892D01*
X3323Y2901D01*
X3326Y2911D01*
X3328Y2920D01*
X3329Y2925D02*
X3331Y2935D01*
X3333Y2946D01*
X3334Y2956D01*
X3335Y2966D01*
X3335Y2977D01*
X3117Y3013D02*
X3113Y3019D01*
X3144Y3018D02*
X3142Y3028D01*
X3135Y3037D01*
X3126Y3043D01*
X3171Y3018D02*
X3170Y3027D01*
X3168Y3036D01*
X3164Y3045D01*
X3158Y3053D01*
X3152Y3059D01*
X3144Y3065D01*
X3135Y3069D01*
X3199Y3018D02*
X3198Y3028D01*
X3196Y3038D01*
X3193Y3047D01*
X3189Y3056D01*
X3184Y3065D01*
X3177Y3072D01*
X3170Y3079D01*
X3162Y3085D01*
X3154Y3090D01*
X3145Y3094D01*
X3226Y3018D02*
X3225Y3029D01*
X3224Y3039D01*
X3221Y3049D01*
X3218Y3058D01*
X3214Y3067D01*
X3209Y3076D01*
X3203Y3085D01*
X3196Y3092D01*
X3189Y3099D01*
X3181Y3106D01*
X3172Y3111D01*
X3163Y3116D01*
X3154Y3120D01*
X3253Y3019D02*
X3253Y3028D01*
X3252Y3038D01*
X3250Y3048D01*
X3247Y3057D01*
X3244Y3066D01*
X3240Y3075D01*
X3236Y3084D01*
X3231Y3092D01*
X3225Y3100D01*
X3219Y3108D01*
X3212Y3115D01*
X3205Y3121D01*
X3198Y3127D01*
X3190Y3133D01*
X3181Y3138D01*
X3172Y3142D01*
X3163Y3146D01*
X3281Y3019D02*
X3280Y3029D01*
X3279Y3039D01*
X3278Y3048D01*
X3275Y3058D01*
X3273Y3068D01*
X3269Y3077D01*
X3265Y3086D01*
X3261Y3095D01*
X3256Y3104D01*
X3251Y3112D01*
X3245Y3120D01*
X3238Y3128D01*
X3231Y3135D01*
X3224Y3141D01*
X3216Y3148D01*
X3208Y3153D01*
X3200Y3159D01*
X3191Y3164D01*
X3182Y3168D01*
X3173Y3171D01*
X3309Y3020D02*
X3309Y3030D01*
X3308Y3040D01*
X3306Y3050D01*
X3304Y3059D01*
X3302Y3069D01*
X3299Y3079D01*
X3296Y3088D01*
X3292Y3097D01*
X3287Y3106D01*
X3282Y3115D01*
X3277Y3124D01*
X3271Y3132D01*
X3265Y3140D01*
X3258Y3147D01*
X3251Y3154D01*
X3244Y3161D01*
X3236Y3168D01*
X3228Y3174D01*
X3220Y3179D01*
X3211Y3184D01*
X3202Y3189D01*
X3193Y3193D01*
X3184Y3197D01*
X3335Y3019D02*
X3335Y3029D01*
X3334Y3039D01*
X3333Y3049D01*
X3331Y3058D01*
X3329Y3068D01*
X3327Y3077D01*
X3324Y3087D01*
X3321Y3096D01*
X3317Y3105D01*
X3313Y3114D01*
X3308Y3123D01*
X3303Y3131D01*
X3298Y3140D01*
X3292Y3148D01*
X3286Y3155D01*
X3280Y3163D01*
X3273Y3170D01*
X3266Y3177D01*
X3259Y3183D01*
X3251Y3190D01*
X3243Y3196D01*
X3235Y3201D01*
X3227Y3206D01*
X3218Y3211D01*
X3210Y3215D01*
X3201Y3219D01*
X3191Y3223D01*
X3358Y3061D02*
X3356Y3070D01*
X3354Y3080D01*
X3351Y3089D01*
X3348Y3099D01*
X3345Y3108D01*
X3341Y3117D01*
X3337Y3126D01*
X3332Y3135D01*
X3327Y3143D01*
X3322Y3152D01*
X3316Y3160D01*
X3310Y3168D01*
X3304Y3176D01*
X3298Y3183D01*
X3291Y3190D01*
X3284Y3197D01*
X3276Y3204D01*
X3269Y3210D01*
X3261Y3216D01*
X3253Y3222D01*
X3244Y3227D01*
X3236Y3232D01*
X3227Y3237D01*
X3218Y3241D01*
X3209Y3245D01*
X3200Y3249D01*
X3484Y3391D02*
X3548Y3467D01*
X3485Y3383D02*
X3530Y3345D01*
X3484Y3391D02*
X3485Y3383D01*
X2904Y3930D02*
X2968Y3875D01*
X3477Y3418D02*
X3504Y3450D01*
X3436Y3379D02*
X3439Y3382D01*
X3436Y3453D02*
X3462Y3485D01*
X3415Y3471D02*
X3441Y3502D01*
X3394Y3489D02*
X3420Y3520D01*
X3352Y3524D02*
X3378Y3555D01*
X3332Y3542D02*
X3357Y3572D01*
X3456Y3435D02*
X3485Y3467D01*
X3311Y3560D02*
X3333Y3586D01*
X2773Y3736D02*
X3281Y3552D01*
X3076Y4094D02*
X3359Y3603D01*
X3100Y4108D02*
X3383Y3617D01*
X3123Y4121D02*
X3407Y3630D01*
X3147Y4135D02*
X3430Y3644D01*
X3171Y4149D02*
X3454Y3658D01*
X3194Y4162D02*
X3478Y3671D01*
X3218Y4176D02*
X3502Y3684D01*
X3242Y4190D02*
X3525Y3699D01*
X3265Y4203D02*
X3549Y3712D01*
X2745Y3659D02*
X3253Y3475D01*
X2754Y3685D02*
X3262Y3500D01*
X2764Y3711D02*
X3271Y3526D01*
X2699Y3531D02*
X3206Y3346D01*
X2708Y3557D02*
X3215Y3372D01*
X2717Y3582D02*
X3224Y3398D01*
X2726Y3608D02*
X3234Y3423D01*
X2736Y3634D02*
X3243Y3449D01*
X3373Y3506D02*
X3399Y3537D01*
X3055Y4076D02*
X3334Y3593D01*
X3876Y3891D02*
X3973Y4441D01*
X3851Y3800D02*
X3891Y3807D01*
X3445Y4307D02*
X3715Y3839D01*
X3421Y4293D02*
X3691Y3826D01*
X3397Y4279D02*
X3667Y3812D01*
X3374Y4266D02*
X3644Y3798D01*
X3350Y4252D02*
X3620Y3785D01*
X3516Y4348D02*
X3786Y3880D01*
X3492Y4334D02*
X3762Y3867D01*
X3468Y4321D02*
X3738Y3853D01*
X4118Y3845D02*
X4217Y4403D01*
X4091Y3849D02*
X4190Y4408D01*
X4064Y3853D02*
X4163Y4412D01*
X4037Y3859D02*
X4136Y4417D01*
X4010Y3864D02*
X4109Y4422D01*
X3983Y3868D02*
X4082Y4427D01*
X3957Y3873D02*
X4055Y4431D01*
X3930Y3878D02*
X4028Y4436D01*
X3903Y3883D02*
X4001Y4441D01*
X3540Y4361D02*
X3809Y3894D01*
X3838Y3881D02*
X3872Y3887D01*
X3869Y3692D02*
X3912Y3698D01*
X3842Y3854D02*
X3881Y3860D01*
X3847Y3827D02*
X3886Y3834D01*
X3856Y3773D02*
X3896Y3780D01*
X3860Y3746D02*
X3901Y3753D01*
X3865Y3719D02*
X3906Y3726D01*
X3817Y3662D02*
X3822Y3662D01*
X3874Y3665D02*
X3916Y3672D01*
X3764Y4426D02*
X3778Y4343D01*
X3857Y3633D02*
X3862Y3640D01*
X3857Y3633D02*
X3868Y3575D01*
X3862Y3640D02*
X3960Y3657D01*
X4309Y3588D02*
X4395Y3538D01*
X4271Y3535D02*
X4301Y3586D01*
X4309Y3588D01*
X4696Y4181D02*
X4739Y4254D01*
X4334Y3600D02*
X4371Y3579D01*
X4288Y3634D02*
X4292Y3631D01*
X4361Y3647D02*
X4398Y3626D01*
X4375Y3671D02*
X4411Y3650D01*
X4389Y3694D02*
X4424Y3674D01*
X4417Y3741D02*
X4451Y3722D01*
X4431Y3765D02*
X4465Y3745D01*
X4348Y3624D02*
X4384Y3601D01*
X4445Y3789D02*
X4475Y3771D01*
X4432Y3817D02*
X4526Y4348D01*
X4496Y3748D02*
X4930Y4113D01*
X4513Y3727D02*
X4948Y4092D01*
X4531Y3706D02*
X4965Y4071D01*
X4549Y3685D02*
X4983Y4050D01*
X4566Y3664D02*
X5001Y4029D01*
X4584Y3643D02*
X5018Y4008D01*
X4600Y3621D02*
X5036Y3987D01*
X4619Y3602D02*
X5053Y3966D01*
X4636Y3581D02*
X5071Y3945D01*
X4351Y3831D02*
X4445Y4363D01*
X4378Y3826D02*
X4472Y4358D01*
X4405Y3822D02*
X4499Y4353D01*
X4216Y3855D02*
X4310Y4386D01*
X4243Y3850D02*
X4337Y4382D01*
X4270Y3845D02*
X4364Y4377D01*
X4297Y3841D02*
X4391Y4372D01*
X4324Y3836D02*
X4418Y4368D01*
X4403Y3718D02*
X4438Y3698D01*
X4481Y3772D02*
X4909Y4130D01*
X4870Y3291D02*
X5428D01*
X4776Y3300D02*
X4789Y3262D01*
X4791Y3441D02*
X5205Y3788D01*
X4773Y3462D02*
X5187Y3809D01*
X4756Y3483D02*
X5169Y3830D01*
X4738Y3504D02*
X5152Y3851D01*
X4721Y3525D02*
X5134Y3872D01*
X4844Y3378D02*
X5257Y3725D01*
X4826Y3399D02*
X5240Y3746D01*
X4809Y3420D02*
X5222Y3767D01*
X4866Y3045D02*
X5433Y3045D01*
X4866Y3072D02*
X5433Y3072D01*
X4865Y3099D02*
X5433Y3099D01*
X4866Y3127D02*
X5433Y3127D01*
X4866Y3154D02*
X5433Y3154D01*
X4866Y3181D02*
X5433Y3181D01*
X4866Y3209D02*
X5433Y3209D01*
X4866Y3236D02*
X5433Y3236D01*
X4866Y3263D02*
X5433Y3263D01*
X4861Y3357D02*
X5275Y3704D01*
X4853Y3327D02*
X4865Y3295D01*
X4673Y3263D02*
X4686Y3223D01*
X4827Y3318D02*
X4841Y3281D01*
X4801Y3309D02*
X4815Y3272D01*
X4750Y3291D02*
X4764Y3252D01*
X4724Y3281D02*
X4738Y3243D01*
X4698Y3272D02*
X4713Y3233D01*
X4634Y3309D02*
X4635Y3305D01*
X4647Y3254D02*
X4661Y3214D01*
X5298Y3466D02*
X5377Y3495D01*
X4613Y3265D02*
X4620Y3261D01*
X4557Y3245D02*
X4613Y3265D01*
X4620Y3261D02*
X4654Y3168D01*
X4613Y2719D02*
X4647Y2813D01*
X4588Y2841D02*
X4643Y2820D01*
X4647Y2813D01*
X5297Y2534D02*
X5377Y2505D01*
X4648Y2750D02*
X4663Y2790D01*
X4686Y2837D02*
X4689Y2841D01*
X4700Y2732D02*
X4714Y2771D01*
X4725Y2723D02*
X4740Y2761D01*
X4751Y2714D02*
X4765Y2752D01*
X4803Y2695D02*
X4816Y2733D01*
X4829Y2686D02*
X4842Y2723D01*
X4673Y2741D02*
X4688Y2781D01*
X4856Y2681D02*
X4868Y2714D01*
X4893Y2731D02*
X5433D01*
X4837Y2656D02*
X5271Y2292D01*
X4819Y2635D02*
X5253Y2271D01*
X4802Y2614D02*
X5236Y2250D01*
X4784Y2593D02*
X5218Y2229D01*
X4766Y2572D02*
X5201Y2208D01*
X4749Y2552D02*
X5183Y2187D01*
X4730Y2532D02*
X5165Y2166D01*
X4714Y2510D02*
X5148Y2145D01*
X4696Y2489D02*
X5130Y2124D01*
X4893Y2813D02*
X5433D01*
X4893Y2786D02*
X5433Y2786D01*
X4893Y2759D02*
X5433D01*
X4893Y2950D02*
X5433Y2950D01*
X4893Y2923D02*
X5433Y2923D01*
X4893Y2895D02*
X5433Y2895D01*
X4893Y2868D02*
X5433Y2868D01*
X4893Y2841D02*
X5433D01*
X4777Y2705D02*
X4791Y2742D01*
X4857Y2675D02*
X5285Y2316D01*
X4449Y2208D02*
X4546Y1659D01*
X4407Y2283D02*
X4442Y2303D01*
X4584Y2312D02*
X4997Y1965D01*
X4601Y2333D02*
X5015Y1986D01*
X4619Y2354D02*
X5032Y2007D01*
X4636Y2375D02*
X5050Y2028D01*
X4654Y2396D02*
X5067Y2049D01*
X4531Y2249D02*
X4945Y1902D01*
X4548Y2270D02*
X4962Y1923D01*
X4566Y2291D02*
X4980Y1944D01*
X4206Y2169D02*
X4305Y1611D01*
X4233Y2174D02*
X4332Y1616D01*
X4260Y2180D02*
X4358Y1621D01*
X4287Y2184D02*
X4385Y1625D01*
X4314Y2188D02*
X4412Y1630D01*
X4341Y2193D02*
X4439Y1635D01*
X4368Y2198D02*
X4466Y1640D01*
X4395Y2203D02*
X4493Y1644D01*
X4422Y2207D02*
X4520Y1649D01*
X4513Y2228D02*
X4927Y1882D01*
X4452Y2214D02*
X4482Y2231D01*
X4350Y2378D02*
X4388Y2398D01*
X4435Y2236D02*
X4469Y2255D01*
X4421Y2259D02*
X4455Y2279D01*
X4393Y2306D02*
X4428Y2327D01*
X4379Y2330D02*
X4415Y2350D01*
X4365Y2353D02*
X4401Y2374D01*
X4422Y2442D02*
X4427Y2444D01*
X4338Y2400D02*
X4375Y2422D01*
X4696Y1818D02*
X4738Y1744D01*
X4377Y2449D02*
X4379Y2457D01*
X4350Y2509D02*
X4379Y2457D01*
X4291Y2400D02*
X4377Y2449D01*
X3842Y2361D02*
X3940Y2343D01*
X3947Y2348D02*
X3957Y2406D01*
X3940Y2343D02*
X3947Y2348D01*
X3764Y1571D02*
X3779Y1654D01*
X3879Y2331D02*
X3921Y2324D01*
X3971Y2309D02*
X3975Y2307D01*
X3870Y2277D02*
X3911Y2270D01*
X3865Y2250D02*
X3906Y2243D01*
X3861Y2223D02*
X3901Y2216D01*
X3852Y2170D02*
X3891Y2163D01*
X3847Y2143D02*
X3886Y2136D01*
X3874Y2306D02*
X3916Y2297D01*
X3847Y2115D02*
X3881Y2109D01*
X3903Y2087D02*
X3997Y1555D01*
X3536Y1638D02*
X3819Y2129D01*
X3512Y1652D02*
X3795Y2143D01*
X3488Y1666D02*
X3772Y2157D01*
X3465Y1679D02*
X3748Y2170D01*
X3441Y1693D02*
X3724Y2184D01*
X3417Y1707D02*
X3701Y2198D01*
X3393Y1720D02*
X3678Y2213D01*
X3370Y1734D02*
X3653Y2225D01*
X3346Y1748D02*
X3630Y2239D01*
X3984Y2101D02*
X4077Y1569D01*
X3957Y2096D02*
X4050Y1564D01*
X3930Y2091D02*
X4024Y1560D01*
X4118Y2125D02*
X4212Y1593D01*
X4091Y2120D02*
X4185Y1588D01*
X4064Y2115D02*
X4158Y1584D01*
X4038Y2110D02*
X4131Y1579D01*
X4011Y2106D02*
X4104Y1574D01*
X3856Y2196D02*
X3896Y2189D01*
X3562Y1629D02*
X3841Y2112D01*
X2787Y2245D02*
X3312Y2435D01*
X3378Y2490D02*
X3403Y2459D01*
X3167Y1854D02*
X3437Y2321D01*
X3191Y1840D02*
X3461Y2308D01*
X3215Y1826D02*
X3485Y2294D01*
X3238Y1812D02*
X3508Y2280D01*
X3262Y1799D02*
X3532Y2266D01*
X3096Y1895D02*
X3366Y2362D01*
X3120Y1881D02*
X3390Y2349D01*
X3144Y1867D02*
X3414Y2335D01*
X2698Y2474D02*
X3231Y2668D01*
X2708Y2449D02*
X3240Y2642D01*
X2717Y2423D02*
X3251Y2617D01*
X2726Y2397D02*
X3259Y2591D01*
X2736Y2371D02*
X3268Y2565D01*
X2745Y2346D02*
X3278Y2539D01*
X2754Y2320D02*
X3287Y2514D01*
X2764Y2294D02*
X3297Y2488D01*
X2773Y2269D02*
X3306Y2462D01*
X3073Y1908D02*
X3343Y2376D01*
X3318Y2434D02*
X3340Y2407D01*
X3461Y2562D02*
X3488Y2529D01*
X3336Y2454D02*
X3361Y2424D01*
X3357Y2472D02*
X3382Y2442D01*
X3398Y2508D02*
X3424Y2477D01*
X3419Y2525D02*
X3446Y2494D01*
X3440Y2543D02*
X3467Y2511D01*
X3538Y2503D02*
X3540Y2498D01*
X3481Y2579D02*
X3509Y2546D01*
X2905Y2070D02*
X2970Y2125D01*
X3536Y2549D02*
X3545Y2548D01*
X3590Y2586D01*
X3472Y2625D02*
X3536Y2549D01*
X2591Y2769D02*
X3099Y2953D01*
X2567Y3000D02*
X2651D01*
X2589Y3210D02*
X3113Y3019D01*
X3171Y2978D02*
X3171Y3018D01*
X3117Y2979D02*
X3117Y3013D01*
X3144Y2978D02*
X3144Y3018D01*
X3199Y2978D02*
X3199Y3018D01*
X3226Y2978D02*
X3226Y3018D01*
X3253Y2977D02*
X3253Y3019D01*
X3281Y3019D02*
X3281Y2977D01*
X3308Y2977D02*
X3309Y3020D01*
X3328Y2920D02*
X3329Y2925D01*
X3335Y3019D02*
X3335Y2977D01*
X3358Y2961D02*
X3364Y2955D01*
X3423D01*
X2593Y3237D02*
X3126Y3043D01*
X2603Y3263D02*
X3135Y3069D01*
X2612Y3288D02*
X3145Y3094D01*
X2621Y3314D02*
X3154Y3120D01*
X2631Y3340D02*
X3163Y3146D01*
X2640Y3366D02*
X3173Y3171D01*
X2649Y3391D02*
X3184Y3197D01*
X2659Y3417D02*
X3191Y3223D01*
X2668Y3442D02*
X3201Y3249D01*
X3358Y2961D02*
Y3061D01*
X2666Y2563D02*
X3173Y2748D01*
X2600Y2743D02*
X3108Y2927D01*
X2610Y2717D02*
X3117Y2902D01*
X2619Y2691D02*
X3127Y2876D01*
X2628Y2666D02*
X3136Y2850D01*
X2638Y2640D02*
X3145Y2825D01*
X2647Y2614D02*
X3155Y2799D01*
X2657Y2589D02*
X3164Y2773D01*
D21*
X4696Y4181D02*
D03*
X3532Y3343D02*
D03*
X2968Y3875D02*
D03*
X3778Y4343D02*
D03*
X3868Y3573D02*
D03*
X4270Y3533D02*
D03*
X5298Y3466D02*
D03*
X4555Y3244D02*
D03*
X4586Y2841D02*
D03*
X5297Y2534D02*
D03*
X4696Y1818D02*
D03*
X4349Y2510D02*
D03*
X3958Y2408D02*
D03*
X3779Y1654D02*
D03*
X2970Y2125D02*
D03*
X3592Y2587D02*
D03*
X3425Y2955D02*
D03*
X2651Y3000D02*
D03*
M02*
