M48
;Layer_Color=9474304
;FILE_FORMAT=2:3
INCH,TZ
;TYPE=PLATED
T1F00S00C0.028
T2F00S00C0.039
T3F00S00C0.157
;TYPE=NON_PLATED
T4F00S00C0.157
T5F00S00C0.787
%
T01
X4696Y1818
X4757Y1855
X4709Y1929
X5120Y2565
X5141Y2624
X5235Y2628
X5214Y2564
X5190Y2502
X5271Y2467
X5297Y2534
X5320Y2602
X4524Y2672
X4555Y2757
X4586Y2841
X4617Y2926
X4617Y3075
X4426Y2555
X4349Y2510
X4271Y2465
X4193Y2420
X4046Y2393
X3958Y2408
X3869Y2424
X3780Y2440
X3649Y2518
X3592Y2587
X3534Y2656
X3476Y2725
X3425Y2865
Y2955
Y3045
X3126Y2215
X3779Y1835
X3840Y1824
X3860Y1732
X3794Y1742
X3729Y1755
X3709Y1669
X3779Y1654
X3849Y1644
X4633Y1783
X4593Y1862
X4652Y1894
X4634Y1987
X4580Y1956
X3082Y2132
X3037Y2182
X2996Y2234
X3086Y2263
X2925Y2181
X2970Y2125
X3017Y2071
X2829Y2969
Y3032
X2740Y3000
X2742Y3067
X2653Y3072
X2651Y3000
X2653Y2929
X2742Y2934
X2924Y3820
X2968Y3875
X3016Y3929
X3080Y3869
X3036Y3819
X2995Y3766
X3084Y3738
X3124Y3785
X3648Y3481
X3590Y3412
X3532Y3343
X3474Y3274
X3425Y3135
X3779Y3557
X3868Y3573
X3957Y3588
X4045Y3604
X4192Y3578
X4270Y3533
X4348Y3488
X4426Y3443
X4524Y3328
X4555Y3244
X4586Y3159
X4581Y4042
X4634Y4011
X4652Y4104
X4593Y4136
X4634Y4215
X3860Y4265
X3794Y4255
X3728Y4242
X3708Y4328
X3778Y4343
X3849Y4353
X3840Y4173
X3779Y4162
X4696Y4181
X4757Y4143
X4709Y4069
X5120Y3434
X5141Y3376
X5236Y3372
X5214Y3435
X5190Y3498
X5272Y3532
X5298Y3466
X5320Y3398
T02
X5415Y1400
X5515Y1500
X5615Y1600
T03
X4015Y4850
T04
X4015Y1150
X5865Y3000
X2165
T05
X4016Y2998
M30
